<?xml version="1.0" encoding="UTF-8"?>
<svg width="320px" height="320px" viewBox="0 0 320 320" version="1.1" xmlns="http://www.w3.org/2000/svg" xmlns:xlink="http://www.w3.org/1999/xlink">
    <!-- Generator: Sketch 3.6.1 (26313) - http://www.bohemiancoding.com/sketch -->
    <title>add</title>
    <desc>Created with Sketch.</desc>
    <defs></defs>
    <g id="Page-1" stroke="none" stroke-width="1" fill="none" fill-rule="evenodd">
        <g id="add" fill="#FFFFFF">
            <path d="M160,4.41833089 C74.2146612,4.41833089 4.41833089,74.2086773 4.41833089,160 C4.41833089,245.791323 74.2146612,315.581669 160,315.581669 C245.785339,315.581669 315.581669,245.791323 315.581669,160 C315.581669,74.2086773 245.785339,4.41833089 160,4.41833089 L160,4.41833089 Z M160,303.613848 C80.8149143,303.613848 16.3861516,239.185086 16.3861516,160 C16.3861516,80.8149143 80.8149143,16.3861516 160,16.3861516 C239.185086,16.3861516 303.613848,80.8149143 303.613848,160 C303.613848,239.185086 239.185086,303.613848 160,303.613848 L160,303.613848 Z" id="Shape"></path>
            <path d="M234.798879,154.01609 L165.98391,154.01609 L165.98391,88.1930758 C165.98391,84.8839734 163.303119,82.2091654 160,82.2091654 C156.696881,82.2091654 154.01609,84.8839734 154.01609,88.1930758 L154.01609,154.01609 L85.2011206,154.01609 C81.8980021,154.01609 79.2172103,156.690898 79.2172103,160 C79.2172103,163.309102 81.8980021,165.98391 85.2011206,165.98391 L154.01609,165.98391 L154.01609,237.790835 C154.01609,241.099937 156.696881,243.774745 160,243.774745 C163.303119,243.774745 165.98391,241.099937 165.98391,237.790835 L165.98391,165.98391 L234.798879,165.98391 C238.101998,165.98391 240.78279,163.309102 240.78279,160 C240.78279,156.690898 238.101998,154.01609 234.798879,154.01609 L234.798879,154.01609 Z" id="Shape"></path>
        </g>
    </g>
</svg>