<?xml version="1.0" encoding="UTF-8"?>
<svg width="400px" height="400px" viewBox="0 0 400 400" version="1.1" xmlns="http://www.w3.org/2000/svg" xmlns:xlink="http://www.w3.org/1999/xlink">
    <!-- Generator: Sketch 49.2 (51160) - http://www.bohemiancoding.com/sketch -->
    <title>Bitcoin</title>
    <desc>Created with Sketch.</desc>
    <defs></defs>
    <g id="Bitcoin" stroke="none" stroke-width="1" fill="none" fill-rule="evenodd">
        <g id="Group" transform="translate(87.000000, 26.000000)" fill="#FFFFFF" fill-rule="nonzero">
            <path d="M156.305412,191.039949 L52.1018042,191.039949 C42.5150722,191.039949 34.7345361,183.259412 34.7345361,173.672681 L34.7345361,69.4690722 C34.7345361,59.8823402 42.5150722,52.1018042 52.1018042,52.1018042 L156.305412,52.1018042 C194.617606,52.1018042 225.774485,83.258683 225.774485,121.570876 C225.774485,159.88307 194.617606,191.039949 156.305412,191.039949 Z M69.4690722,156.305412 L156.305412,156.305412 C175.461509,156.305412 191.039949,140.726973 191.039949,121.570876 C191.039949,102.41478 175.461509,86.8363403 156.305412,86.8363403 L69.4690722,86.8363403 L69.4690722,156.305412 Z" id="Shape"></path>
            <path d="M156.305412,295.243557 L52.1018042,295.243557 C42.5150722,295.243557 34.7345361,287.463021 34.7345361,277.876289 L34.7345361,173.672681 C34.7345361,164.085949 42.5150722,156.305412 52.1018042,156.305412 L156.305412,156.305412 C194.617606,156.305412 225.774485,187.462291 225.774485,225.774485 C225.774485,264.086678 194.617606,295.243557 156.305412,295.243557 Z M69.4690722,260.509021 L156.305412,260.509021 C175.461509,260.509021 191.039949,244.930581 191.039949,225.774485 C191.039949,206.618388 175.461509,191.039949 156.305412,191.039949 L69.4690722,191.039949 L69.4690722,260.509021 Z" id="Shape"></path>
            <path d="M86.8363403,86.8363403 C77.2496083,86.8363403 69.4690722,79.0558042 69.4690722,69.4690722 L69.4690722,17.3672681 C69.4690722,7.78053609 77.2496083,0 86.8363403,0 C96.4230722,0 104.203608,7.78053609 104.203608,17.3672681 L104.203608,69.4690722 C104.203608,79.0558042 96.4230722,86.8363403 86.8363403,86.8363403 Z" id="Shape"></path>
            <path d="M156.305412,86.8363403 C146.718681,86.8363403 138.938144,79.0558042 138.938144,69.4690722 L138.938144,17.3672681 C138.938144,7.78053609 146.718681,0 156.305412,0 C165.892144,0 173.672681,7.78053609 173.672681,17.3672681 L173.672681,69.4690722 C173.672681,79.0558042 165.892144,86.8363403 156.305412,86.8363403 Z" id="Shape"></path>
            <path d="M86.8363403,347.345361 C77.2496083,347.345361 69.4690722,339.564825 69.4690722,329.978093 L69.4690722,277.876289 C69.4690722,268.289557 77.2496083,260.509021 86.8363403,260.509021 C96.4230722,260.509021 104.203608,268.289557 104.203608,277.876289 L104.203608,329.978093 C104.203608,339.564825 96.4230722,347.345361 86.8363403,347.345361 Z" id="Shape"></path>
            <path d="M156.305412,347.345361 C146.718681,347.345361 138.938144,339.564825 138.938144,329.978093 L138.938144,277.876289 C138.938144,268.289557 146.718681,260.509021 156.305412,260.509021 C165.892144,260.509021 173.672681,268.289557 173.672681,277.876289 L173.672681,329.978093 C173.672681,339.564825 165.892144,347.345361 156.305412,347.345361 Z" id="Shape"></path>
            <path d="M52.1018042,86.8363403 L17.3672681,86.8363403 C7.78053609,86.8363403 0,79.0558042 0,69.4690722 C0,59.8823402 7.78053609,52.1018042 17.3672681,52.1018042 L52.1018042,52.1018042 C61.6885361,52.1018042 69.4690722,59.8823402 69.4690722,69.4690722 C69.4690722,79.0558042 61.6885361,86.8363403 52.1018042,86.8363403 Z" id="Shape"></path>
            <path d="M52.1018042,295.243557 L17.3672681,295.243557 C7.78053609,295.243557 0,287.463021 0,277.876289 C0,268.289557 7.78053609,260.509021 17.3672681,260.509021 L52.1018042,260.509021 C61.6885361,260.509021 69.4690722,268.289557 69.4690722,277.876289 C69.4690722,287.463021 61.6885361,295.243557 52.1018042,295.243557 Z" id="Shape"></path>
        </g>
    </g>
</svg>