<?xml version="1.0" encoding="UTF-8"?>
<svg width="400px" height="400px" viewBox="0 0 400 400" version="1.1" xmlns="http://www.w3.org/2000/svg" xmlns:xlink="http://www.w3.org/1999/xlink">
    <!-- Generator: Sketch 3.6.1 (26313) - http://www.bohemiancoding.com/sketch -->
    <title>Bitcoin</title>
    <desc>Created with Sketch.</desc>
    <defs></defs>
    <g id="Page-1" stroke="none" stroke-width="1" fill="none" fill-rule="evenodd">
        <g id="Bitcoin">
            <g id="Group-2" transform="translate(116.000000, 38.000000)">
                <path d="M167.53828,214.926068 C167.53828,180.925805 147.430598,155.334209 111.23677,149.484702 C132.07564,140.344846 143.774656,122.065135 143.774656,99.0326989 C143.774656,65.3980303 121.107814,42 81.6236375,42 L0.461719934,42 L0.461719934,283.292187 L93.3226527,283.292187 C140.118713,283.292187 167.53828,254.775838 167.53828,214.926068 L167.53828,214.926068 Z M80.5268549,52.2366383 C115.258306,51.871044 131.710046,71.9787263 131.710046,99.3982931 C131.710046,127.183454 114.161523,146.559948 80.5268549,146.559948 L12.1607351,146.559948 L12.1607351,52.6022325 L80.5268549,52.2366383 Z M155.473671,215.291662 C155.473671,248.560736 132.441235,272.689955 92.5914643,272.689955 L12.1607351,272.689955 L12.1607351,157.16218 L92.5914643,157.16218 C132.441235,157.16218 155.473671,181.656993 155.473671,215.291662 L155.473671,215.291662 Z" id="B" fill="#FFFFFF"></path>
                <g id="Group" transform="translate(56.000000, 0.000000)" stroke="#FFFFFF" stroke-width="12">
                    <path d="M1.59813901,0.0882940907 L1.59813901,51.6457649" id="Path-4"></path>
                    <path d="M1.59813901,273.260117 L1.59813901,324.817587" id="Path-4-Copy"></path>
                </g>
            </g>
        </g>
    </g>
</svg>