<?xml version="1.0" encoding="UTF-8"?>
<svg width="2000px" height="1300px" viewBox="0 0 2000 1300" version="1.1" xmlns="http://www.w3.org/2000/svg" xmlns:xlink="http://www.w3.org/1999/xlink">
    <!-- Generator: Sketch 3.6.1 (26313) - http://www.bohemiancoding.com/sketch -->
    <title>CC-Red</title>
    <desc>Created with Sketch.</desc>
    <defs></defs>
    <g id="Page-1" stroke="none" stroke-width="1" fill="none" fill-rule="evenodd">
        <g id="CC-Red">
            <g id="Group-6" transform="translate(619.000000, 399.000000)"></g>
            <g id="Group-7" transform="translate(38.000000, 28.000000)">
                <rect id="Rectangle-1-Copy" stroke="#FFFFFF" fill="#FF2040" x="0" y="5.68434189e-14" width="1924.17802" height="1238.04472" rx="100"></rect>
                <g id="Group-2" transform="translate(1383.516891, 856.190233)">
                    <path d="M355.859448,246.646998 L355.859448,245.901377 L356.537376,245.901377 C356.687234,245.901377 356.815684,245.937572 356.908453,245.995485 C356.994086,246.053397 357.044039,246.154743 357.044039,246.277807 C357.044039,246.400871 356.994086,246.494978 356.908453,246.552891 C356.815684,246.618042 356.687234,246.646998 356.537376,246.646998 L355.859448,246.646998 Z M356.544512,247.168209 C356.894181,247.168209 357.165352,247.088579 357.358027,246.92932 C357.550701,246.770062 357.64347,246.552891 357.64347,246.277807 C357.64347,246.046158 357.57211,245.857943 357.415116,245.705923 C357.265258,245.561142 357.051175,245.467035 356.765731,245.43084 L357.664879,244.381179 L356.965542,244.381179 L356.130619,245.423601 L355.859448,245.423601 L355.859448,244.381179 L355.274288,244.381179 L355.274288,247.168209 L356.544512,247.168209 Z M356.36611,243.418388 C356.687234,243.418388 356.98695,243.483539 357.258122,243.606602 C357.536429,243.729666 357.779056,243.896164 357.986003,244.106096 C358.192949,244.316028 358.357079,244.562155 358.478393,244.851717 C358.59257,245.134039 358.656795,245.438079 358.656795,245.763835 C358.656795,246.089592 358.59257,246.393632 358.478393,246.675954 C358.357079,246.958277 358.192949,247.211643 357.986003,247.421575 C357.779056,247.631507 357.536429,247.798005 357.258122,247.921069 C356.98695,248.036893 356.687234,248.094805 356.36611,248.094805 C356.044986,248.094805 355.738134,248.036893 355.459827,247.921069 C355.174383,247.798005 354.92462,247.631507 354.717673,247.421575 C354.510727,247.211643 354.346597,246.958277 354.232419,246.675954 C354.111106,246.393632 354.054017,246.089592 354.054017,245.763835 C354.054017,245.438079 354.111106,245.134039 354.232419,244.851717 C354.346597,244.562155 354.510727,244.316028 354.717673,244.106096 C354.92462,243.896164 355.174383,243.729666 355.459827,243.606602 C355.738134,243.483539 356.044986,243.418388 356.36611,243.418388 L356.36611,243.418388 Z M356.36611,248.768036 C356.78714,248.768036 357.172488,248.688406 357.543565,248.529148 C357.907506,248.377128 358.221494,248.159957 358.499801,247.884873 C358.770973,247.617029 358.985055,247.298511 359.142049,246.92932 C359.299043,246.567369 359.37754,246.176461 359.37754,245.763835 C359.37754,245.35121 359.299043,244.960302 359.142049,244.598351 C358.985055,244.236399 358.770973,243.917881 358.499801,243.642798 C358.221494,243.374953 357.907506,243.157782 357.543565,242.998523 C357.172488,242.839265 356.78714,242.759635 356.36611,242.759635 C355.937945,242.759635 355.54546,242.839265 355.174383,242.998523 C354.803306,243.157782 354.482182,243.374953 354.211011,243.642798 C353.939839,243.917881 353.725757,244.236399 353.568763,244.598351 C353.411769,244.960302 353.333272,245.35121 353.333272,245.763835 C353.333272,246.176461 353.411769,246.567369 353.568763,246.92932 C353.725757,247.298511 353.939839,247.617029 354.211011,247.884873 C354.482182,248.159957 354.803306,248.377128 355.174383,248.529148 C355.54546,248.688406 355.937945,248.768036 356.36611,248.768036 L356.36611,248.768036 Z M78.3368855,259.503528 C78.3368855,264.816981 81.7693451,269.18212 87.3783123,269.18212 C92.7375163,269.18212 96.3555142,265.005196 96.3555142,259.503528 C96.3555142,254.00186 92.7375163,249.824935 87.3783123,249.824935 C81.7693451,249.824935 78.3368855,254.190074 78.3368855,259.503528 L78.3368855,259.503528 Z M102.464008,259.503528 L102.464008,274.618637 L95.9844375,274.618637 L95.9844375,270.948445 C93.9292434,273.670323 90.8107718,275.378736 86.5719341,275.378736 C78.215572,275.378736 71.6646409,268.7333 71.6646409,259.503528 C71.6646409,250.266516 78.215572,243.62832 86.5719341,243.62832 C90.8107718,243.62832 93.9292434,245.336732 95.9844375,248.05861 L95.9844375,244.388418 L102.464008,244.388418 L102.464008,259.503528 Z M321.427811,259.503528 C321.427811,264.816981 324.86027,269.18212 330.469238,269.18212 C335.835578,269.18212 339.446439,265.005196 339.446439,259.503528 C339.446439,254.00186 335.835578,249.824935 330.469238,249.824935 C324.86027,249.824935 321.427811,254.190074 321.427811,259.503528 L321.427811,259.503528 Z M345.562069,259.503528 L345.562069,286.758502 L339.075363,286.758502 L339.075363,270.948445 C337.020169,273.670323 333.901697,275.378736 329.662859,275.378736 C321.306497,275.378736 314.755566,268.7333 314.755566,259.503528 C314.755566,250.266516 321.306497,243.62832 329.662859,243.62832 C333.901697,243.62832 337.020169,245.336732 339.075363,248.05861 L339.075363,244.388418 L345.562069,244.388418 L345.562069,259.503528 Z M182.894885,269.493399 C187.069498,269.493399 189.752668,266.836672 190.437732,262.160254 L174.973824,262.160254 C175.666025,266.525393 178.277834,269.493399 182.894885,269.493399 L182.894885,269.493399 Z M183.023334,275.378736 C174.288759,275.378736 168.180266,268.928754 168.180266,259.503528 C168.180266,249.890087 174.538523,243.62832 183.458636,243.62832 C187.947237,243.62832 192.057625,244.764848 195.675623,247.863156 L192.500062,252.735028 C190.002431,250.715337 186.819734,249.571569 183.829712,249.571569 C179.655099,249.571569 175.851563,251.533348 174.916735,256.977104 L197.045752,256.977104 C197.109977,257.795115 197.174202,258.620365 197.174202,259.503528 C197.109977,268.928754 191.37256,275.378736 183.023334,275.378736 L183.023334,275.378736 Z M261.263431,259.503528 C261.263431,264.816981 264.695891,269.18212 270.304858,269.18212 C275.664062,269.18212 279.28206,265.005196 279.28206,259.503528 C279.28206,254.00186 275.664062,249.824935 270.304858,249.824935 C264.695891,249.824935 261.263431,254.190074 261.263431,259.503528 L261.263431,259.503528 Z M285.390553,259.503528 L285.390553,274.618637 L278.910983,274.618637 L278.910983,270.948445 C276.848653,273.670323 273.737318,275.378736 269.49848,275.378736 C261.142118,275.378736 254.591187,268.7333 254.591187,259.503528 C254.591187,250.266516 261.142118,243.62832 269.49848,243.62832 C273.737318,243.62832 276.848653,245.336732 278.910983,248.05861 L278.910983,244.388418 L285.390553,244.388418 L285.390553,259.503528 Z M224.669559,259.503528 C224.669559,250.331668 230.963591,243.62832 240.568769,243.62832 C245.05737,243.62832 248.047391,244.641785 251.287177,247.23336 L248.175841,252.546813 C245.742434,250.773249 243.187714,249.824935 240.376094,249.824935 C235.202428,249.890087 231.398892,253.683342 231.398892,259.503528 C231.398892,265.323713 235.202428,269.116969 240.376094,269.18212 C243.187714,269.18212 245.742434,268.233806 248.175841,266.460242 L251.287177,271.773695 C248.047391,274.36527 245.05737,275.378736 240.568769,275.378736 C230.963591,275.378736 224.669559,268.675387 224.669559,259.503528 L224.669559,259.503528 Z M308.211771,275.378736 C304.47246,275.378736 302.039053,273.605172 300.354935,270.948445 L300.354935,274.618637 L293.932454,274.618637 L293.932454,244.388418 L300.41916,244.388418 L300.41916,261.335004 C300.41916,266.337178 302.538579,269.116969 306.777417,269.116969 C308.090458,269.116969 309.460587,268.928754 310.830716,268.35687 L312.828822,274.553485 C311.394467,275.125369 309.524812,275.378736 308.211771,275.378736 L308.211771,275.378736 Z M134.51219,272.215276 C131.393719,274.300119 127.097792,275.378736 122.359428,275.378736 C114.809444,275.378736 109.949767,271.708544 109.949767,265.700143 C109.949767,260.770359 113.567765,257.729964 120.232873,256.78165 L123.294256,256.340068 C126.848029,255.833336 128.525011,254.885022 128.525011,253.176609 C128.525011,250.8384 126.155828,249.506418 121.731452,249.506418 C117.242851,249.506418 114.003066,250.961464 111.819422,252.669877 L108.765176,247.551878 C112.318949,244.895151 116.80755,243.62832 121.667227,243.62832 C130.273353,243.62832 135.26148,247.740093 135.26148,253.495127 C135.26148,258.80858 131.33663,261.58837 124.849924,262.536684 L121.795677,262.985504 C118.991194,263.361934 116.743325,263.926579 116.743325,265.953509 C116.743325,268.168655 118.862744,269.493399 122.416517,269.493399 C126.220053,269.493399 129.902276,268.038352 131.707707,266.901823 L134.51219,272.215276 Z M218.118628,275.378736 C214.379316,275.378736 211.945909,273.605172 210.268928,270.948445 L210.268928,274.618637 L203.846446,274.618637 L203.846446,244.388418 L210.326017,244.388418 L210.326017,261.335004 C210.326017,266.337178 212.445436,269.116969 216.684273,269.116969 C217.997314,269.116969 219.367443,268.928754 220.737573,268.35687 L222.735678,274.553485 C221.301324,275.125369 219.431668,275.378736 218.118628,275.378736 L218.118628,275.378736 Z M162.821062,274.618637 L152.223967,274.618637 L152.223967,283.790496 L145.673036,283.790496 L145.673036,274.618637 L139.628767,274.618637 L139.628767,268.610236 L145.673036,268.610236 L145.673036,254.819871 C145.673036,247.805244 148.356206,243.62832 156.020367,243.62832 C158.831987,243.62832 162.071772,244.511482 164.126966,245.966529 L162.257311,251.598499 C160.32343,250.46197 158.204011,249.890087 156.519894,249.890087 C153.280109,249.890087 152.223967,251.917017 152.223967,254.950173 L152.223967,268.610236 L162.821062,268.610236 L162.821062,274.618637 Z M65.9343601,244.388418 L65.9343601,263.361934 C65.9343601,270.506864 61.4457592,275.313584 54.2097633,275.378736 C50.406227,275.443887 46.4813772,274.242207 43.7339824,270.000131 C41.6787883,273.351805 38.4390032,275.378736 33.8861774,275.378736 C30.703481,275.378736 27.5921455,274.430422 25.1587386,270.890533 L25.1587386,274.618637 L18.6720323,274.618637 L18.6720323,244.388418 L25.2158273,244.388418 L25.2158273,261.146789 C25.2158273,266.395091 28.0845357,269.18212 32.516048,269.18212 C36.8191106,269.18212 38.9956182,266.337178 38.9956182,261.21194 L38.9956182,244.388418 L45.5465494,244.388418 L45.5465494,261.146789 C45.5465494,266.395091 48.5365713,269.18212 52.8396339,269.18212 C57.2640101,269.18212 59.383429,266.337178 59.383429,261.21194 L59.383429,244.388418 L65.9343601,244.388418 Z" id="Shape" fill="#FFFFFF" transform="translate(189.024786, 264.759068) scale(1, -1) translate(-189.024786, -264.759068) "></path>
                    <path d="M230.835141,203.589206 L132.631117,203.589206 L132.631117,24.553345 L230.835141,24.553345 L230.835141,203.589206 Z" id="Shape" fill="#FF5F00"></path>
                    <path d="M138.922294,114.056798 C138.922294,150.375046 155.684971,182.726302 181.788791,203.574728 C162.699748,218.82014 138.608306,227.919609 112.42599,227.919609 C50.4419075,227.919609 0.196693795,176.942311 0.196693795,114.056798 C0.196693795,51.1712838 50.4419075,0.193985773 112.42599,0.193985773 C138.608306,0.193985773 162.699748,9.29345519 181.788791,24.538867 C155.684971,45.3872933 138.922294,77.7385494 138.922294,114.056798" id="Shape" fill="#EB001B" transform="translate(90.992742, 114.056798) scale(1, -1) translate(-90.992742, -114.056798) "></path>
                    <path d="M363.280982,114.056798 C363.280982,51.1712838 313.035768,0.193985773 251.051686,0.193985773 C224.869369,0.193985773 200.777928,9.29345519 181.681749,24.538867 C207.792705,45.3872933 224.555381,77.7385494 224.555381,114.056798 C224.555381,150.375046 207.792705,182.726302 181.681749,203.574728 C200.777928,218.82014 224.869369,227.919609 251.051686,227.919609 C313.035768,227.919609 363.280982,176.942311 363.280982,114.056798" id="Shape" fill="#F79E1B" transform="translate(272.481366, 114.056798) scale(1, -1) translate(-272.481366, -114.056798) "></path>
                </g>
                <g id="Group-5" transform="translate(176.794135, 945.643046)" font-size="74.0068471" font-family="RobotoMono-Light, Roboto Mono Light" letter-spacing="0.75" fill="#FFFFFF" font-weight="normal">
                    <text id="Bjarte-Hakken">
                        <tspan x="-2.84217094e-14" y="78.8258733">Bjarte Hakken</tspan>
                    </text>
                    <text id="11/22">
                        <tspan x="-2.84217094e-14" y="177.501669">11/22</tspan>
                    </text>
                </g>
                <path d="M227.376953,632.25 C227.376953,637.015649 226.849615,641.517557 225.794922,645.755859 C224.740229,649.994162 223.119152,653.695297 220.931641,656.859375 C218.74413,660.023453 215.97072,662.533194 212.611328,664.388672 C209.251936,666.24415 205.24807,667.171875 200.599609,667.171875 C195.990211,667.171875 191.996111,666.24415 188.617188,664.388672 C185.238264,662.533194 182.445324,660.023453 180.238281,656.859375 C178.031239,653.695297 176.39063,649.994162 175.316406,645.755859 C174.242182,641.517557 173.685547,637.015649 173.646484,632.25 L173.646484,614.496094 C173.685547,609.730445 174.232417,605.228537 175.287109,600.990234 C176.341802,596.751932 177.972645,593.031266 180.179688,589.828125 C182.38673,586.624984 185.169905,584.095712 188.529297,582.240234 C191.888689,580.384756 195.873024,579.457031 200.482422,579.457031 C205.130883,579.457031 209.144514,580.384756 212.523438,582.240234 C215.902361,584.095712 218.685536,586.615218 220.873047,589.798828 C223.060558,592.982438 224.691401,596.703104 225.765625,600.960938 C226.839849,605.218771 227.376953,609.730445 227.376953,614.496094 L227.376953,632.25 Z M180.677734,633.304688 C180.677734,634.906258 180.736328,636.42968 180.853516,637.875 L219.349609,603.011719 C218.802732,600.511706 218.041021,598.187511 217.064453,596.039062 C216.087886,593.890614 214.828133,592.035164 213.285156,590.472656 C211.74218,588.910148 209.916026,587.679692 207.806641,586.78125 C205.697255,585.882808 203.255873,585.433594 200.482422,585.433594 C196.849591,585.433594 193.77345,586.195305 191.253906,587.71875 C188.734362,589.242195 186.693367,591.292956 185.130859,593.871094 C183.568352,596.449232 182.43555,599.417952 181.732422,602.777344 C181.029293,606.136736 180.677734,609.652325 180.677734,613.324219 L180.677734,633.304688 Z M220.345703,613.324219 C220.345703,612.03515 220.28711,610.765631 220.169922,609.515625 L181.849609,644.320312 C182.43555,646.7422 183.236323,648.988271 184.251953,651.058594 C185.267583,653.128917 186.537102,654.916008 188.060547,656.419922 C189.583992,657.923836 191.380849,659.105464 193.451172,659.964844 C195.521495,660.824223 197.904283,661.253906 200.599609,661.253906 C204.23244,661.253906 207.308581,660.48243 209.828125,658.939453 C212.347669,657.396477 214.378899,655.33595 215.921875,652.757812 C217.464851,650.179675 218.587887,647.210954 219.291016,643.851562 C219.994144,640.492171 220.345703,636.976581 220.345703,633.304688 L220.345703,613.324219 Z M291.876953,666 L284.845703,666 L284.845703,589.535156 L261.232422,599.671875 L261.232422,593.050781 L290.880859,580.6875 L291.876953,580.6875 L291.876953,666 Z M395.400391,632.25 C395.400391,637.015649 394.873052,641.517557 393.818359,645.755859 C392.763667,649.994162 391.142589,653.695297 388.955078,656.859375 C386.767567,660.023453 383.994157,662.533194 380.634766,664.388672 C377.275374,666.24415 373.271508,667.171875 368.623047,667.171875 C364.013649,667.171875 360.019548,666.24415 356.640625,664.388672 C353.261702,662.533194 350.468761,660.023453 348.261719,656.859375 C346.054676,653.695297 344.414068,649.994162 343.339844,645.755859 C342.26562,641.517557 341.708985,637.015649 341.669922,632.25 L341.669922,614.496094 C341.708985,609.730445 342.255854,605.228537 343.310547,600.990234 C344.36524,596.751932 345.996083,593.031266 348.203125,589.828125 C350.410167,586.624984 353.193343,584.095712 356.552734,582.240234 C359.912126,580.384756 363.896461,579.457031 368.505859,579.457031 C373.15432,579.457031 377.167952,580.384756 380.546875,582.240234 C383.925798,584.095712 386.708973,586.615218 388.896484,589.798828 C391.083995,592.982438 392.714838,596.703104 393.789062,600.960938 C394.863287,605.218771 395.400391,609.730445 395.400391,614.496094 L395.400391,632.25 Z M348.701172,633.304688 C348.701172,634.906258 348.759765,636.42968 348.876953,637.875 L387.373047,603.011719 C386.826169,600.511706 386.064458,598.187511 385.087891,596.039062 C384.111323,593.890614 382.85157,592.035164 381.308594,590.472656 C379.765617,588.910148 377.939464,587.679692 375.830078,586.78125 C373.720693,585.882808 371.279311,585.433594 368.505859,585.433594 C364.873029,585.433594 361.796888,586.195305 359.277344,587.71875 C356.7578,589.242195 354.716805,591.292956 353.154297,593.871094 C351.591789,596.449232 350.458988,599.417952 349.755859,602.777344 C349.052731,606.136736 348.701172,609.652325 348.701172,613.324219 L348.701172,633.304688 Z M388.369141,613.324219 C388.369141,612.03515 388.310547,610.765631 388.193359,609.515625 L349.873047,644.320312 C350.458987,646.7422 351.259761,648.988271 352.275391,651.058594 C353.291021,653.128917 354.560539,654.916008 356.083984,656.419922 C357.607429,657.923836 359.404287,659.105464 361.474609,659.964844 C363.544932,660.824223 365.927721,661.253906 368.623047,661.253906 C372.255878,661.253906 375.332019,660.48243 377.851562,658.939453 C380.371106,657.396477 382.402336,655.33595 383.945312,652.757812 C385.488289,650.179675 386.611325,647.210954 387.314453,643.851562 C388.017582,640.492171 388.369141,636.976581 388.369141,633.304688 L388.369141,613.324219 Z M468.455078,638.519531 L481.814453,638.519531 L481.814453,644.4375 L468.455078,644.4375 L468.455078,666 L461.482422,666 L461.482422,644.4375 L421.345703,644.4375 L421.345703,640.453125 L460.779297,580.6875 L468.455078,580.6875 L468.455078,638.519531 Z M429.783203,638.519531 L461.482422,638.519531 L461.482422,589.535156 L458.142578,595.453125 L429.783203,638.519531 Z M647.845703,584.730469 L611.400391,666 L604.076172,666 L640.287109,586.957031 L591.771484,586.957031 L591.771484,580.6875 L647.845703,580.6875 L647.845703,584.730469 Z M692.013672,619.535156 L699.103516,619.535156 C701.837904,619.496094 704.416004,619.105472 706.837891,618.363281 C709.259778,617.62109 711.378897,616.546882 713.195312,615.140625 C715.011728,613.734368 716.44726,612.015635 717.501953,609.984375 C718.556646,607.953115 719.083984,605.609388 719.083984,602.953125 C719.083984,600.179674 718.654301,597.708995 717.794922,595.541016 C716.935543,593.373036 715.724617,591.546882 714.162109,590.0625 C712.599602,588.578118 710.714855,587.445316 708.507812,586.664062 C706.30077,585.882809 703.849623,585.492188 701.154297,585.492188 C698.458971,585.492188 695.978527,585.912105 693.712891,586.751953 C691.447254,587.591801 689.484383,588.77343 687.824219,590.296875 C686.164054,591.82032 684.855474,593.666005 683.898438,595.833984 C682.941401,598.001964 682.44336,600.414049 682.404297,603.070312 L675.373047,603.070312 C675.451172,599.710921 676.144525,596.595717 677.453125,593.724609 C678.761725,590.853501 680.548817,588.363292 682.814453,586.253906 C685.080089,584.144521 687.775375,582.494147 690.900391,581.302734 C694.025406,580.111322 697.443341,579.515625 701.154297,579.515625 C704.787128,579.515625 708.126938,580.052729 711.173828,581.126953 C714.220718,582.201177 716.847645,583.744131 719.054688,585.755859 C721.26173,587.767588 722.980463,590.238267 724.210938,593.167969 C725.441412,596.097671 726.056641,599.437481 726.056641,603.1875 C726.056641,605.296886 725.714847,607.31835 725.03125,609.251953 C724.347653,611.185557 723.361335,612.982414 722.072266,614.642578 C720.783197,616.302743 719.220712,617.787103 717.384766,619.095703 C715.548819,620.404303 713.498058,621.468746 711.232422,622.289062 C716.544948,623.773445 720.607408,626.322248 723.419922,629.935547 C726.232436,633.548846 727.638672,637.855444 727.638672,642.855469 C727.638672,646.683613 726.96485,650.101547 725.617188,653.109375 C724.269525,656.117203 722.414074,658.65624 720.050781,660.726562 C717.687488,662.796885 714.914078,664.388666 711.730469,665.501953 C708.546859,666.61524 705.119159,667.171875 701.447266,667.171875 C697.697247,667.171875 694.181657,666.61524 690.900391,665.501953 C687.619124,664.388666 684.748059,662.78712 682.287109,660.697266 C679.82616,658.607411 677.873054,656.058609 676.427734,653.050781 C674.982415,650.042954 674.220704,646.64455 674.142578,642.855469 L681.115234,642.855469 C681.19336,645.667983 681.75976,648.20702 682.814453,650.472656 C683.869146,652.738293 685.304678,654.671867 687.121094,656.273438 C688.937509,657.875008 691.066394,659.105464 693.507812,659.964844 C695.949231,660.824223 698.595689,661.253906 701.447266,661.253906 C704.220717,661.253906 706.789051,660.863285 709.152344,660.082031 C711.515637,659.300777 713.546867,658.148445 715.246094,656.625 C716.945321,655.101555 718.273433,653.207043 719.230469,650.941406 C720.187505,648.67577 720.666016,646.058609 720.666016,643.089844 C720.666016,639.964828 720.08985,637.298839 718.9375,635.091797 C717.78515,632.884755 716.232432,631.078132 714.279297,629.671875 C712.326162,628.265618 710.041029,627.230472 707.423828,626.566406 C704.806628,625.90234 702.033218,625.550781 699.103516,625.511719 L692.013672,625.511719 L692.013672,619.535156 Z M803.037109,580.042969 L803.037109,586.429688 L801.982422,586.429688 C796.279268,586.46875 791.376974,587.425772 787.275391,589.300781 C783.173808,591.175791 779.775404,593.685531 777.080078,596.830078 C774.384752,599.974625 772.333991,603.617167 770.927734,607.757812 C769.521477,611.898458 768.681642,616.214821 768.408203,620.707031 C769.501959,619.144523 770.810539,617.699225 772.333984,616.371094 C773.857429,615.042962 775.527335,613.910161 777.34375,612.972656 C779.160165,612.035152 781.103505,611.302737 783.173828,610.775391 C785.244151,610.248044 787.373036,609.984375 789.560547,609.984375 C793.66213,609.984375 797.246078,610.775383 800.3125,612.357422 C803.378922,613.939461 805.93749,616.029284 807.988281,618.626953 C810.039073,621.224622 811.572261,624.212874 812.587891,627.591797 C813.603521,630.97072 814.111328,634.457013 814.111328,638.050781 C814.111328,641.8008 813.574224,645.423811 812.5,648.919922 C811.425776,652.416033 809.824229,655.511705 807.695312,658.207031 C805.566396,660.902357 802.929703,663.070304 799.785156,664.710938 C796.640609,666.351571 792.998068,667.171875 788.857422,667.171875 C784.404275,667.171875 780.468767,666.283212 777.050781,664.505859 C773.632795,662.728507 770.751965,660.38478 768.408203,657.474609 C766.064441,654.564439 764.287115,651.234394 763.076172,647.484375 C761.865228,643.734356 761.240235,639.867207 761.201172,635.882812 L761.201172,628.324219 C761.201172,624.261698 761.513669,620.248067 762.138672,616.283203 C762.763675,612.31834 763.740228,608.558612 765.068359,605.003906 C766.396491,601.449201 768.115224,598.148453 770.224609,595.101562 C772.333995,592.054672 774.892563,589.427745 777.900391,587.220703 C780.908218,585.013661 784.404277,583.275397 788.388672,582.005859 C792.373067,580.736322 796.904271,580.082031 801.982422,580.042969 L803.037109,580.042969 Z M788.447266,616.019531 C786.220692,616.019531 784.042979,616.37109 781.914062,617.074219 C779.785146,617.777347 777.822275,618.7539 776.025391,620.003906 C774.228507,621.253912 772.656257,622.767569 771.308594,624.544922 C769.960931,626.322275 768.955081,628.285146 768.291016,630.433594 L768.291016,636 C768.291016,639.671893 768.798823,643.060531 769.814453,646.166016 C770.830083,649.2715 772.246085,651.937489 774.0625,654.164062 C775.878915,656.390636 778.046862,658.1289 780.566406,659.378906 C783.08595,660.628912 785.849594,661.234375 788.857422,661.195312 C791.826187,661.195312 794.453114,660.550788 796.738281,659.261719 C799.023449,657.97265 800.937492,656.263683 802.480469,654.134766 C804.023445,652.005849 805.195308,649.564467 805.996094,646.810547 C806.796879,644.056627 807.197266,641.214858 807.197266,638.285156 C807.197266,635.355454 806.796879,632.552748 805.996094,629.876953 C805.195308,627.201158 804.003914,624.837901 802.421875,622.787109 C800.839836,620.736318 798.88673,619.095709 796.5625,617.865234 C794.23827,616.634759 791.533219,616.019531 788.447266,616.019531 L788.447266,616.019531 Z M888.513672,638.519531 L901.873047,638.519531 L901.873047,644.4375 L888.513672,644.4375 L888.513672,666 L881.541016,666 L881.541016,644.4375 L841.404297,644.4375 L841.404297,640.453125 L880.837891,580.6875 L888.513672,580.6875 L888.513672,638.519531 Z M849.841797,638.519531 L881.541016,638.519531 L881.541016,589.535156 L878.201172,595.453125 L849.841797,638.519531 Z M1019.74023,622.289062 L1023.90039,580.6875 L1066.55664,580.6875 L1066.55664,587.484375 L1029.87695,587.484375 L1026.94727,616.019531 C1029.05665,614.574212 1031.4785,613.431645 1034.21289,612.591797 C1036.94728,611.751949 1039.87694,611.332031 1043.00195,611.332031 C1046.86916,611.332031 1050.36522,612.005853 1053.49023,613.353516 C1056.61525,614.701179 1059.27147,616.595691 1061.45898,619.037109 C1063.6465,621.478528 1065.32617,624.388655 1066.49805,627.767578 C1067.66993,631.146501 1068.25586,634.828105 1068.25586,638.8125 C1068.25586,642.757832 1067.74805,646.449202 1066.73242,649.886719 C1065.71679,653.324236 1064.16407,656.322253 1062.07422,658.880859 C1059.98436,661.439466 1057.34767,663.46093 1054.16406,664.945312 C1050.98045,666.429695 1047.22072,667.171875 1042.88477,667.171875 C1039.33006,667.171875 1036.03908,666.644537 1033.01172,665.589844 C1029.98436,664.535151 1027.32814,662.992198 1025.04297,660.960938 C1022.7578,658.929677 1020.90235,656.449233 1019.47656,653.519531 C1018.05077,650.589829 1017.14258,647.26955 1016.75195,643.558594 L1023.54883,643.558594 C1023.90039,646.332045 1024.58398,648.812489 1025.59961,651 C1026.61524,653.187511 1027.94335,655.042961 1029.58398,656.566406 C1031.22462,658.089851 1033.15819,659.251949 1035.38477,660.052734 C1037.61134,660.85352 1040.11131,661.253906 1042.88477,661.253906 C1046.00978,661.253906 1048.7246,660.687506 1051.0293,659.554688 C1053.334,658.421869 1055.24804,656.849619 1056.77148,654.837891 C1058.29493,652.826162 1059.41797,650.462904 1060.14062,647.748047 C1060.86328,645.03319 1061.22461,642.093766 1061.22461,638.929688 C1061.22461,635.960923 1060.78516,633.187513 1059.90625,630.609375 C1059.02734,628.031237 1057.74806,625.785166 1056.06836,623.871094 C1054.38866,621.957022 1052.34767,620.45313 1049.94531,619.359375 C1047.54296,618.26562 1044.81837,617.71875 1041.77148,617.71875 C1039.9746,617.71875 1038.32423,617.835936 1036.82031,618.070312 C1035.3164,618.304689 1033.91016,618.685544 1032.60156,619.212891 C1031.29296,619.740237 1030.04297,620.384762 1028.85156,621.146484 C1027.66015,621.908207 1026.47852,622.816401 1025.30664,623.871094 L1019.74023,622.289062 Z M1112.07227,619.535156 L1119.16211,619.535156 C1121.8965,619.496094 1124.4746,619.105472 1126.89648,618.363281 C1129.31837,617.62109 1131.43749,616.546882 1133.25391,615.140625 C1135.07032,613.734368 1136.50585,612.015635 1137.56055,609.984375 C1138.61524,607.953115 1139.14258,605.609388 1139.14258,602.953125 C1139.14258,600.179674 1138.71289,597.708995 1137.85352,595.541016 C1136.99414,593.373036 1135.78321,591.546882 1134.2207,590.0625 C1132.6582,588.578118 1130.77345,587.445316 1128.56641,586.664062 C1126.35936,585.882809 1123.90822,585.492188 1121.21289,585.492188 C1118.51756,585.492188 1116.03712,585.912105 1113.77148,586.751953 C1111.50585,587.591801 1109.54298,588.77343 1107.88281,590.296875 C1106.22265,591.82032 1104.91407,593.666005 1103.95703,595.833984 C1103,598.001964 1102.50195,600.414049 1102.46289,603.070312 L1095.43164,603.070312 C1095.50977,599.710921 1096.20312,596.595717 1097.51172,593.724609 C1098.82032,590.853501 1100.60741,588.363292 1102.87305,586.253906 C1105.13868,584.144521 1107.83397,582.494147 1110.95898,581.302734 C1114.084,580.111322 1117.50193,579.515625 1121.21289,579.515625 C1124.84572,579.515625 1128.18553,580.052729 1131.23242,581.126953 C1134.27931,582.201177 1136.90624,583.744131 1139.11328,585.755859 C1141.32032,587.767588 1143.03906,590.238267 1144.26953,593.167969 C1145.50001,596.097671 1146.11523,599.437481 1146.11523,603.1875 C1146.11523,605.296886 1145.77344,607.31835 1145.08984,609.251953 C1144.40625,611.185557 1143.41993,612.982414 1142.13086,614.642578 C1140.84179,616.302743 1139.27931,617.787103 1137.44336,619.095703 C1135.60741,620.404303 1133.55665,621.468746 1131.29102,622.289062 C1136.60354,623.773445 1140.666,626.322248 1143.47852,629.935547 C1146.29103,633.548846 1147.69727,637.855444 1147.69727,642.855469 C1147.69727,646.683613 1147.02344,650.101547 1145.67578,653.109375 C1144.32812,656.117203 1142.47267,658.65624 1140.10938,660.726562 C1137.74608,662.796885 1134.97267,664.388666 1131.78906,665.501953 C1128.60545,666.61524 1125.17775,667.171875 1121.50586,667.171875 C1117.75584,667.171875 1114.24025,666.61524 1110.95898,665.501953 C1107.67772,664.388666 1104.80665,662.78712 1102.3457,660.697266 C1099.88475,658.607411 1097.93165,656.058609 1096.48633,653.050781 C1095.04101,650.042954 1094.2793,646.64455 1094.20117,642.855469 L1101.17383,642.855469 C1101.25195,645.667983 1101.81835,648.20702 1102.87305,650.472656 C1103.92774,652.738293 1105.36327,654.671867 1107.17969,656.273438 C1108.9961,657.875008 1111.12499,659.105464 1113.56641,659.964844 C1116.00782,660.824223 1118.65428,661.253906 1121.50586,661.253906 C1124.27931,661.253906 1126.84764,660.863285 1129.21094,660.082031 C1131.57423,659.300777 1133.60546,658.148445 1135.30469,656.625 C1137.00391,655.101555 1138.33203,653.207043 1139.28906,650.941406 C1140.2461,648.67577 1140.72461,646.058609 1140.72461,643.089844 C1140.72461,639.964828 1140.14844,637.298839 1138.99609,635.091797 C1137.84374,632.884755 1136.29103,631.078132 1134.33789,629.671875 C1132.38476,628.265618 1130.09962,627.230472 1127.48242,626.566406 C1124.86522,625.90234 1122.09181,625.550781 1119.16211,625.511719 L1112.07227,625.511719 L1112.07227,619.535156 Z M1224.56055,638.519531 L1237.91992,638.519531 L1237.91992,644.4375 L1224.56055,644.4375 L1224.56055,666 L1217.58789,666 L1217.58789,644.4375 L1177.45117,644.4375 L1177.45117,640.453125 L1216.88477,580.6875 L1224.56055,580.6875 L1224.56055,638.519531 Z M1185.88867,638.519531 L1217.58789,638.519531 L1217.58789,589.535156 L1214.24805,595.453125 L1185.88867,638.519531 Z M1271.77539,622.289062 L1275.93555,580.6875 L1318.5918,580.6875 L1318.5918,587.484375 L1281.91211,587.484375 L1278.98242,616.019531 C1281.09181,614.574212 1283.51366,613.431645 1286.24805,612.591797 C1288.98244,611.751949 1291.91209,611.332031 1295.03711,611.332031 C1298.90432,611.332031 1302.40038,612.005853 1305.52539,613.353516 C1308.65041,614.701179 1311.30663,616.595691 1313.49414,619.037109 C1315.68165,621.478528 1317.36132,624.388655 1318.5332,627.767578 C1319.70508,631.146501 1320.29102,634.828105 1320.29102,638.8125 C1320.29102,642.757832 1319.78321,646.449202 1318.76758,649.886719 C1317.75195,653.324236 1316.19923,656.322253 1314.10938,658.880859 C1312.01952,661.439466 1309.38283,663.46093 1306.19922,664.945312 C1303.01561,666.429695 1299.25588,667.171875 1294.91992,667.171875 C1291.36522,667.171875 1288.07423,666.644537 1285.04688,665.589844 C1282.01952,664.535151 1279.36329,662.992198 1277.07812,660.960938 C1274.79296,658.929677 1272.93751,656.449233 1271.51172,653.519531 C1270.08593,650.589829 1269.17774,647.26955 1268.78711,643.558594 L1275.58398,643.558594 C1275.93555,646.332045 1276.61914,648.812489 1277.63477,651 C1278.6504,653.187511 1279.97851,655.042961 1281.61914,656.566406 C1283.25977,658.089851 1285.19335,659.251949 1287.41992,660.052734 C1289.6465,660.85352 1292.14647,661.253906 1294.91992,661.253906 C1298.04494,661.253906 1300.75975,660.687506 1303.06445,659.554688 C1305.36915,658.421869 1307.2832,656.849619 1308.80664,654.837891 C1310.33009,652.826162 1311.45312,650.462904 1312.17578,647.748047 C1312.89844,645.03319 1313.25977,642.093766 1313.25977,638.929688 C1313.25977,635.960923 1312.82032,633.187513 1311.94141,630.609375 C1311.0625,628.031237 1309.78321,625.785166 1308.10352,623.871094 C1306.42382,621.957022 1304.38282,620.45313 1301.98047,619.359375 C1299.57811,618.26562 1296.85353,617.71875 1293.80664,617.71875 C1292.00976,617.71875 1290.35938,617.835936 1288.85547,618.070312 C1287.35155,618.304689 1285.94532,618.685544 1284.63672,619.212891 C1283.32812,619.740237 1282.07813,620.384762 1280.88672,621.146484 C1279.69531,621.908207 1278.51368,622.816401 1277.3418,623.871094 L1271.77539,622.289062 Z M1446.94727,660.316406 C1452.92386,660.277344 1457.9531,659.349618 1462.03516,657.533203 C1466.11721,655.716788 1469.43749,653.26564 1471.99609,650.179688 C1474.5547,647.093735 1476.41992,643.500021 1477.5918,639.398438 C1478.76368,635.296854 1479.4082,630.921898 1479.52539,626.273438 C1478.50976,627.992196 1477.28907,629.564446 1475.86328,630.990234 C1474.43749,632.416023 1472.82618,633.656245 1471.0293,634.710938 C1469.23241,635.76563 1467.25978,636.585935 1465.11133,637.171875 C1462.96288,637.757815 1460.63868,638.050781 1458.13867,638.050781 C1454.07615,638.050781 1450.5215,637.220711 1447.47461,635.560547 C1444.42772,633.900382 1441.87892,631.72267 1439.82812,629.027344 C1437.77733,626.332018 1436.23438,623.275408 1435.19922,619.857422 C1434.16406,616.439436 1433.64648,612.972674 1433.64648,609.457031 C1433.64648,605.628887 1434.20312,601.927752 1435.31641,598.353516 C1436.42969,594.779279 1438.0703,591.595717 1440.23828,588.802734 C1442.40626,586.009752 1445.09178,583.773446 1448.29492,582.09375 C1451.49806,580.414054 1455.20896,579.554688 1459.42773,579.515625 C1464.34963,579.515625 1468.51951,580.482412 1471.9375,582.416016 C1475.35549,584.349619 1478.14843,586.917953 1480.31641,590.121094 C1482.48439,593.324235 1484.0664,596.966776 1485.0625,601.048828 C1486.0586,605.13088 1486.55664,609.30076 1486.55664,613.558594 L1486.55664,620.355469 C1486.55664,624.261738 1486.29297,628.109356 1485.76562,631.898438 C1485.23828,635.687519 1484.36915,639.290999 1483.1582,642.708984 C1481.94726,646.12697 1480.35548,649.291001 1478.38281,652.201172 C1476.41015,655.111343 1473.959,657.630849 1471.0293,659.759766 C1468.09959,661.888683 1464.6426,663.558588 1460.6582,664.769531 C1456.67381,665.980475 1452.10354,666.605469 1446.94727,666.644531 L1445.36523,666.644531 L1445.42383,660.316406 L1446.94727,660.316406 Z M1459.01758,632.015625 C1461.36134,632.015625 1463.61718,631.634769 1465.78516,630.873047 C1467.95314,630.111324 1469.9453,629.037116 1471.76172,627.650391 C1473.57813,626.263665 1475.16015,624.623056 1476.50781,622.728516 C1477.85548,620.833975 1478.88086,618.753918 1479.58398,616.488281 L1479.58398,612.914062 C1479.58398,609.124981 1479.1543,605.570329 1478.29492,602.25 C1477.43554,598.929671 1476.16602,596.029309 1474.48633,593.548828 C1472.80663,591.068347 1470.71681,589.115242 1468.2168,587.689453 C1465.71678,586.263665 1462.82619,585.550781 1459.54492,585.550781 C1456.49803,585.550781 1453.80275,586.224603 1451.45898,587.572266 C1449.11522,588.919929 1447.13282,590.687489 1445.51172,592.875 C1443.89062,595.062511 1442.66016,597.572251 1441.82031,600.404297 C1440.98046,603.236342 1440.56055,606.156235 1440.56055,609.164062 C1440.56055,611.976577 1440.95117,614.749986 1441.73242,617.484375 C1442.51368,620.218764 1443.68554,622.660146 1445.24805,624.808594 C1446.81055,626.957042 1448.74413,628.695306 1451.04883,630.023438 C1453.35353,631.351569 1456.00975,632.015625 1459.01758,632.015625 L1459.01758,632.015625 Z M1523.81055,622.289062 L1527.9707,580.6875 L1570.62695,580.6875 L1570.62695,587.484375 L1533.94727,587.484375 L1531.01758,616.019531 C1533.12696,614.574212 1535.54881,613.431645 1538.2832,612.591797 C1541.01759,611.751949 1543.94725,611.332031 1547.07227,611.332031 C1550.93947,611.332031 1554.43553,612.005853 1557.56055,613.353516 C1560.68556,614.701179 1563.34179,616.595691 1565.5293,619.037109 C1567.71681,621.478528 1569.39648,624.388655 1570.56836,627.767578 C1571.74024,631.146501 1572.32617,634.828105 1572.32617,638.8125 C1572.32617,642.757832 1571.81836,646.449202 1570.80273,649.886719 C1569.7871,653.324236 1568.23439,656.322253 1566.14453,658.880859 C1564.05468,661.439466 1561.41798,663.46093 1558.23438,664.945312 C1555.05077,666.429695 1551.29104,667.171875 1546.95508,667.171875 C1543.40037,667.171875 1540.10939,666.644537 1537.08203,665.589844 C1534.05467,664.535151 1531.39845,662.992198 1529.11328,660.960938 C1526.82811,658.929677 1524.97266,656.449233 1523.54688,653.519531 C1522.12109,650.589829 1521.21289,647.26955 1520.82227,643.558594 L1527.61914,643.558594 C1527.9707,646.332045 1528.65429,648.812489 1529.66992,651 C1530.68555,653.187511 1532.01366,655.042961 1533.6543,656.566406 C1535.29493,658.089851 1537.2285,659.251949 1539.45508,660.052734 C1541.68165,660.85352 1544.18163,661.253906 1546.95508,661.253906 C1550.08009,661.253906 1552.79491,660.687506 1555.09961,659.554688 C1557.40431,658.421869 1559.31835,656.849619 1560.8418,654.837891 C1562.36524,652.826162 1563.48828,650.462904 1564.21094,647.748047 C1564.9336,645.03319 1565.29492,642.093766 1565.29492,638.929688 C1565.29492,635.960923 1564.85547,633.187513 1563.97656,630.609375 C1563.09765,628.031237 1561.81837,625.785166 1560.13867,623.871094 C1558.45898,621.957022 1556.41798,620.45313 1554.01562,619.359375 C1551.61327,618.26562 1548.88869,617.71875 1545.8418,617.71875 C1544.04491,617.71875 1542.39454,617.835936 1540.89062,618.070312 C1539.38671,618.304689 1537.98048,618.685544 1536.67188,619.212891 C1535.36327,619.740237 1534.11329,620.384762 1532.92188,621.146484 C1531.73046,621.908207 1530.54883,622.816401 1529.37695,623.871094 L1523.81055,622.289062 Z M1655.04883,602.660156 C1655.04883,604.964855 1654.6875,607.132802 1653.96484,609.164062 C1653.24218,611.195323 1652.25587,613.041007 1651.00586,614.701172 C1649.75585,616.361336 1648.26173,617.826166 1646.52344,619.095703 C1644.78515,620.365241 1642.88087,621.410152 1640.81055,622.230469 C1643.15431,623.050785 1645.33202,624.124993 1647.34375,625.453125 C1649.35548,626.781257 1651.09374,628.343741 1652.55859,630.140625 C1654.02344,631.937509 1655.16601,633.949208 1655.98633,636.175781 C1656.80664,638.402355 1657.2168,640.804675 1657.2168,643.382812 C1657.2168,647.250019 1656.49415,650.667954 1655.04883,653.636719 C1653.60351,656.605484 1651.64064,659.085928 1649.16016,661.078125 C1646.67968,663.070322 1643.79884,664.583979 1640.51758,665.619141 C1637.23631,666.654302 1633.77932,667.171875 1630.14648,667.171875 C1626.47459,667.171875 1622.9883,666.664068 1619.6875,665.648438 C1616.3867,664.632807 1613.49611,663.119151 1611.01562,661.107422 C1608.53514,659.095693 1606.57227,656.605484 1605.12695,653.636719 C1603.68163,650.667954 1602.95898,647.250019 1602.95898,643.382812 C1602.95898,640.804675 1603.35937,638.402355 1604.16016,636.175781 C1604.96094,633.949208 1606.08398,631.947275 1607.5293,630.169922 C1608.97462,628.392569 1610.68358,626.830085 1612.65625,625.482422 C1614.62892,624.134759 1616.7871,623.050785 1619.13086,622.230469 C1617.06054,621.410152 1615.17579,620.365241 1613.47656,619.095703 C1611.77734,617.826166 1610.30274,616.361336 1609.05273,614.701172 C1607.80273,613.041007 1606.83594,611.195323 1606.15234,609.164062 C1605.46875,607.132802 1605.12695,604.964855 1605.12695,602.660156 C1605.12695,599.027326 1605.76171,595.785171 1607.03125,592.933594 C1608.30079,590.082017 1610.04882,587.660166 1612.27539,585.667969 C1614.50196,583.675771 1617.11913,582.152349 1620.12695,581.097656 C1623.13478,580.042963 1626.39647,579.515625 1629.91211,579.515625 C1633.38869,579.515625 1636.66014,580.042963 1639.72656,581.097656 C1642.79298,582.152349 1645.45897,583.675771 1647.72461,585.667969 C1649.99025,587.660166 1651.77734,590.082017 1653.08594,592.933594 C1654.39454,595.785171 1655.04883,599.027326 1655.04883,602.660156 L1655.04883,602.660156 Z M1650.18555,643.441406 C1650.18555,640.628892 1649.63868,638.089855 1648.54492,635.824219 C1647.45117,633.558582 1645.97657,631.644539 1644.12109,630.082031 C1642.26562,628.519523 1640.1172,627.318364 1637.67578,626.478516 C1635.23436,625.638668 1632.68556,625.21875 1630.0293,625.21875 C1627.33397,625.21875 1624.76564,625.638668 1622.32422,626.478516 C1619.8828,627.318364 1617.75392,628.519523 1615.9375,630.082031 C1614.12108,631.644539 1612.67579,633.558582 1611.60156,635.824219 C1610.52734,638.089855 1609.99023,640.628892 1609.99023,643.441406 C1609.99023,646.332046 1610.52734,648.890614 1611.60156,651.117188 C1612.67579,653.343761 1614.12108,655.208977 1615.9375,656.712891 C1617.75392,658.216804 1619.8828,659.349606 1622.32422,660.111328 C1624.76564,660.873051 1627.37303,661.253906 1630.14648,661.253906 C1632.84181,661.253906 1635.40038,660.863285 1637.82227,660.082031 C1640.24415,659.300777 1642.37304,658.158211 1644.20898,656.654297 C1646.04493,655.150383 1647.49999,653.294933 1648.57422,651.087891 C1649.64844,648.880848 1650.18555,646.332046 1650.18555,643.441406 L1650.18555,643.441406 Z M1648.01758,602.601562 C1648.01758,600.062487 1647.5293,597.738292 1646.55273,595.628906 C1645.57617,593.519521 1644.25782,591.712898 1642.59766,590.208984 C1640.93749,588.705071 1639.01368,587.542973 1636.82617,586.722656 C1634.63866,585.90234 1632.334,585.492188 1629.91211,585.492188 C1627.45116,585.492188 1625.1465,585.892574 1622.99805,586.693359 C1620.8496,587.494145 1618.96485,588.626946 1617.34375,590.091797 C1615.72265,591.556648 1614.45313,593.353505 1613.53516,595.482422 C1612.61718,597.611339 1612.1582,599.984362 1612.1582,602.601562 C1612.1582,605.218763 1612.63671,607.552724 1613.59375,609.603516 C1614.55079,611.654307 1615.83984,613.392571 1617.46094,614.818359 C1619.08204,616.244148 1620.97655,617.337887 1623.14453,618.099609 C1625.31251,618.861332 1627.60741,619.242188 1630.0293,619.242188 C1632.45118,619.242188 1634.74608,618.861332 1636.91406,618.099609 C1639.08204,617.337887 1640.98632,616.244148 1642.62695,614.818359 C1644.26759,613.392571 1645.57617,611.644542 1646.55273,609.574219 C1647.5293,607.503896 1648.01758,605.1797 1648.01758,602.601562 L1648.01758,602.601562 Z M1700.1543,619.535156 L1707.24414,619.535156 C1709.97853,619.496094 1712.55663,619.105472 1714.97852,618.363281 C1717.4004,617.62109 1719.51952,616.546882 1721.33594,615.140625 C1723.15235,613.734368 1724.58789,612.015635 1725.64258,609.984375 C1726.69727,607.953115 1727.22461,605.609388 1727.22461,602.953125 C1727.22461,600.179674 1726.79493,597.708995 1725.93555,595.541016 C1725.07617,593.373036 1723.86524,591.546882 1722.30273,590.0625 C1720.74023,588.578118 1718.85548,587.445316 1716.64844,586.664062 C1714.4414,585.882809 1711.99025,585.492188 1709.29492,585.492188 C1706.5996,585.492188 1704.11915,585.912105 1701.85352,586.751953 C1699.58788,587.591801 1697.62501,588.77343 1695.96484,590.296875 C1694.30468,591.82032 1692.9961,593.666005 1692.03906,595.833984 C1691.08203,598.001964 1690.58398,600.414049 1690.54492,603.070312 L1683.51367,603.070312 C1683.5918,599.710921 1684.28515,596.595717 1685.59375,593.724609 C1686.90235,590.853501 1688.68944,588.363292 1690.95508,586.253906 C1693.22071,584.144521 1695.916,582.494147 1699.04102,581.302734 C1702.16603,580.111322 1705.58397,579.515625 1709.29492,579.515625 C1712.92775,579.515625 1716.26756,580.052729 1719.31445,581.126953 C1722.36134,582.201177 1724.98827,583.744131 1727.19531,585.755859 C1729.40235,587.767588 1731.12109,590.238267 1732.35156,593.167969 C1733.58204,596.097671 1734.19727,599.437481 1734.19727,603.1875 C1734.19727,605.296886 1733.85547,607.31835 1733.17188,609.251953 C1732.48828,611.185557 1731.50196,612.982414 1730.21289,614.642578 C1728.92382,616.302743 1727.36134,617.787103 1725.52539,619.095703 C1723.68944,620.404303 1721.63868,621.468746 1719.37305,622.289062 C1724.68557,623.773445 1728.74803,626.322248 1731.56055,629.935547 C1734.37306,633.548846 1735.7793,637.855444 1735.7793,642.855469 C1735.7793,646.683613 1735.10548,650.101547 1733.75781,653.109375 C1732.41015,656.117203 1730.5547,658.65624 1728.19141,660.726562 C1725.82811,662.796885 1723.0547,664.388666 1719.87109,665.501953 C1716.68748,666.61524 1713.25978,667.171875 1709.58789,667.171875 C1705.83787,667.171875 1702.32228,666.61524 1699.04102,665.501953 C1695.75975,664.388666 1692.88868,662.78712 1690.42773,660.697266 C1687.96678,658.607411 1686.01368,656.058609 1684.56836,653.050781 C1683.12304,650.042954 1682.36133,646.64455 1682.2832,642.855469 L1689.25586,642.855469 C1689.33398,645.667983 1689.90039,648.20702 1690.95508,650.472656 C1692.00977,652.738293 1693.4453,654.671867 1695.26172,656.273438 C1697.07813,657.875008 1699.20702,659.105464 1701.64844,659.964844 C1704.08986,660.824223 1706.73631,661.253906 1709.58789,661.253906 C1712.36134,661.253906 1714.92968,660.863285 1717.29297,660.082031 C1719.65626,659.300777 1721.68749,658.148445 1723.38672,656.625 C1725.08595,655.101555 1726.41406,653.207043 1727.37109,650.941406 C1728.32813,648.67577 1728.80664,646.058609 1728.80664,643.089844 C1728.80664,639.964828 1728.23047,637.298839 1727.07812,635.091797 C1725.92578,632.884755 1724.37306,631.078132 1722.41992,629.671875 C1720.46679,628.265618 1718.18165,627.230472 1715.56445,626.566406 C1712.94725,625.90234 1710.17384,625.550781 1707.24414,625.511719 L1700.1543,625.511719 L1700.1543,619.535156 Z" id="0104-7364-5345-9583" fill="#FFFFFF"></path>
                <g id="EMVCoContactlessIndicator" transform="translate(1593.202958, 158.292423)" stroke="#FFFFFF" stroke-width="12">
                    <path d="M127.143488,-3.69482223e-13 C162.630983,61.4661438 162.630983,137.195556 127.143488,198.6617 M83.4379139,21.852787 C111.11816,69.7963791 111.11816,128.865321 83.4379139,176.808913 M41.7189569,41.9176186 C61.7339039,76.9533206 61.7339039,120.119086 41.7189569,155.154788 M-7.99598308e-14,63.5717439 C14.4595515,85.455426 14.4595515,113.206274 -8.34887715e-14,135.089956" id="Shape"></path>
                </g>
                <g id="Group-4" transform="translate(176.794135, 121.288999)" stroke="#FFFFFF" stroke-width="8">
                    <g id="Group-3" transform="translate(0.000000, -0.000000)">
                        <g id="Group" transform="translate(0.816961, 0.935595)">
                            <path d="M67.1626651,236.568203 L67.1626651,169.129176 L134.103111,135.138077 L68.163154,101.306613 L134.103111,67.8088919 L134.103111,0.0172095106 L0.000985289461,67.2532224 L0.000985289461,270.463935 L67.1626651,236.568203 Z" id="path-1"></path>
                            <path d="M71.1004576,33.7079039 L71.1004576,100.579638" id="path-2"></path>
                            <path d="M67.1626651,169.174531 L8.62345862,135.343067 L90.4123696,90.5013747" id="path-3"></path>
                            <path d="M67.1626651,236.83746 L8.53622632,203.005996 L67.1626651,169.174531" id="path-4"></path>
                            <path d="M67.0507982,101.511603 L0.000985289461,67.5194769" id="path-5"></path>
                            <path d="M67.0507982,33.5273511 L133.740128,67.5194769" id="path-6"></path>
                        </g>
                    </g>
                </g>
            </g>
        </g>
    </g>
</svg>