<?xml version="1.0" encoding="UTF-8"?>
<svg width="180px" height="60px" viewBox="0 0 180 60" version="1.1" xmlns="http://www.w3.org/2000/svg" xmlns:xlink="http://www.w3.org/1999/xlink">
    <!-- Generator: Sketch 53.2 (72643) - https://sketchapp.com -->
    <title>cryptovalley</title>
    <desc>Created with Sketch.</desc>
    <g id="cryptovalley" stroke="none" stroke-width="1" fill="none" fill-rule="evenodd">
        <g id="cv-logo" transform="translate(9.000000, 12.000000)" fill="#FFFFFF">
            <g id="Layer_1" transform="translate(0.085078, 0.068988)">
                <g id="Group" transform="translate(39.762649, 6.564798)">
                    <g id="Group-2">
                        <path d="M0.20912968,8.32021307 C0.20912968,3.45243868 2.49224112,1.01866392 7.05868887,1.01866392 C8.03732582,1.01551574 9.01124049,1.15336143 9.95052508,1.42792846 C10.8799154,1.70227062 11.3447229,2.04407397 11.3447229,2.4533385 C11.3447229,2.75309104 11.1843902,3.14976282 10.8634998,3.6429041 C10.5426094,4.13604538 10.2585978,4.38205384 10.0112402,4.38047974 C9.8623758,4.341802 9.7184586,4.28670869 9.58173726,4.21632419 C8.76613151,3.86732498 7.88463867,3.69934663 6.9979738,3.72385752 C4.63233484,3.72385752 3.44951536,5.27254151 3.44951536,8.3696846 C3.44951536,11.4668277 4.6188426,13.0155117 6.95749709,13.0155117 C7.93455995,13.0168609 8.90037927,12.8066069 9.78861824,12.3993662 C9.95749607,12.3103174 10.1364931,12.241507 10.3215616,12.1947339 C10.609396,12.1947339 10.8830636,12.4308481 11.1423394,12.9030764 C11.3521437,13.2277895 11.4852671,13.5963525 11.5313656,13.9802067 C11.5313656,14.5273169 11.0254067,14.9516477 10.0134889,15.2529744 C9.02203428,15.5500285 7.99257657,15.7015913 6.95749709,15.7027156 C4.66089341,15.7027156 2.96222072,15.1029857 1.86192876,13.9037506 C0.761636801,12.7045156 0.210703774,10.8432615 0.20912968,8.32021307 Z" id="Shape"></path>
                        <path d="M13.2538745,14.9224146 L13.2538745,8.42140485 C13.2736632,7.70114424 13.232287,6.98043389 13.1301957,6.26714427 C13.073978,6.02405913 13.0328267,5.77760093 13.0065169,5.52956863 C13.0065169,5.31076951 13.2837823,5.14661396 13.8385382,5.03710196 C14.2466783,4.94580449 14.6620144,4.89093606 15.079824,4.87294641 C15.2651174,4.85675572 15.4515351,4.88463968 15.6240109,4.95389983 C15.722954,5.01483977 15.801209,5.10411341 15.8488815,5.21025234 C15.9028505,5.32718507 15.9455759,5.42163073 15.9725604,5.49808674 C16.0121376,5.6224402 16.0429449,5.7494921 16.0647573,5.8781181 C16.0984879,6.05576589 16.1232237,6.16595249 16.1367159,6.20642921 C16.7108106,5.16752693 17.4560319,4.64807579 18.3719299,4.64807579 C18.809753,4.64807579 19.114003,4.7605111 19.2849047,4.98538172 C19.4537825,5.2059798 19.5441805,5.47672403 19.5412572,5.75443925 C19.5284395,6.12007889 19.4666001,6.48234546 19.3568633,6.83156954 C19.233859,7.26174704 19.0840952,7.47694823 18.907122,7.47694823 C18.7607312,7.46592957 18.6159146,7.43894509 18.4753704,7.3959948 C18.3019952,7.34584865 18.1227733,7.31773983 17.942427,7.31279267 C17.2588203,7.31279267 16.7123847,7.65459602 16.3031202,8.33820272 L16.3031202,14.9201659 C16.3031202,15.357989 15.893181,15.5767881 15.0730779,15.5767881 L14.4996578,15.5767881 C13.6692106,15.5767881 13.2538745,15.3586636 13.2538745,14.9224146 Z" id="Shape"></path>
                        <path d="M19.6919205,5.22149587 C19.6919205,4.92174333 20.1086058,4.77175463 20.9422012,4.77175463 L21.5988234,4.77175463 C22.2689378,4.77175463 22.6518925,4.91567183 22.7479123,5.20350623 L23.9577162,8.99482494 C24.0807204,9.377105 24.2718605,10.2017056 24.5311363,11.4684018 L24.6120897,11.4684018 C24.8864319,10.1551574 25.0775719,9.33055678 25.1855098,8.99482494 L26.3953138,5.20125752 C26.4913335,4.91499722 26.8742882,4.77108002 27.5444027,4.76950592 L28.0368693,4.76950592 C28.8569725,4.76950592 29.2669116,4.91949463 29.2669116,5.21924717 C29.2624142,5.34427524 29.241951,5.46817895 29.2061966,5.58803499 L24.5108979,19.3388736 C24.401386,19.6251339 24.0184313,19.7690511 23.3618091,19.7706252 L23.0132596,19.7706252 C22.1931564,19.7706252 21.7832173,19.626708 21.7832173,19.3388736 C21.7838919,19.2115968 21.8113261,19.0858942 21.8641707,18.9700858 L23.1616742,15.5363114 L19.7886149,5.5902837 C19.7438656,5.47110227 19.7112594,5.34742342 19.6919205,5.22149587 Z" id="Shape"></path>
                        <path d="M30.787037,19.114003 L30.787037,8.42140485 C30.8070505,7.70114424 30.7656743,6.98043389 30.6633582,6.26714427 C30.6071405,6.02405913 30.5657644,5.7778258 30.5396794,5.52956863 C30.5396794,5.31076951 30.8162702,5.14661396 31.369452,5.03710196 C31.7775921,4.94580449 32.1929282,4.89093606 32.6107378,4.87294641 C32.7960312,4.85675572 32.9824489,4.88463968 33.1549247,4.95389983 C33.2536429,5.01506464 33.3318979,5.10433828 33.3797953,5.21025234 C33.4263436,5.30694671 33.4677197,5.40588979 33.5034742,5.50708157 C33.5405778,5.62828683 33.5713851,5.75129106 33.5956711,5.87586939 C33.6300763,6.03935033 33.6541375,6.14189134 33.6676297,6.18394214 C33.9251066,5.72138327 34.3046882,5.33865347 34.7649984,5.07757868 C35.2655604,4.78592148 35.836282,4.63660738 36.4155488,4.64582708 C37.5504708,4.64582708 38.473115,5.13447094 39.1837061,6.11198354 C39.8942973,7.08949614 40.2495929,8.43871988 40.2495929,10.1596548 C40.2495929,11.8760922 39.8702361,13.2298134 39.1117475,14.2208182 C38.3532589,15.2118231 37.2902955,15.707213 35.9230821,15.707213 C35.1756121,15.7252027 34.442309,15.502131 33.8317853,15.0708292 L33.8317853,19.1185004 C33.8317853,19.5563235 33.4218461,19.7751226 32.601743,19.7751226 L32.0283229,19.7751226 C31.200799,19.7661278 30.787037,19.5457546 30.787037,19.114003 Z M35.257465,13.3100922 C36.5286587,13.3100922 37.1643679,12.2808594 37.1643679,10.2226185 C37.1643679,8.16437772 36.6111862,7.13289617 35.5048227,7.12839876 C34.8482005,7.12839876 34.287598,7.53159179 33.8227905,8.33820272 L33.8227905,12.9120712 C34.2592643,13.1639263 34.75353,13.2979492 35.257465,13.3010974 L35.257465,13.3100922 Z" id="Shape"></path>
                        <path d="M46.4560221,13.3010974 L47.0092038,13.2178952 C47.186177,13.2178952 47.3359408,13.4196042 47.4589451,13.8227972 C47.5578881,14.1045601 47.6197276,14.3977914 47.643339,14.6952952 C47.643339,15.3654097 46.9873914,15.7004669 45.675721,15.7004669 C43.6788699,15.7004669 42.6804443,14.5934288 42.6804443,12.3791278 L42.6804443,7.20710348 L42.3521332,7.20710348 C41.9412946,7.20710348 41.7359877,6.86530013 41.7359877,6.18169344 L41.7359877,5.84663621 C41.7359877,5.16302951 41.9412946,4.82122617 42.3521332,4.82122617 L42.6804443,4.82122617 L42.9502891,2.86260304 C43.0193243,2.42477993 43.3887868,2.20598082 44.0589012,2.20598082 L44.6952851,2.20598082 C45.3788918,2.20598082 45.7206951,2.42477993 45.7206951,2.86260304 L45.7206951,4.80998263 L46.7258668,4.80998263 C47.1367055,4.80998263 47.3420123,5.15178598 47.3420123,5.83539268 L47.3420123,6.18394214 C47.3420123,6.86754884 47.1367055,7.20935219 46.7258668,7.20935219 L45.7161977,7.20935219 L45.7161977,12.4196045 C45.7161977,13.0071915 45.9628808,13.3010974 46.4560221,13.3010974 Z" id="Shape"></path>
                        <path d="M50.2495895,14.2747872 C49.4025019,13.324259 48.9790705,11.9534477 48.9790705,10.1619035 C48.9790705,8.37035921 49.4025019,7.00696862 50.2495895,6.07150683 C51.0966771,5.12862431 52.3341402,4.65707061 53.9622035,4.65707061 C55.5902668,4.65707061 56.8241319,5.12862431 57.663574,6.07150683 C58.4985186,7.00854272 58.9161033,8.37260792 58.9161033,10.1641522 C58.9161033,11.9556964 58.4955953,13.3265078 57.6545791,14.2770359 C56.813563,15.227564 55.5796979,15.7027156 53.9532087,15.7027156 C52.3267194,15.7027156 51.0921797,15.2266645 50.2495895,14.2747872 Z M52.0485545,10.173147 C52.0485545,12.2583723 52.6811156,13.3010974 53.9464625,13.3010974 C55.2118095,13.3010974 55.8443706,12.2583723 55.8443706,10.173147 C55.8443706,8.08792171 55.2118095,7.04519663 53.9464625,7.04519663 C52.6811156,7.04519663 52.0508032,8.08792171 52.0553006,10.173147 L52.0485545,10.173147 Z" id="Shape"></path>
                        <path d="M64.8099624,1.59208401 C64.8099624,1.29233147 65.2266476,1.14234277 66.060243,1.14234277 L66.7348549,1.14234277 C67.4184616,1.14234277 67.8216546,1.34022892 67.9446589,1.73600121 L70.9421843,11.3334794 L71.0253864,11.3334794 L74.1016165,1.73600121 C74.238113,1.34022892 74.641306,1.14234277 75.3114205,1.14234277 L75.9478043,1.14234277 C76.7679075,1.14234277 77.1778467,1.29233147 77.1778467,1.59208401 C77.1753731,1.71733695 77.1549098,1.84146553 77.1171316,1.96087184 L72.6871803,15.1472852 C72.5911605,15.4335455 72.2082059,15.5774627 71.5380914,15.5790368 L70.4722047,15.5790368 C69.8020902,15.5790368 69.4191355,15.4351196 69.3231158,15.1472852 L64.8931645,1.96087184 C64.8529127,1.84124066 64.8248038,1.71756182 64.8099624,1.59208401 Z" id="Shape"></path>
                        <path d="M78.2212463,12.7074389 C78.218323,12.356191 78.2529531,12.0056177 78.3246868,11.6617905 C78.4166589,11.2968255 78.5767668,10.9527735 78.7969151,10.647624 C79.0507941,10.2752383 79.3881,9.96716551 79.7818485,9.74814152 C80.7517155,9.17404682 82.1940356,8.88688704 84.1083593,8.88688704 L84.1083593,8.21227517 C84.1083593,7.43264871 83.5754159,7.04294792 82.5095291,7.04294792 C81.7505908,7.04407228 81.0013219,7.2122755 80.3147918,7.53541459 C80.1773959,7.60602397 80.0325792,7.66111727 79.8830403,7.69957014 C79.6777334,7.69957014 79.4490399,7.48751715 79.1971848,7.06318628 C78.9905287,6.76905551 78.8598789,6.42837651 78.8171535,6.07150683 C78.8171535,5.70271901 79.1965102,5.3744079 79.9549988,5.0865735 C80.8479601,4.77692665 81.7894934,4.63076075 82.7343998,4.6548219 C85.6741334,4.6548219 87.1441127,5.79649006 87.1441127,8.0796015 L87.1441127,11.918143 C87.1360173,12.630758 87.1773935,13.3429233 87.2677915,14.0499165 L87.3914704,14.8909327 C87.3914704,15.1097318 87.1148795,15.2738874 86.5616978,15.3833993 C86.1535576,15.4749217 85.7382215,15.5297901 85.3204119,15.5475549 C85.1351185,15.5637456 84.9487008,15.5360865 84.776225,15.4666015 C84.6734591,15.4009393 84.5947544,15.30402 84.5513544,15.1900106 C84.4973854,15.0595856 84.45466,14.96514 84.4276755,14.8819379 C84.386974,14.7510632 84.3561667,14.6172651 84.3354786,14.4816681 C84.301748,14.2905281 84.2770122,14.1735954 84.26352,14.1331187 C83.9606193,14.6210879 83.517849,15.0065162 82.993001,15.2394821 C82.4551104,15.5232689 81.8583038,15.6773053 81.2502536,15.6892234 C80.2007824,15.6892234 79.4317249,15.4155558 78.943081,14.8684456 C78.4544372,14.3213354 78.2138256,13.6008499 78.2212463,12.7074389 Z M81.2367614,12.3993662 C81.2259676,12.6467239 81.3237863,12.8864359 81.5043574,13.0559884 C81.7305773,13.2361098 82.0166127,13.3235844 82.3048969,13.3010974 C82.6838039,13.2927772 83.050343,13.1637014 83.3505453,12.9323096 C83.6815548,12.6988938 83.9433042,12.3802522 84.1083593,12.01034 L84.1083593,10.8859869 C82.1940356,10.8830636 81.2367614,11.3874484 81.2367614,12.3993662 Z" id="Shape"></path>
                        <path d="M93.602397,13.3010974 L94.1555787,13.2178952 C94.3325519,13.2178952 94.4823157,13.4196042 94.60532,13.8227972 C94.7040382,14.1045601 94.7661025,14.3977914 94.7897139,14.6952952 C94.7897139,15.3654097 94.1330917,15.7004669 92.8198472,15.7004669 C90.8229961,15.7004669 89.8245705,14.5934288 89.8245705,12.3791278 L89.8245705,0.730829526 C89.8245705,0.293006422 90.2345097,0.0742073057 91.0546128,0.0742073057 L91.6280329,0.0742073057 C92.4481361,0.0742073057 92.8580752,0.293006422 92.8580752,0.730829526 L92.8580752,12.4241019 C92.86707,13.0087656 93.1151023,13.3010974 93.602397,13.3010974 Z" id="Shape"></path>
                        <path d="M99.6941422,13.3010974 L100.247324,13.2178952 C100.424297,13.2178952 100.574061,13.4196042 100.697065,13.8227972 C100.796008,14.1045601 100.857848,14.3977914 100.881459,14.6952952 C100.881459,15.3654097 100.224837,15.7004669 98.9115924,15.7004669 C96.9147413,15.7004669 95.9169903,14.5934288 95.9185644,12.3791278 L95.9185644,0.730829526 C95.9185644,0.293006422 96.3285036,0.0742073057 97.1486067,0.0742073057 L97.7220268,0.0742073057 C98.54213,0.0742073057 98.9520691,0.293006422 98.9520691,0.730829526 L98.9520691,12.4241019 C98.9549924,13.0087656 99.2023501,13.3010974 99.6941422,13.3010974 Z" id="Shape"></path>
                        <path d="M102.903046,14.2545488 C102.021553,13.2905285 101.580807,11.8994788 101.580807,10.08095 C101.580807,8.26242131 102.021553,6.90195404 102.903046,5.99954823 C103.784539,5.10006574 104.994343,4.65032449 106.532458,4.65032449 C108.070573,4.65032449 109.194926,5.14279116 109.905517,6.12772449 C110.623529,7.11265782 110.982647,8.38699964 110.982647,9.95052508 C110.982647,10.114006 110.842553,10.3568663 110.562139,10.6791059 C110.281726,11.0013455 110.073496,11.1619031 109.936999,11.160329 L104.717752,11.160329 C104.785213,11.9399555 105.017504,12.4938118 105.414851,12.8221229 C105.845928,13.1621273 106.384268,13.3368518 106.932728,13.3145896 C107.534706,13.3170632 108.132187,13.209575 108.695713,12.997522 C109.256316,12.7861436 109.543475,12.6804545 109.556968,12.6804545 C109.762275,12.6804545 109.990968,12.8821634 110.242823,13.2853564 C110.449254,13.5653204 110.580129,13.8936315 110.622854,14.2388079 C110.622854,14.6885491 110.1956,15.0476675 109.341092,15.3159382 C108.56304,15.570042 107.751032,15.7049643 106.932728,15.7162079 C105.127691,15.7056389 103.784539,15.2185692 102.903046,14.2545488 Z M108.04134,9.11625507 C108.0672,8.58893346 107.939024,8.06543465 107.672552,7.6096219 C107.431491,7.23588692 107.008059,7.02023599 106.56394,7.04519663 C105.552022,7.04519663 104.936551,7.73554944 104.717752,9.11625507 L108.04134,9.11625507 Z" id="Shape"></path>
                        <path d="M111.98557,5.22149587 C111.98557,4.92174333 112.402256,4.77175463 113.235851,4.77175463 L113.892473,4.77175463 C114.562588,4.77175463 114.945542,4.91567183 115.041562,5.20350623 L116.242371,8.99482494 C116.365376,9.377105 116.556516,10.2017056 116.815791,11.4684018 L116.896745,11.4684018 C117.171087,10.1551574 117.362227,9.33055678 117.470165,8.99482494 L118.679969,5.20125752 C118.775989,4.91499722 119.158943,4.77108002 119.829058,4.76950592 L120.321524,4.76950592 C121.141628,4.76950592 121.551567,4.91949463 121.551567,5.21924717 C121.547069,5.34427524 121.526606,5.46817895 121.490852,5.58803499 L116.797802,19.3388736 C116.68829,19.6251339 116.305335,19.7690511 115.648713,19.7706252 L115.300163,19.7706252 C114.48006,19.7706252 114.070121,19.626708 114.070121,19.3388736 C114.070796,19.2115968 114.09823,19.0858942 114.151075,18.9700858 L115.444081,15.5453062 L112.071021,5.59927852 C112.02942,5.47672403 112.000637,5.35012187 111.98557,5.22149587 Z" id="Shape"></path>
                    </g>
                </g>
                <g id="Group-3" transform="translate(0.000000, 0.677784)">
                    <path d="M3.33708005,16.1906849 C3.33640544,14.645374 3.61434553,13.1128807 4.15785783,11.6662879 L1.32448797,10.0292298 C-0.456712236,14.3269572 -0.292781552,19.1850621 1.77422922,23.3528142 L4.5828633,21.731497 C3.75893734,20.0008927 3.33325725,18.1074821 3.33708005,16.1906849 Z" id="Shape"></path>
                    <path d="M14.5963522,3.391049 L14.5963522,0.128176255 C9.75353842,0.631661581 5.39577061,3.29188106 2.73442678,7.36901033 L5.53856345,8.99482494 C7.6118706,5.91162382 10.911847,3.87002343 14.5963522,3.391049 Z" id="Shape"></path>
                    <path d="M17.6051211,29.0285488 L17.6051211,32.2779293 C22.1245709,31.8947497 26.2741085,29.6273792 29.0375436,26.0310234 L26.2064224,24.3962139 C24.0573339,27.0080862 20.968511,28.6716791 17.6051211,29.0285488 Z" id="Shape"></path>
                    <path d="M29.0465384,15.9658143 C29.0481125,17.9329825 28.5972469,19.8742906 27.7287966,21.6393001 L30.5351819,23.2606173 C32.6901171,19.0209065 32.8621432,14.045644 31.0051616,9.6671881 L28.1717917,11.3019975 C28.7506087,12.7888421 29.047213,14.3703572 29.0465384,15.9658143 Z" id="Shape"></path>
                    <path d="M26.8697908,8.86889739 L29.6829223,7.24533149 C26.954567,3.15021256 22.508425,0.521924717 17.6051211,0.105689193 L17.6051211,3.35282099 C21.3498916,3.75286583 24.733295,5.76748175 26.8697908,8.86889739 Z" id="Shape"></path>
                    <path d="M6.19743438,24.2860273 L3.37305935,25.9140906 C6.0733058,29.4958299 10.1414402,31.7931082 14.6030983,32.2554422 L14.6030983,28.9903208 C11.2990742,28.5659899 8.28693221,26.8803597 6.19743438,24.2860273 Z" id="Shape"></path>
                    <path d="M16.6404261,21.4908855 C14.2356597,21.4922347 12.1297463,19.8776636 11.5070795,17.554975 C10.8844128,15.2320614 11.8999285,12.7807468 13.9829051,11.5788133 C16.0658817,10.3771047 18.6964182,10.7247546 20.3957655,12.4263506 L22.3498913,10.4722249 C19.2203668,7.34022689 14.1524576,7.31234293 10.9885279,10.4097109 C7.82482308,13.5070789 7.74521888,18.5745384 10.8102055,21.769725 C13.8749672,24.9651366 18.9413023,25.0964611 22.1677461,22.0643056 L20.2136203,20.1101798 C19.2367823,21.0004426 17.9622157,21.4931342 16.6404261,21.4908855 Z" id="Shape"></path>
                </g>
            </g>
        </g>
    </g>
</svg>