<?xml version="1.0" encoding="UTF-8"?>
<svg width="2000px" height="1300px" viewBox="0 0 2000 1300" version="1.1" xmlns="http://www.w3.org/2000/svg" xmlns:xlink="http://www.w3.org/1999/xlink">
    <!-- Generator: Sketch 3.6.1 (26313) - http://www.bohemiancoding.com/sketch -->
    <title>DigitalPrint</title>
    <desc>Created with Sketch.</desc>
    <defs></defs>
    <g id="Page-1" stroke="none" stroke-width="1" fill="none" fill-rule="evenodd">
        <g id="DigitalPrint" fill="#FD3C4D">
            <g id="password" transform="translate(356.000000, 25.000000)">
                <path d="M148.454956,485.296845 C158.302814,487.321456 169.379193,480.549827 171.718306,472.215513 C188.229681,413.295455 216.131941,359.122418 254.668312,311.190289 C261.194236,303.072195 259.906741,291.189902 251.78865,284.663977 C243.660728,278.138053 231.788263,279.425547 225.25251,287.543639 C183.512146,339.475847 153.270776,398.179683 135.383452,462.033499 C132.562758,472.06809 138.253286,483.193612 148.454956,485.296845 L148.454956,485.296845 Z" id="Shape"></path>
                <path d="M1079.22478,613.495885 C1089.65251,613.495885 1098.09493,605.043631 1098.09493,594.625742 C1098.09493,324.202825 878.090677,104.198572 607.667761,104.198572 C490.672871,104.198572 377.383215,146.076533 288.664055,222.107487 C280.752355,228.888943 279.838331,240.800721 286.61979,248.712421 C293.401246,256.624124 305.313024,257.547974 313.224727,250.756687 C395.103457,180.583343 499.675502,141.929032 607.667761,141.929032 C857.274549,141.929032 1060.35464,345.009124 1060.35464,594.625742 C1060.35464,605.043631 1068.80689,613.495885 1079.22478,613.495885 L1079.22478,613.495885 Z" id="Shape"></path>
                <path d="M976.205596,624.965393 C976.716662,624.965393 977.237556,624.945737 977.75845,624.896597 C988.146859,624.051371 995.881651,614.940629 995.036427,604.56205 C988.579298,525.602294 966.485505,451.153681 929.334912,383.289962 C899.181993,328.193073 853.746227,281.656547 797.941708,248.682939 C740.633477,214.824789 674.833679,196.927638 607.667761,196.927638 C431.684018,196.927638 276.034819,314.600672 229.134647,483.144472 C227.49334,489.100359 225.5277,497.562439 223.296698,508.285005 C219.915797,524.540849 206.667384,536.845755 190.332917,538.899848 C174.529172,540.894973 156.415799,542.310234 136.494038,543.106318 C126.085974,543.528931 117.97771,552.305512 118.400323,562.723404 C118.822934,573.141296 127.57986,581.229905 138.007579,580.817119 C158.990787,579.981723 178.18526,578.468179 195.050453,576.345288 C227.375402,572.266587 253.577381,548.01059 260.240901,515.960829 C262.31465,506.024521 264.083728,498.348695 265.498989,493.208548 C307.868356,340.979563 448.568864,234.658097 607.667761,234.658097 C668.091533,234.658097 727.247468,250.746859 778.747234,281.174966 C828.703974,310.68905 869.333751,352.262334 896.223705,401.393505 C930.818968,464.58883 951.409047,533.975921 957.414078,607.618621 C958.219989,617.495961 966.475677,624.965393 976.205596,624.965393 L976.205596,624.965393 Z" id="Shape"></path>
                <path d="M892.27277,651.078921 L892.813319,651.078921 C902.985507,651.078921 911.378791,642.980485 911.663808,632.739499 C912.145389,615.451695 911.634322,600.660255 910.140436,588.748477 C908.65638,511.21381 877.815488,438.013378 823.229665,382.533189 C815.917485,375.103072 803.966394,375.014617 796.546105,382.31697 C789.115986,389.62915 789.017703,401.580241 796.329883,409.01036 C844.340641,457.787716 871.358361,522.221394 872.429634,590.41927 C872.439462,591.146558 872.488605,591.873846 872.586886,592.601131 C873.923521,602.714348 874.385447,615.854653 873.943176,631.687881 C873.648331,642.105773 881.854879,650.784074 892.27277,651.078921 L892.27277,651.078921 Z" id="Shape"></path>
                <path d="M137.879813,671.187417 L140.454803,671.089133 C198.637746,668.818821 246.756611,661.486983 283.494421,649.290188 C317.598275,637.968101 341.412001,607.019101 344.163897,570.458198 C344.694621,563.352409 345.559503,556.29576 346.729059,549.494649 C357.215746,488.736717 388.990318,433.138591 436.214817,392.951083 C484.038836,352.252506 544.934364,329.834383 607.667761,329.834383 C650.282835,329.834383 692.652205,340.242447 730.205755,359.93816 C739.434436,364.773634 750.844975,361.215824 755.680449,351.987147 C760.525753,342.758466 756.967944,331.347925 747.739264,326.512453 C704.79986,303.996047 656.366491,292.094096 607.667761,292.094096 C535.980873,292.094096 466.397219,317.706386 411.762256,364.213425 C357.825096,410.111119 321.519725,473.630774 309.539151,543.076832 C308.163203,551.067161 307.150898,559.332676 306.531721,567.637504 C304.929724,588.974526 291.219387,606.960131 271.6023,613.476228 C248.663281,621.093083 207.040854,630.724719 138.990402,633.378331 L136.415412,633.476615 C125.997521,633.889398 117.889256,642.656152 118.292212,653.074044 C118.68534,663.236404 127.049139,671.207074 137.13287,671.207074 C137.378575,671.207074 137.624282,671.197244 137.879813,671.187417 L137.879813,671.187417 Z" id="Shape"></path>
                <path d="M655.570408,1043.84327 C636.316964,1055.75504 615.638432,1066.57589 594.114673,1076.01096 C584.571493,1080.19778 580.227427,1091.33313 584.404414,1100.87631 C587.510123,1107.95261 594.439005,1112.16891 601.702046,1112.16891 C604.227892,1112.16891 606.802879,1111.65784 609.269758,1110.57674 C632.415169,1100.43404 654.676041,1088.77779 675.423371,1075.93234 C684.288406,1070.43838 687.030474,1058.81161 681.546338,1049.94658 C676.052376,1041.09137 664.425615,1038.35913 655.570408,1043.84327 L655.570408,1043.84327 Z" id="Shape"></path>
                <path d="M797.951538,690.824158 C808.290802,691.895434 817.598107,684.376859 818.679211,674.017938 C823.21001,630.675576 820.566225,599.972282 819.907735,593.583951 C819.337701,477.03133 724.348148,382.385768 607.667761,382.385768 C504.078536,382.385768 416.116149,456.421596 398.513843,558.438309 C396.164903,572.060195 395.486757,586.782837 396.430265,603.441636 C397.019957,613.603994 395.123115,633.810772 375.928639,654.951231 C350.345837,683.109022 289.086668,717.881194 142.508896,723.601205 C132.091004,724.004161 123.98274,732.770917 124.385696,743.188807 C124.778824,753.351166 133.142622,761.331665 143.226354,761.331665 C143.472061,761.331665 143.727593,761.321837 143.973297,761.312009 C272.15268,756.309454 359.594172,729.065684 403.870211,680.327644 C432.32285,648.99534 435.035433,617.358367 434.111581,601.28926 C433.325325,587.52978 433.846222,575.608175 435.703751,564.856123 C450.170861,480.992095 522.486753,420.126055 607.667761,420.126055 C703.885838,420.126055 782.167448,498.407665 782.167448,594.625742 C782.167448,595.362855 782.216588,596.109798 782.295214,596.837086 C782.334527,597.122103 785.666287,626.773781 781.145315,670.096486 C780.064212,680.45541 787.582787,689.73323 797.951538,690.824158 L797.951538,690.824158 Z" id="Shape"></path>
                <path d="M681.752732,926.474905 C674.853334,918.671313 662.921901,917.9342 655.118309,924.843423 C592.689585,980.05825 508.481569,1017.02211 404.853031,1034.69321 C394.582563,1036.44263 387.673338,1046.19221 389.432586,1056.4725 C390.995271,1065.6717 398.975769,1072.16814 408.007883,1072.16814 C409.059501,1072.16814 410.130774,1072.07968 411.202049,1071.89295 C521.867579,1053.02281 612.345984,1013.06134 680.121249,953.109325 C687.924841,946.2001 688.661957,934.278495 681.752732,926.474905 L681.752732,926.474905 Z" id="Shape"></path>
                <path d="M734.50068,593.849313 C734.078067,524.265659 677.339871,467.792822 607.667761,467.792822 C545.75993,467.792822 493.18889,512.029549 482.682546,572.964387 C481.444191,580.099661 481.129689,588.473288 481.709553,598.557022 C483.046188,622.085731 479.311472,668.160331 439.15345,712.367572 C397.580163,758.147328 331.829508,787.07172 238.156936,800.791887 C213.095025,802.728042 189.163361,804.772307 167.030255,806.855886 C156.651676,807.838706 149.034821,817.037901 150.017641,827.41648 C150.990633,837.785231 160.219313,845.402084 170.568407,844.429094 C192.691685,842.345516 216.62335,840.30125 241.704916,838.365095 C242.127529,838.33561 242.540314,838.28647 242.962925,838.227499 C345.982116,823.229665 419.290658,790.364165 467.095022,737.743985 C516.50138,683.335071 521.061665,625.830274 519.381045,596.404645 C518.978087,589.318511 519.145168,583.588673 519.862626,579.382203 C527.253432,536.59022 564.177978,505.533109 607.667761,505.533109 C656.789105,505.533109 696.760393,545.494571 696.760393,594.625742 C696.760393,595.156463 696.780049,595.697015 696.829189,596.227736 C696.947127,597.603684 707.600896,735.05106 621.417413,830.590989 C573.711333,883.476531 461.610885,945.905256 290.040003,962.53457 C279.661424,963.537047 272.064224,972.755897 273.076529,983.134476 C274.020036,992.88405 282.236411,1000.1864 291.828734,1000.1864 C292.438084,1000.1864 293.057259,1000.15692 293.676436,1000.08812 C446.210096,985.316338 582.527227,930.05237 649.437611,855.869118 C743.837469,751.238103 735.522813,607.422057 734.50068,593.849313 L734.50068,593.849313 Z" id="Shape"></path>
                <path d="M414.769684,843.259538 C389.678291,854.15901 362.601602,863.200954 334.286557,870.129837 C297.647028,879.102983 258.471826,884.675572 217.861704,886.690353 C207.443813,887.211247 199.433829,896.066454 199.944895,906.474518 C200.446134,916.56808 208.780448,924.410982 218.775726,924.410982 C219.090229,924.410982 219.404731,924.401155 219.729061,924.381499 C262.737263,922.248778 304.300719,916.332203 343.269533,906.789021 C373.648496,899.349074 402.759625,889.619155 429.806831,877.874456 C481.709553,855.328567 527.204289,824.880803 565.033032,787.366565 C604.493252,748.230675 625.496117,685.241741 624.179137,610.006874 C624.169309,609.358211 624.159481,608.81766 624.149651,608.395049 C624.562437,603.087821 622.734391,597.642997 618.675345,593.583951 C611.294369,586.22263 599.353105,586.232458 591.981954,593.603609 C586.252113,599.353105 586.360224,605.623495 586.44868,610.665364 C587.588748,675.521652 570.546651,728.751182 538.467407,760.565064 C503.970427,794.767199 462.357828,822.581005 414.769684,843.259538 L414.769684,843.259538 Z" id="Shape"></path>
                <path d="M943.182845,982.603752 C932.755123,982.603752 924.312701,991.056006 924.312701,1001.4739 L924.312701,1039.41075 C924.312701,1049.83847 932.755123,1058.28089 943.182845,1058.28089 C953.600737,1058.28089 962.052988,1049.83847 962.052988,1039.41075 L962.052988,1001.4739 C962.052988,991.056006 953.600737,982.603752 943.182845,982.603752 L943.182845,982.603752 Z" id="Shape"></path>
                <path d="M1000.65816,982.603752 C990.230435,982.603752 981.788013,991.056006 981.788013,1001.4739 L981.788013,1039.41075 C981.788013,1049.83847 990.230435,1058.28089 1000.65816,1058.28089 C1011.08588,1058.28089 1019.5283,1049.83847 1019.5283,1039.41075 L1019.5283,1001.4739 C1019.5283,991.056006 1011.07605,982.603752 1000.65816,982.603752 L1000.65816,982.603752 Z" id="Shape"></path>
                <path d="M1058.13347,982.603752 C1047.71558,982.603752 1039.26333,991.056006 1039.26333,1001.4739 L1039.26333,1039.41075 C1039.26333,1049.83847 1047.71558,1058.28089 1058.13347,1058.28089 C1068.56119,1058.28089 1077.00361,1049.83847 1077.00361,1039.41075 L1077.00361,1001.4739 C1077.00361,991.056006 1068.56119,982.603752 1058.13347,982.603752 L1058.13347,982.603752 Z" id="Shape"></path>
                <path d="M1000.65816,675.059728 C842.109639,675.059728 713.114518,804.054849 713.114518,962.603368 C713.114518,1121.16171 842.109639,1250.14701 1000.65816,1250.14701 C1159.20668,1250.14701 1288.2018,1121.16171 1288.2018,962.603368 C1288.2018,804.054849 1159.20668,675.059728 1000.65816,675.059728 L1000.65816,675.059728 Z M1000.65816,1212.40672 C862.915937,1212.40672 750.854805,1100.34559 750.854805,962.603368 C750.854805,824.861148 862.915937,712.800015 1000.65816,712.800015 C1138.40038,712.800015 1250.46151,824.861148 1250.46151,962.603368 C1250.46151,1100.34559 1138.40038,1212.40672 1000.65816,1212.40672 L1000.65816,1212.40672 Z" id="Shape"></path>
                <path d="M728.033724,1165.98813 C688.878176,1174.37159 648.553072,1178.6272 608.178827,1178.6272 C455.812246,1178.6272 312.556407,1119.28453 204.819683,1011.5478 C97.0731282,903.801248 37.740287,760.555236 37.740287,608.178827 C37.740287,455.812246 97.0731282,312.566237 204.819683,204.819683 C312.566237,97.0829583 455.812246,37.740287 608.178827,37.740287 C760.555236,37.740287 903.801248,97.0829583 1011.5478,204.819683 C1119.28453,312.566237 1178.6272,455.812246 1178.6272,608.178827 C1178.6272,629.329113 1177.44781,650.666135 1175.12836,671.590372 C1173.97846,681.949296 1181.43806,691.276257 1191.79699,692.426156 C1202.11659,693.576054 1211.48287,686.106622 1212.63277,675.747701 C1215.10948,653.447517 1216.35765,630.714891 1216.35765,608.178827 C1216.35765,445.728515 1153.10336,292.998291 1038.23137,178.13612 C923.359367,63.2641211 770.62914,0 608.178827,0 C445.728515,0 292.998291,63.2641211 178.13612,178.13612 C63.2641211,292.998291 -1.13686838e-13,445.728515 -1.13686838e-13,608.178827 C-1.13686838e-13,770.62914 63.2641211,923.359367 178.13612,1038.23137 C292.998291,1153.10336 445.728515,1216.36748 608.178827,1216.36748 C651.206687,1216.36748 694.185404,1211.83669 735.935596,1202.89302 C746.127439,1200.71116 752.623878,1190.67657 750.442019,1180.49455 C748.26016,1170.30271 738.215739,1163.80627 728.033724,1165.98813 L728.033724,1165.98813 Z" id="Shape"></path>
                <path d="M1112.07063,905.521184 L1108.17866,905.521184 L1108.17866,872.301868 C1108.17866,813.018168 1059.94186,764.791191 1000.65816,764.791191 C941.374456,764.791191 893.137652,813.018168 893.137652,872.301868 L893.137652,905.521184 L889.245685,905.521184 C872.773622,905.521184 859.367958,918.926848 859.367958,935.398911 L859.367958,1094.76317 C859.367958,1111.23523 872.773622,1124.6409 889.245685,1124.6409 L1112.07063,1124.6409 C1128.55252,1124.6409 1141.94836,1111.23523 1141.94836,1094.76317 L1141.94836,935.398911 C1141.94836,918.926848 1128.55252,905.521184 1112.07063,905.521184 L1112.07063,905.521184 Z M930.877939,872.301868 C930.877939,833.834293 962.180754,802.531478 1000.65816,802.531478 C1039.13556,802.531478 1070.42855,833.834293 1070.42855,872.301868 L1070.42855,905.521184 L930.877939,905.521184 L930.877939,872.301868 Z M1104.20807,1086.90061 L897.108245,1086.90061 L897.108245,943.261471 L1104.20807,943.261471 L1104.20807,1086.90061 Z" id="Shape"></path>
            </g>
        </g>
    </g>
</svg>