<?xml version="1.0" encoding="UTF-8"?>
<svg width="300px" height="200px" viewBox="0 0 300 200" version="1.1" xmlns="http://www.w3.org/2000/svg" xmlns:xlink="http://www.w3.org/1999/xlink">
    <!-- Generator: Sketch 3.6.1 (26313) - http://www.bohemiancoding.com/sketch -->
    <title>EU-Flag</title>
    <desc>Created with Sketch.</desc>
    <defs></defs>
    <g id="Page-1" stroke="none" stroke-width="1" fill="none" fill-rule="evenodd">
        <g id="EU-Flag">
            <g id="Flag_eu" transform="translate(5.416016, 3.610677)">
                <rect id="Rectangle-path" stroke="#121212" x="0" y="4.26325641e-14" width="289.167969" height="192.778646"></rect>
                <path d="M144.583984,21.4198495 L146.940168,28.8096976 L154.758413,28.8096976 L148.439557,33.4149653 L150.795741,40.8048134 L144.476885,36.1995457 L138.15803,40.8048134 L140.514213,33.4149653 L134.195357,28.8096976 L142.013602,28.8096976 L144.583984,21.4198495 L144.583984,21.4198495 Z" id="Shape" fill="#121212"></path>
                <path d="M200.275593,117.809172 L202.631777,125.199021 L210.450022,125.199021 L204.131166,129.804288 L206.48735,137.194136 L200.168494,132.588869 L193.849638,137.194136 L196.205822,129.804288 L189.886966,125.199021 L197.705211,125.199021 L200.275593,117.809172 L200.275593,117.809172 Z" id="Shape" fill="#121212"></path>
                <path d="M144.583984,149.938947 L146.940168,157.328795 L154.758413,157.328795 L148.439557,161.934062 L150.795741,169.323911 L144.476885,164.718643 L138.15803,169.323911 L140.514213,161.934062 L134.195357,157.328795 L142.013602,157.328795 L144.583984,149.938947 L144.583984,149.938947 Z" id="Shape" fill="#121212"></path>
                <path d="M208.843533,85.6793981 L211.199716,93.0692462 L219.017962,93.0692462 L212.699106,97.6745139 L215.055289,105.064362 L208.736434,100.459094 L202.417578,105.064362 L204.773762,97.6745139 L198.454906,93.0692462 L206.273151,93.0692462 L208.843533,85.6793981 L208.843533,85.6793981 Z" id="Shape" fill="#121212"></path>
                <path d="M80.3244358,85.6793981 L82.6806192,93.0692462 L90.4988643,93.0692462 L84.1800087,97.6745139 L86.5361921,105.064362 L80.3244358,100.459094 L74.0055802,105.064362 L76.3617636,97.6745139 L70.042908,93.0692462 L77.8611531,93.0692462 L80.3244358,85.6793981 L80.3244358,85.6793981 Z" id="Shape" fill="#121212"></path>
                <path d="M176.713759,29.9877894 L179.069942,37.3776374 L186.888187,37.3776374 L180.569332,41.9829051 L182.925515,49.3727532 L176.606659,44.7674855 L170.287804,49.3727532 L172.643987,41.9829051 L166.325132,37.3776374 L174.143377,37.3776374 L176.713759,29.9877894 L176.713759,29.9877894 Z" id="Shape" fill="#121212"></path>
                <path d="M112.45421,29.9877894 L114.810394,37.3776374 L122.628639,37.3776374 L116.309783,41.9829051 L118.665966,49.3727532 L112.347111,44.7674855 L106.028255,49.3727532 L108.384439,41.9829051 L102.065583,37.3776374 L109.883828,37.3776374 L112.45421,29.9877894 L112.45421,29.9877894 Z" id="Shape" fill="#121212"></path>
                <path d="M112.45421,141.371007 L114.810394,148.760855 L122.628639,148.760855 L116.309783,153.366123 L118.665966,160.755971 L112.347111,156.150703 L106.028255,160.755971 L108.384439,153.366123 L102.065583,148.760855 L109.883828,148.760855 L112.45421,141.371007 L112.45421,141.371007 Z" id="Shape" fill="#121212"></path>
                <path d="M176.713759,141.371007 L179.069942,148.760855 L186.888187,148.760855 L180.569332,153.366123 L182.925515,160.755971 L176.606659,156.150703 L170.287804,160.755971 L172.643987,153.366123 L166.325132,148.760855 L174.143377,148.760855 L176.713759,141.371007 L176.713759,141.371007 Z" id="Shape" fill="#121212"></path>
                <path d="M200.275593,53.5496238 L202.631777,60.9394719 L210.450022,60.9394719 L204.131166,65.5447396 L206.48735,72.9345877 L200.168494,68.32932 L193.849638,72.9345877 L196.205822,65.5447396 L189.886966,60.9394719 L197.705211,60.9394719 L200.275593,53.5496238 L200.275593,53.5496238 Z" id="Shape" fill="#121212"></path>
                <path d="M88.8923756,53.5496238 L91.248559,60.9394719 L99.0668041,60.9394719 L92.7479485,65.5447396 L95.1041319,72.9345877 L88.8923756,68.32932 L82.57352,72.9345877 L84.9297034,65.5447396 L78.6108478,60.9394719 L86.4290929,60.9394719 L88.8923756,53.5496238 L88.8923756,53.5496238 Z" id="Shape" fill="#121212"></path>
                <path d="M88.8923756,117.809172 L91.248559,125.199021 L99.0668041,125.199021 L92.7479485,129.804288 L95.1041319,137.194136 L88.7852763,132.588869 L82.4664207,137.194136 L84.8226042,129.804288 L78.5037486,125.199021 L86.3219936,125.199021 L88.8923756,117.809172 L88.8923756,117.809172 Z" id="Shape" fill="#121212"></path>
            </g>
        </g>
    </g>
</svg>