<?xml version="1.0" encoding="UTF-8"?>
<svg width="500px" height="360px" viewBox="0 0 500 360" version="1.1" xmlns="http://www.w3.org/2000/svg" xmlns:xlink="http://www.w3.org/1999/xlink">
    <!-- Generator: Sketch 53.2 (72643) - https://sketchapp.com -->
    <title>EU</title>
    <desc>Created with Sketch.</desc>
    <g id="EU" stroke="none" stroke-width="1" fill="none" fill-rule="evenodd">
        <g id="EU-Flag" transform="translate(19.922789, 24.273578)">
            <rect id="Rectangle-path" stroke="#FFFFFF" x="0.660035308" y="0.968877115" width="458.783002" height="305.855335"></rect>
            <polygon id="Shape" fill="#FFFFFF" fill-rule="nonzero" points="230.051536 34.9528031 233.789768 46.6772576 246.193901 46.6772576 236.168643 53.9838018 239.906875 65.7082563 229.881616 58.4017122 219.856359 65.7082563 223.59459 53.9838018 213.569332 46.6772576 225.973465 46.6772576"></polygon>
            <polygon id="Shape" fill="#FFFFFF" fill-rule="nonzero" points="318.409744 187.88047 322.147977 199.604926 334.552109 199.604926 324.526851 206.911469 328.265083 218.635923 318.239825 211.32938 308.214566 218.635923 311.952799 206.911469 301.92754 199.604926 314.331673 199.604926"></polygon>
            <polygon id="Shape" fill="#FFFFFF" fill-rule="nonzero" points="230.051536 238.85636 233.789768 250.580814 246.193901 250.580814 236.168643 257.887357 239.906875 269.611813 229.881616 262.305269 219.856359 269.611813 223.59459 257.887357 213.569332 250.580814 225.973465 250.580814"></polygon>
            <polygon id="Shape" fill="#FFFFFF" fill-rule="nonzero" points="332.003315 136.904581 335.741546 148.629036 348.14568 148.629036 338.120421 155.93558 341.858653 167.660035 331.833395 160.35349 321.808137 167.660035 325.546369 155.93558 315.52111 148.629036 327.925243 148.629036"></polygon>
            <polygon id="Shape" fill="#FFFFFF" fill-rule="nonzero" points="128.099758 136.904581 131.83799 148.629036 144.242123 148.629036 134.216865 155.93558 137.955097 167.660035 128.099758 160.35349 118.0745 167.660035 121.812732 155.93558 111.787474 148.629036 124.191607 148.629036"></polygon>
            <polygon id="Shape" fill="#FFFFFF" fill-rule="nonzero" points="281.027426 48.5463737 284.765657 60.270828 297.16979 60.270828 287.144533 67.5773722 290.882764 79.3018267 280.857505 71.9952826 270.832248 79.3018267 274.570479 67.5773722 264.545222 60.270828 276.949355 60.270828"></polygon>
            <polygon id="Shape" fill="#FFFFFF" fill-rule="nonzero" points="179.075647 48.5463737 182.81388 60.270828 195.218013 60.270828 185.192754 67.5773722 188.930985 79.3018267 178.905728 71.9952826 168.880469 79.3018267 172.618702 67.5773722 162.593443 60.270828 174.997576 60.270828"></polygon>
            <polygon id="Shape" fill="#FFFFFF" fill-rule="nonzero" points="179.075647 225.262789 182.81388 236.987244 195.218013 236.987244 185.192754 244.293788 188.930985 256.018243 178.905728 248.711698 168.880469 256.018243 172.618702 244.293788 162.593443 236.987244 174.997576 236.987244"></polygon>
            <polygon id="Shape" fill="#FFFFFF" fill-rule="nonzero" points="281.027426 225.262789 284.765657 236.987244 297.16979 236.987244 287.144533 244.293788 290.882764 256.018243 280.857505 248.711698 270.832248 256.018243 274.570479 244.293788 264.545222 236.987244 276.949355 236.987244"></polygon>
            <polygon id="Shape" fill="#FFFFFF" fill-rule="nonzero" points="318.409744 85.9286922 322.147977 97.6531467 334.552109 97.6531467 324.526851 104.959691 328.265083 116.684145 318.239825 109.377601 308.214566 116.684145 311.952799 104.959691 301.92754 97.6531467 314.331673 97.6531467"></polygon>
            <polygon id="Shape" fill="#FFFFFF" fill-rule="nonzero" points="141.693329 85.9286922 145.43156 97.6531467 157.835693 97.6531467 147.810435 104.959691 151.548667 116.684145 141.693329 109.377601 131.66807 116.684145 135.406302 104.959691 125.381044 97.6531467 137.785177 97.6531467"></polygon>
            <polygon id="Shape" fill="#FFFFFF" fill-rule="nonzero" points="141.693329 187.88047 145.43156 199.604926 157.835693 199.604926 147.810435 206.911469 151.548667 218.635923 141.523409 211.32938 131.498151 218.635923 135.236383 206.911469 125.211124 199.604926 137.615257 199.604926"></polygon>
        </g>
    </g>
</svg>