<?xml version="1.0" encoding="UTF-8"?>
<svg width="500px" height="500px" viewBox="0 0 500 500" version="1.1" xmlns="http://www.w3.org/2000/svg" xmlns:xlink="http://www.w3.org/1999/xlink">
    <!-- Generator: Sketch 3.6.1 (26313) - http://www.bohemiancoding.com/sketch -->
    <title>vault</title>
    <desc>Created with Sketch.</desc>
    <defs></defs>
    <g id="Page-1" stroke="none" stroke-width="1" fill="none" fill-rule="evenodd">
        <g id="vault">
            <g id="002-vault-1" transform="translate(34.229329, 34.229329)">
                <path d="M221.770671,2.84217094e-14 C99.298684,2.84217094e-14 1.44950718e-12,99.2917537 1.44950718e-12,221.770671 C1.44950718e-12,344.242657 99.298684,443.541341 221.770671,443.541341 C344.242657,443.541341 443.541341,344.242657 443.541341,221.770671 C443.541341,99.2917537 344.242657,2.84217094e-14 221.770671,2.84217094e-14 L221.770671,2.84217094e-14 Z M365.52138,365.52138 C346.842398,384.200361 325.103675,398.846754 300.901218,409.093252 C275.84633,419.691465 249.221721,425.052078 221.770671,425.052078 C194.31962,425.052078 167.695011,419.691465 142.640123,409.093252 C118.437666,398.846754 96.699809,384.201227 78.0199615,365.52138 C59.3401139,346.841532 44.6945867,325.103675 34.4480887,300.901218 C23.8498763,275.84633 18.4892634,249.234716 18.4892634,221.784531 C18.4892634,226.880925 22.6310039,231.008805 27.7204675,231.008805 C32.8237918,231.008805 36.9516717,226.873995 36.9516717,221.770671 C36.9516717,216.667346 32.8246581,212.532536 27.7213338,212.532536 C22.6318702,212.532536 18.4901297,216.661282 18.4901297,221.75681 C18.4901297,194.305759 23.8507426,167.695011 34.448955,142.647054 C44.695453,118.438532 59.3409802,96.699809 78.0208277,78.0199615 C96.699809,59.3470443 118.438532,44.6876564 142.640989,34.4480887 C167.695877,23.8498763 194.320486,18.482333 221.771537,18.482333 C249.222588,18.482333 275.847196,23.84901 300.902084,34.4480887 C325.104541,44.6876564 346.842398,59.3470443 365.522246,78.0199615 C384.201227,96.6989427 398.847621,118.437666 409.080258,142.647054 C419.692331,167.695011 425.052944,194.31962 425.052944,221.770671 C425.052944,249.221721 419.692331,275.84633 409.080258,300.901218 C398.845888,325.102809 384.200361,346.841532 365.52138,365.52138 L365.52138,365.52138 Z" id="Shape" fill="#00D0DB"></path>
                <path d="M221.770671,18.4831993 C216.667346,18.4831993 212.539466,22.6180095 212.539466,27.7213338 C212.539466,32.8246581 216.668213,36.9594683 221.770671,36.9594683 C226.873129,36.9594683 231.001875,32.8246581 231.001875,27.7213338 C231.001875,22.6180095 226.873995,18.4831993 221.770671,18.4831993 L221.770671,18.4831993 Z" id="Shape" fill="#00D0DB"></path>
                <path d="M221.770671,406.588803 C216.668213,406.588803 212.539466,410.717549 212.539466,415.820007 C212.539466,420.922465 216.668213,425.051211 221.770671,425.051211 C226.873129,425.051211 231.001875,420.923332 231.001875,415.820007 C231.001875,410.716683 226.873129,406.588803 221.770671,406.588803 L221.770671,406.588803 Z" id="Shape" fill="#00D0DB"></path>
                <path d="M415.820007,212.532536 C410.703689,212.532536 406.588803,216.667346 406.588803,221.770671 C406.588803,226.873995 410.703689,231.008805 415.820007,231.008805 C420.909471,231.008805 425.051211,226.873995 425.051211,221.770671 C425.051211,216.667346 420.909471,212.532536 415.820007,212.532536 L415.820007,212.532536 Z" id="Shape" fill="#00D0DB"></path>
                <path d="M406.588803,221.768938 C406.588803,188.308422 397.682458,156.925273 382.142918,129.853658 C384.823225,133.889711 390.182971,135.202143 394.432998,132.75227 C398.872743,130.194111 400.361899,124.542424 397.816734,120.12347 C395.271569,115.704516 389.613818,114.19457 385.201794,116.746665 C380.897191,119.223393 379.354325,124.631652 381.628341,128.996895 C365.493658,101.227916 342.320356,78.0615435 314.544446,61.9130002 C318.902759,64.1731552 324.317082,62.6372201 326.794676,58.339547 C329.352836,53.9197269 327.836825,48.2689062 323.423935,45.7176772 C318.998051,43.1664482 313.339434,44.6824587 310.795135,49.1014125 C308.345262,53.3514395 309.6447,58.7319772 313.678154,61.4053533 C286.607405,45.8528187 255.231187,36.9594683 221.770671,36.9594683 C188.310154,36.9594683 156.920942,45.8588828 129.849326,61.4122836 C133.896641,58.7319772 135.196079,53.3514395 132.746206,49.1014125 C130.188047,44.6815924 124.54329,43.1655819 120.117406,45.7176772 C115.704516,48.2689062 114.188505,53.9205932 116.73367,58.339547 C119.224259,62.6372201 124.638582,64.1800855 128.996895,61.9060699 C101.234846,78.0546131 78.0485491,101.23398 61.9130002,129.00296 C64.1870159,124.637716 62.6441504,119.223393 58.339547,116.746665 C53.9266572,114.195436 48.2689062,115.704516 45.7246076,120.12347 C43.1664482,124.54329 44.668598,130.194111 49.0953485,132.75227 C53.3592361,135.202143 58.7328435,133.888845 61.4131499,129.84846 C45.8597491,156.920942 36.952538,188.310154 36.952538,221.770671 C36.952538,255.231187 45.8588828,286.6204 61.4114173,313.692015 C58.7311109,309.6447 53.3575036,308.345262 49.1074766,310.795135 C44.6677317,313.353295 43.1655819,318.998051 45.7237413,323.423935 C48.2689062,327.836825 53.9266572,329.352836 58.3386807,326.807671 C62.6432841,324.317082 64.1861496,318.902759 61.9121339,314.544446 C78.0606772,342.31949 101.23398,365.492792 128.996029,381.628341 C124.637716,379.354325 119.223393,380.897191 116.732804,385.201794 C114.187639,389.614684 115.70365,395.272435 120.116539,397.816734 C124.542424,400.374893 130.18718,398.872743 132.74534,394.445993 C135.195212,390.182105 133.881914,384.794637 129.835466,382.128191 C156.920942,397.680726 188.310154,406.587071 221.770671,406.587071 C255.231187,406.587071 286.607405,397.680726 313.67902,382.141186 C309.645566,384.821492 308.346129,390.181239 310.782141,394.432132 C313.354161,398.871877 318.998051,400.374027 323.424802,397.815867 C327.837692,395.270702 329.353702,389.612951 326.795543,385.200928 C324.318815,380.896324 318.904492,379.36732 314.545312,381.627475 C342.320356,365.478931 365.493658,342.31949 381.629207,314.543579 C379.355192,318.901893 380.898057,324.316216 385.20266,326.806804 C389.61555,329.351969 395.273301,327.835959 397.8176,323.423069 C400.38962,318.997185 398.873609,313.352428 394.433865,310.794269 C390.183838,308.344396 406.588803,255.229454 406.588803,221.768938 Z M375.022867,286.499119 C366.657954,306.315541 354.665012,324.101376 339.382761,339.383627 C324.100509,354.665879 306.314675,366.657954 286.498252,375.036728 C266.005256,383.713505 244.240544,388.098674 221.770671,388.098674 C199.300797,388.098674 177.536085,383.713505 157.042222,375.036728 C137.2258,366.657954 119.439966,354.665012 104.157714,339.383627 C88.8754625,324.102242 76.8833868,306.315541 68.5046136,286.499119 C59.8278361,266.005256 55.4426676,244.240544 55.4426676,221.770671 C55.4426676,199.307727 59.8278361,177.529154 68.5046136,157.035292 C76.8833868,137.232731 88.8763288,119.439966 104.157714,104.157714 C119.439099,88.8754625 137.2258,76.8833868 157.042222,68.5046136 C177.536085,59.8347665 199.300797,55.4426676 221.770671,55.4426676 C244.240544,55.4426676 266.005256,59.8347665 286.499119,68.5046136 C306.315541,76.8833868 324.101376,88.8763288 339.383627,104.157714 C354.665879,119.439099 366.657954,137.232731 375.023733,157.035292 C383.713505,177.529154 388.098674,199.307727 388.098674,221.770671 C388.098674,244.240544 383.713505,266.005256 375.022867,286.499119 L375.022867,286.499119 Z" id="Shape" fill="#FFFFFF"></path>
                <path d="M338.422043,278.459066 L289.92357,250.439727 C293.646025,241.627809 295.703468,231.942668 295.703468,221.770671 C295.703468,211.598674 293.646025,201.913533 289.92357,193.094683 L338.422043,165.096136 L338.422043,165.089206 C342.834933,162.537977 344.350944,156.88629 341.805779,152.467336 C339.260614,148.048382 333.602863,146.531505 329.190839,149.083601 L280.664644,177.096009 C268.928991,161.6379 251.237582,150.944395 231.001875,148.420021 L231.001875,92.402136 C231.001875,87.2988117 226.873995,83.1640015 221.770671,83.1640015 C216.667346,83.1640015 212.539466,87.2988117 212.539466,92.402136 L212.539466,148.420021 C192.303759,150.944395 174.61235,161.6379 162.876697,177.096009 L114.350502,149.083601 C109.937612,146.532372 104.279861,148.048382 101.735563,152.467336 C99.1912639,156.88629 100.693414,162.537977 105.119298,165.089206 L153.617771,193.094683 C149.895316,201.913533 147.837873,211.597807 147.837873,221.770671 C147.837873,231.943534 149.895316,241.627809 153.617771,250.439727 L105.119298,278.459066 C100.693414,281.004231 99.1903976,286.661982 101.735563,291.074005 C104.280728,295.486029 109.938478,297.002905 114.350502,294.45774 L162.862836,266.438402 C174.611484,281.896511 192.302893,292.590016 212.539466,295.120454 L212.539466,351.145269 C212.539466,356.234733 216.668213,360.376473 221.770671,360.376473 C226.873129,360.376473 231.001875,356.234733 231.001875,351.145269 L231.001875,295.120454 C251.237582,292.589149 268.928991,281.895645 280.664644,266.438402 L329.176978,294.45774 L329.190839,294.45774 C333.603729,297.002905 339.26148,295.486895 341.805779,291.074005 C344.350077,286.661115 342.834933,281.003364 338.422043,278.459066 L338.422043,278.459066 Z M221.770671,277.213338 C191.207034,277.213338 166.328003,252.334307 166.328003,221.770671 C166.328003,191.200103 191.207034,166.328003 221.770671,166.328003 C252.334307,166.328003 277.213338,191.200103 277.213338,221.770671 C277.213338,252.334307 252.334307,277.213338 221.770671,277.213338 L221.770671,277.213338 Z" id="Shape" fill="#00D0DB"></path>
                <path d="M221.770671,212.532536 C216.667346,212.532536 212.539466,216.667346 212.539466,221.770671 C212.539466,226.873995 216.668213,231.008805 221.770671,231.008805 C226.873129,231.008805 231.001875,226.873995 231.001875,221.770671 C231.001875,216.667346 226.873995,212.532536 221.770671,212.532536 L221.770671,212.532536 Z" id="Shape" fill="#FFFFFF"></path>
            </g>
        </g>
    </g>
</svg>