<?xml version="1.0" encoding="UTF-8"?>
<svg width="1134px" height="700px" viewBox="0 0 1134 700" version="1.1" xmlns="http://www.w3.org/2000/svg" xmlns:xlink="http://www.w3.org/1999/xlink">
    <!-- Generator: Sketch 3.6.1 (26313) - http://www.bohemiancoding.com/sketch -->
    <title>global</title>
    <desc>Created with Sketch.</desc>
    <defs></defs>
    <g id="Page-1" stroke="none" stroke-width="1" fill="none" fill-rule="evenodd" stroke-linecap="round" stroke-linejoin="round">
        <g id="global" stroke="#FFFFFF" stroke-width="2">
            <path d="M230.567705,621.561691 L253.220745,644.141891 L281.412177,650.494524 L257.799219,631.264934 L268.649681,614.202315 L259.438104,605.092192 L267.614322,579.455341 L306.442901,542.315073 L307.722793,520.138091 L331.29673,511.202263 L337.646761,473.898107 L352.591836,461.671501 L351.683945,421.56303 L275.428944,410.265126 L249.888344,384.599659 L215.396308,386.709398 L200.971514,400.991115 L189.993583,454.06239 L201.16662,483.296985 L227.07922,497.773807 L232.271626,574.424222 L230.567705,621.561691 Z" id="SA" stroke-dasharray="1,1,1"></path>
            <path d="M228.052146,498.468383 L303.322097,542.71279 L234.610857,572.786757 L265.687122,579.724837 L232.425109,620.417072 L260.20812,632.529217" id="SA2" stroke-dasharray="1,1,1"></path>
            <path d="M230.971706,535.935293 L301.761009,543.238742" id="SA3" stroke-dasharray="1,1,1"></path>
            <path d="M228.857087,497.790372 L306.811362,517.920806 L275.299059,411.062511 L192.484216,454.496656 L336.019181,473.627187 L228.857087,497.790372 Z" id="SA4" stroke-dasharray="1,1,1"></path>
            <path d="M337.52708,473.209857 L275.845479,409.840287" id="SA5" stroke-dasharray="1,1,1"></path>
            <path d="M105.149873,77.927472 L75.0324036,70.8309081 L58.7784897,75.29686 L47.7884351,82.4283177 L22.6217008,88.8791341 L13.3539963,105.545326 L7.41145482,132.362767 L20.6361034,148.461306 L41.8245176,136.022821 L64.0081056,139.542744 L86.5740906,173.261444 L85.526661,190.206354 L102.33061,212.211808 L72.0454998,251.078214 L72.0454998,274.931509 L87.037235,296.910837 L86.5740873,326.661546 L102.900638,348.313108 L141.702916,372.772058 L153.179479,383.208319 L167.28055,372.772057 L167.280546,393.51395 L184.044118,410.298898 L201.08867,401.082967 L195.842216,394.495953 L186.472251,394.906072 L181.704269,386.78181 L184.769002,374.535433 L165.96072,371.997996 L176.499663,348.163664 L166.826992,345.796412 L161.999027,352.359711 L154.674078,355.431419 L143.067988,349.77903 L133.642717,326.661553 L141.702913,300.981285 L172.009813,296.910836 L189.13105,308.103126 L188.504586,334.226292 L201.144956,322.930238 L201.42047,306.731944 L230.306637,274.014714 L248.039256,267.768158 L254.794088,252.109015 L263.320955,238.738625 L269.183489,214.556465 L308.175829,200.810585 L308.175829,185.910607 L286.304106,174.627836 L278.218687,148.254237 L270.250025,164.382414 L261.758202,160.217334 L258.762937,142.079591 L236.691383,133.612467 L231.821271,142.748698 L242.612308,151.849004 L237.286394,160.459829 L245.295472,176.477985 L233.626513,182.906353 L234.43483,202.124098 L223.201465,199.135569 L223.015103,181.671424 L194.950773,169.445624 L183.843146,169.928369 L180.776031,146.635357 L194.910358,132.959077 L184.81128,124.135363 L208.503561,111.336588 L225.958725,78.83774 L190.942867,79.4125434 L171.478136,94.8469141 L141.900457,90.0980497 L126.495275,96.9440485 L105.149873,77.927472 Z" id="NA" stroke-dasharray="1,1,1"></path>
            <path d="M361.212372,181.848057 L365.247424,188.004007 L371.676061,161.754779 L385.306839,159.943996 L387.486551,146.320347 L401.49517,147.118803 L408.652754,139.009488 L406.973858,124.680062 L419.023765,103.141366 L408.560076,90.2502287 L412.448983,69.3870116 L422.705929,47.7788069 L430.23066,38.733802 L421.356753,34.6007249 L404.154312,50.0244633 L407.472893,27.177583 L386.461748,7.16985406 L330.427274,33.9715847 L316.939078,55.009464 L320.166764,67.4033484 L306.202702,74.2828989 L309.733373,82.3137939 L321.970418,82.5757871 L338.577581,104.501235 L341.935372,127.725956 L351.192467,133.824874 L345.804674,163.777652 L361.212372,181.848057 Z" id="GR" stroke-dasharray="1,1,1"></path>
            <path d="M408.110945,164.531551 L421.66865,158.723143 L427.004757,168.208368 L414.227685,174.956031 L408.110945,164.531551 Z" id="ICE" stroke-dasharray="1,1,1"></path>
            <path d="M505.274527,515.805859 L520.47275,531.928819 L550.806406,548.451357 L578.311622,509.695174 L580.098305,495.387439 L596.215557,477.149571 L602.012288,432.830696 L613.645707,420.352455 L569.34228,313.562461 L622.539973,412.409423 L637.298076,359.482749 L630.378139,348.799507 L622.539973,333.518104 L569.34228,313.562461 L539.875101,313.562461 L532.026254,303.821328 L520.461334,318.151897 L509.338803,306.709704 L496.249779,306.709704 L492.219753,293.149749 L473.185584,293.372371 L464.21221,302.063186 L434.346631,311.042268 L417.47589,324.508036 L404.078621,348.799506 L403.793208,375.13453 L436.253188,411.536059 L480.728519,405.77539 L507.609202,426.177727 L512.201492,452.084633 L505.274527,515.805859 Z" id="AFRICA" stroke-dasharray="1,1,1"></path>
            <path d="M602.817151,514.053425 L606.744429,485.888906 L628.101857,467.648184 L629.628815,486.83933 L619.747829,500.439242 L617.37605,516.125521 L602.817151,514.053425 Z" id="Path-382" stroke-dasharray="1,1,1"></path>
            <path d="M603.096401,143.748432 L570.015942,117.802875 L527.322285,112.410857 L502.443272,144.510947 L488.758925,161.908997 L495.486038,170.613972 L474.507207,184.236822 L472.174242,201.79159 L496.16847,200.623124 L502.792424,214.12496 L515.544379,195.318406 L510.61857,180.056926 L532.041775,148.309543 L541.704929,155.24892 L518.450666,185.560025 L526.770782,191.555111 L535.394199,205.194217 L519.718326,205.194217 L502.443273,223.244552 L488.758926,211.480551 L467.742401,228.773444 L461.310877,236.303999 L467.742402,228.773442 L449.283014,198.621455 L444.688501,216.628533 L436.150167,219.612189 L426.145794,228.461983 L430.803789,238.09935 L461.310879,236.303992 L465.181297,254.99549 L460.666138,266.719832 L433.537484,269.263081 C433.537484,269.263081 432.448203,283.592063 436.150166,288.318884 C439.19846,292.211073 453.788255,295.120111 453.788255,295.120111 L465.181298,279.48369 L491.254563,268.558827 L504.232673,291.352848 L507.273859,268.142227 L519.718324,281.755157 L541.704932,297.171374 L561.781128,295.354201 L570.015939,301.910705 L570.015942,314.322058 L631.667355,331.616301 L655.918255,378.521361 L674.039127,380.203184 L678.95924,390.750483 L687.916011,390.33119 L686.025326,398.809875 L694.341555,394.086257 L695.972309,413.07975 L703.564446,424.485748 L707.599557,439.063516 L713.517618,449.244128 L721.996303,439.29405 L721.898829,417.22626 L752.790331,391.205361 L768.502201,391.620012 L774.129387,405.626862 L771.168036,415.28297 L776.095885,417.537249 L783.765382,410.579466 L787.956761,429.715302 L786.049057,444.511226 L795.035225,456.218929 L794.468948,461.168439 L813.904942,475.489372 L806.458242,456.132286 L792.038289,438.579241 L792.838194,414.871414 L807.468567,427.997904 L807.057011,439.30488 L817.000899,446.237908 L828.784415,427.739521 L821.749273,415.91423 L811.771345,402.240029 L818.481575,394.16207 L833.204781,397.845966 L844.412736,388.802551 L853.25192,391.59371 L874.300091,359.89456 L860.003925,337.486392 L872.661611,330.474457 L870.692019,327.041209 L856.972949,328.866911 L855.346837,320.620306 L870.97361,309.212762 L882.38425,316.413455 L885.104237,327.935493 L891.104299,341.18576 L897.925927,320.544493 L899.196183,307.235433 L909.20196,299.162116 L916.752322,304.106984 L938.742751,273.981349 L940.834573,240.926854 L933.095452,239.398215 L925.51724,246.657703 L924.52084,238.957262 L917.134482,234.793732 L944.388504,207.81666 L972.563113,200.144069 L990.598885,210.282905 L998.655183,190.012968 L1010.90596,186.367752 L1011.48616,195.723703 L1026.91179,180.375426 L1024.12682,197.691748 L1016.91685,198.132702 L997.759352,221.173684 L992.743312,232.92935 L997.858373,260.011632 L1005.6238,257.356628 L1005.71663,246.215202 L1013.47741,236.617887 L1021.77662,227.170651 L1019.9308,218.699702 L1016.64454,216.03232 L1021.63273,202.624239 L1044.765,194.894401 L1049.1637,198.632449 L1069.13039,181.10416 L1078.51728,185.38373 L1081.84996,173.632705 L1076.45795,164.846126 L1084.69682,158.767156 L1088.06354,149.372526 L1098.01362,160.750674 L1103.82956,171.208235 L1110.88482,157.456673 L1119.82147,155.943507 L1105.29476,143.748434 L1101.62789,151.577293 L1097.97958,138.436878 L1065.90756,116.567131 L1048.49376,114.589803 L1050.22199,123.902431 L1044.7356,128.229965 L1037.49004,119.154058 L1031.68338,122.638365 L1017.53264,118.634197 L1014.40728,126.600758 L1011.82035,118.208716 L1008.28189,118.208716 L1008.28189,107.036346 L993.550953,104.401455 L983.045429,107.720211 L967.570281,91.8969419 L944.996555,88.3770497 L930.397126,102.711907 L917.847743,92.3301594 L872.637098,79.9985885 L858.086151,68.3014787 L819.927651,91.739975 L856.826277,53.7867581 L856.794075,32.187759 L832.868535,34.4740489 L825.478344,14.2355533 L812.509285,25.9447386 L815.942745,37.4204647 L789.694688,38.5676348 L764.782983,55.9120416 L768.908771,78.6300347 L755.839082,73.1598446 L737.826499,74.9309143 L725.650395,89.7917985 L712.339197,117.802875 L711.960832,80.6828654 L697.03152,81.9145638 L691.130638,106.331174 L700.010137,125.414449 L692.024223,132.285394 L661.658429,112.0952 L662.644593,130.361368 L629.473264,130.880614 L617.884834,148.309549 L583.280548,174.066536 L570.015942,148.309543 L591.70923,155.248922 L603.096401,143.748432 Z" id="EURASIA" stroke-dasharray="1,1,1"></path>
            <path d="M920.68896,516.782339 L899.136955,543.484621 L873.542441,546.682427 L869.367192,558.433459 L879.496393,593.886869 L873.216627,601.204414 L888.059273,611.794582 L917.742152,595.054973 L943.780739,589.161357 L960.209014,603.663708 L966.522569,597.917311 L977.935719,628.271126 L1001.34366,629.794005 L1016.24181,622.836063 L1018.49114,603.287211 L1027.68875,595.882782 L1029.27679,571.999396 L1013.24674,549.564073 L1012.35618,541.53215 L1000.01868,537.950607 L986.083487,501.203594 L978.04915,532.952376 L957.474588,519.94877 L958.12139,508.820406 L944.898161,506.47213 L933.509145,516.782339 L920.68896,516.782339 Z" id="Path-389" stroke-dasharray="1,1,1"></path>
            <path d="M878.834832,441.770648 L890.303491,443.356277 L898.451259,436.806205 L932.594172,448.892705 L958.065601,447.987666 L935.502365,453.487892 L951.479327,471.895186 L937.548961,470.601583 L927.262886,456.917388 L912.046157,466.049839 L898.446432,449.602256 L878.834832,441.770648 Z" id="Path-390" stroke-dasharray="1,1,1"></path>
            <path d="M1092.12518,586.273189 L1098.05811,599.603052 L1097.96195,606.314861 L1094.31878,609.561386 L1100.63273,612.305486 L1097.24197,618.314142 L1101.5282,620.054596 L1107.00198,610.756145 L1106.30003,607.712753 L1110.31221,606.722329 L1112.65966,599.023702 L1103.88166,600.928827 L1092.12518,586.273189 Z" id="Path-391" stroke-dasharray="1,1,1"></path>
            <path d="M1088.57095,615.881351 L1082.43008,628.187135 L1073.65448,633.444558 L1067.0785,639.616682 L1065.81523,645.449849 L1074.19898,650.494524 L1080.62712,646.473929 L1083.72941,635.15857 L1090.18279,633.407297 L1090.6732,628.984042 L1094.46422,624.060767 L1094.52431,617.388624 L1088.57095,615.881351 Z" id="Path-392" stroke-dasharray="1,1,1"></path>
            <path d="M86.5932341,325.46725 L133.489844,326.992524 L102.904171,348.112978 L143.172057,349.372003 L143.172059,373.276754 L167.887385,371.938934" id="Path-393" stroke-dasharray="1,1,1"></path>
            <path d="M193.601928,344.163014 L195.178548,354.550419 L229.487314,369.826016 L193.601928,344.163014 Z" id="Path-394" stroke-dasharray="1,1,1" transform="translate(211.544621, 356.994515) rotate(163.000000) translate(-211.544621, -356.994515) "></path>
            <path d="M898.950486,544.627133 L944.226534,589.479634 L978.579409,532.035499 L966.88633,598.196006 L1019.55863,601.831785 L999.58259,538.134109 L978.579407,532.035498 L898.950486,544.627133 Z" id="Path-396" stroke-dasharray="1,1,1"></path>
            <path d="M576.8233,511.512471 L506.272873,514.725151 L579.160961,494.689824 L511.960486,452.903453 L594.857662,476.346623 L483.260769,405.723287 L601.589723,432.419896 L519.968611,319.268132 L483.260769,405.723287 L405.300579,374.844607 L497.569881,307.060781 L418.256413,325.453304" id="Path-397" stroke-dasharray="1,1,1"></path>
            <path d="M331.270348,34.6495207 L409.62675,91.8825671 L351.537522,135.321589" id="Path-32" stroke-dasharray="1,1,1"></path>
            <path d="M83.9979909,26.8921238 L87.2829028,34.3555873 L79.2513718,49.8438458 L89.1779579,63.8950957 L103.981392,41.5383851 L113.418497,36.475175 L105.054658,26.6990258 L83.9979909,26.8921238 Z" id="Path-28" stroke-dasharray="1,1,1"></path>
            <path d="M112.16785,62.0202486 L109.246681,70.9633818 L133.617449,83.4316769 L161.212505,74.2774829 L142.693057,40.6088201 L128.983097,50.0010186 L118.003453,42.5510271 L104.176735,55.6974106 L112.16785,62.0202486 Z" id="Path-29" stroke-dasharray="1,1,1"></path>
            <path d="M224.82708,33.2531323 L211.680697,54.850922 L207.924266,33.2531323 L197.079342,41.1768877 L200.492238,64.9054924 L235.649552,71.2215943 L256.039357,94.467454 L250.408079,107.39155 L236.296206,111.774427 L239.668685,120.459347 L252.821805,115.935016 L273.997474,137.723659 L276.712073,108.873465 L288.102612,108.154961 L291.118084,98.6998935 L224.82708,33.2531323 Z" id="Path-30" stroke-dasharray="1,1,1"></path>
            <path d="M65.4330308,138.847234 L127.059667,97.4234017 L180.128397,148.100118 L103.128772,212.26423 L223.755684,198.434736 L247.904771,267.129663 L76.0085261,250.900075 L141.16884,301.715104 L89.5228562,299.971343" id="Path-31" stroke-dasharray="1,1,1"></path>
            <path d="M221.724922,198.092016 L269.0562,216.078579" id="Path-32" stroke-dasharray="1,1,1"></path>
            <path d="M460.506297,267.583225 L464.98124,279.887561 L503.237434,223.035387 L507.28809,267.955941 L536.847563,204.973869 L584.081773,174.411108 L570.064616,303.032554 L662.864192,130.534711 M632.410692,330.312131 L675.336392,381.718892 L917.720634,234.214992 L715.11555,227.511218 M821.282107,92.0910675 L917.720622,234.214999 L931.2729,102.248542 L973.089017,199.367005 L984.496303,106.951846 L1027.6674,179.692861 L1098.65966,138.512656" id="Path-26"></path>
            <path d="M692.763453,132.39239 L753.41331,391.320916 L918.929948,233.534965 L899.493599,306.548586 L633.467413,330.741466 L820.004919,91.879655 L692.763453,132.39239 Z" id="Path-27"></path>
            <path d="M908.274636,363.698573 L919.109734,353.186643 L927.30114,356.526043 L945.079857,347.151933 L949.231666,322.696659 L954.245255,336.267462 L947.036818,356.586637 L922.538904,367.468864 L919.004256,360.345707 L908.274636,363.698573 Z" id="Path-30"></path>
            <path d="M953.721285,298.642957 L954.990593,307.871746 L953.06199,312.207106 L949.321993,317.912999 L956.177323,315.27449 L960.946884,320.094664 L963.783848,312.436194 L969.87333,312.348288 L968.193795,306.912773 L961.903194,307.17649 L953.721285,298.642957 Z" id="Path-31"></path>
            <path d="M959.144813,237.958574 L954.608335,245.357322 L952.647767,252.253941 L956.1054,257.805332 L953.992994,279.121185 L954.869389,292.095298 L961.984441,292.624066 L956.856596,278.276755 L958.953018,269.911042 L965.364823,274.47549 L959.176779,251.482766 L959.144813,237.958574 Z" id="Path-32"></path>
        </g>
    </g>
</svg>