<?xml version="1.0" encoding="UTF-8"?>
<svg width="1030px" height="700px" viewBox="0 0 1030 700" version="1.1" xmlns="http://www.w3.org/2000/svg" xmlns:xlink="http://www.w3.org/1999/xlink">
    <!-- Generator: Sketch 3.6.1 (26313) - http://www.bohemiancoding.com/sketch -->
    <title>global</title>
    <desc>Created with Sketch.</desc>
    <defs></defs>
    <g id="Page-1" stroke="none" stroke-width="1" fill="none" fill-rule="evenodd">
        <g id="global">
            <g transform="translate(5.000000, 41.000000)"></g>
            <path d="M230.567705,621.561691 L253.220745,644.141891 L281.412177,650.494524 L257.799219,631.264934 L268.649681,614.202315 L259.438104,605.092192 L267.614322,579.455341 L306.442901,542.315073 L307.722793,520.138091 L331.29673,511.202263 L337.646761,473.898107 L352.591836,461.671501 L351.683945,421.56303 L275.428944,410.265126 L249.888344,384.599659 L215.396308,386.709398 L200.971514,400.991115 L189.993583,454.06239 L201.16662,483.296985 L227.07922,497.773807 L232.271626,574.424222 L230.567705,621.561691 Z" id="SA" stroke="#FFFFFF" stroke-width="4" stroke-linecap="round" stroke-linejoin="round" stroke-dasharray="1,1,1"></path>
            <path d="M228.052146,498.468383 L303.322097,542.71279 L234.610857,572.786757 L265.687122,579.724837 L232.425109,620.417072 L260.20812,632.529217" id="SA2" stroke="#FFFFFF" stroke-width="4" stroke-linecap="round" stroke-linejoin="round" stroke-dasharray="1,1,1"></path>
            <path d="M230.971706,535.935293 L301.761009,543.238742" id="SA3" stroke="#FFFFFF" stroke-width="4" stroke-linecap="round" stroke-linejoin="round" stroke-dasharray="1,1,1"></path>
            <path d="M228.857087,497.790372 L306.811362,517.920806 L275.299059,411.062511 L192.484216,454.496656 L336.019181,473.627187 L228.857087,497.790372 Z" id="SA4" stroke="#FFFFFF" stroke-width="4" stroke-linecap="round" stroke-linejoin="round" stroke-dasharray="1,1,1"></path>
            <path d="M337.52708,473.209857 L275.845479,409.840287" id="SA5" stroke="#FFFFFF" stroke-width="4" stroke-linecap="round" stroke-linejoin="round" stroke-dasharray="1,1,1"></path>
        </g>
    </g>
</svg>