<?xml version="1.0" encoding="UTF-8"?>
<svg width="1030px" height="700px" viewBox="0 0 1030 700" version="1.1" xmlns="http://www.w3.org/2000/svg" xmlns:xlink="http://www.w3.org/1999/xlink">
    <!-- Generator: Sketch 3.6.1 (26313) - http://www.bohemiancoding.com/sketch -->
    <title>global</title>
    <desc>Created with Sketch.</desc>
    <defs></defs>
    <g id="Page-1" stroke="none" stroke-width="1" fill="none" fill-rule="evenodd" stroke-linecap="round" stroke-dasharray="5,5,5,5" stroke-linejoin="round">
        <g id="global" stroke="#FFFFFF" stroke-width="2">
            <path d="M230.567705,621.561691 L253.220745,644.141891 L281.412177,650.494524 L257.799219,631.264934 L268.649681,614.202315 L259.438104,605.092192 L267.614322,579.455341 L306.442901,542.315073 L307.722793,520.138091 L331.29673,511.202263 L337.646761,473.898107 L352.591836,461.671501 L351.683945,421.56303 L275.428944,410.265126 L249.888344,384.599659 L215.396308,386.709398 L200.971514,400.991115 L189.993583,454.06239 L201.16662,483.296985 L227.07922,497.773807 L232.271626,574.424222 L230.567705,621.561691 Z" id="SA"></path>
            <path d="M228.052146,498.468383 L303.322097,542.71279 L234.610857,572.786757 L265.687122,579.724837 L232.425109,620.417072 L260.20812,632.529217" id="SA2"></path>
            <path d="M230.971706,535.935293 L301.761009,543.238742" id="SA3"></path>
            <path d="M228.857087,497.790372 L306.811362,517.920806 L275.299059,411.062511 L192.484216,454.496656 L336.019181,473.627187 L228.857087,497.790372 Z" id="SA4"></path>
            <path d="M337.52708,473.209857 L275.845479,409.840287" id="SA5"></path>
            <path d="M105.149873,77.927472 L75.0324036,70.8309081 L58.7784897,75.29686 L47.7884351,82.4283177 L22.6217008,88.8791341 L13.3539963,105.545326 L7.41145482,132.362767 L20.6361034,148.461306 L41.8245176,136.022821 L64.0081056,139.542744 L86.5740906,173.261444 L85.526661,190.206354 L102.33061,212.211808 L72.0454998,251.078214 L72.0454998,274.931509 L87.037235,296.910837 L86.5740873,326.661546 L102.900638,348.313108 L141.702916,372.772058 L153.179479,383.208319 L167.28055,372.772057 L167.280546,393.51395 L184.044118,410.298898 L201.08867,401.082967 L195.842216,394.495953 L186.472251,394.906072 L181.704269,386.78181 L184.769002,374.535433 L165.96072,371.997996 L176.499663,348.163664 L166.826992,345.796412 L161.999027,352.359711 L154.674078,355.431419 L143.067988,349.77903 L133.642717,326.661553 L141.702913,300.981285 L172.009813,296.910836 L189.13105,308.103126 L188.504586,334.226292 L201.144956,322.930238 L201.42047,306.731944 L230.306637,274.014714 L248.039256,267.768158 L254.794088,252.109015 L263.320955,238.738625 L269.183489,214.556465 L308.175829,200.810585 L308.175829,185.910607 L286.304106,174.627836 L278.218687,148.254237 L270.250025,164.382414 L261.758202,160.217334 L258.762937,142.079591 L236.691383,133.612467 L231.821271,142.748698 L242.612308,151.849004 L237.286394,160.459829 L245.295472,176.477985 L233.626513,182.906353 L234.43483,202.124098 L223.201465,199.135569 L223.015103,181.671424 L194.950773,169.445624 L183.843146,169.928369 L180.776031,146.635357 L194.910358,132.959077 L184.81128,124.135363 L208.503561,111.336588 L225.958725,78.83774 L190.942867,79.4125434 L171.478136,94.8469141 L141.900457,90.0980497 L126.495275,96.9440485 L105.149873,77.927472 Z" id="NA"></path>
            <path d="M361.212372,181.848057 L365.247424,188.004007 L371.676061,161.754779 L385.306839,159.943996 L387.486551,146.320347 L401.49517,147.118803 L408.652754,139.009488 L406.973858,124.680062 L419.023765,103.141366 L408.560076,90.2502287 L412.448983,69.3870116 L422.705929,47.7788069 L430.23066,38.733802 L421.356753,34.6007249 L404.154312,50.0244633 L407.472893,27.177583 L386.461748,7.16985406 L330.427274,33.9715847 L316.939078,55.009464 L320.166764,67.4033484 L306.202702,74.2828989 L309.733373,82.3137939 L321.970418,82.5757871 L338.577581,104.501235 L341.935372,127.725956 L351.192467,133.824874 L345.804674,163.777652 L361.212372,181.848057 Z" id="GR"></path>
            <path d="M408.110945,164.531551 L421.66865,158.723143 L427.004757,168.208368 L414.227685,174.956031 L408.110945,164.531551 Z" id="ICE"></path>
            <path d="M505.274527,515.805859 L520.47275,531.928819 L550.806406,548.451357 L578.311622,509.695174 L580.098305,495.387439 L596.215557,477.149571 L602.012288,432.830696 L613.645707,420.352455 L569.34228,313.562461 L622.539973,412.409423 L661.831923,349.167688 L630.378139,348.799507 L622.539973,333.518104 L569.34228,313.562461 L539.875101,313.562461 L532.026254,303.821328 L520.461334,318.151897 L509.338803,306.709704 L496.249779,306.709704 L492.219753,293.149749 L473.185584,293.372371 L464.21221,302.063186 L434.346631,311.042268 L417.47589,324.508036 L404.078621,348.799506 L403.793208,375.13453 L436.253188,411.536059 L480.728519,405.77539 L507.609202,426.177727 L512.201492,452.084633 L505.274527,515.805859 Z" id="AFRICA"></path>
            <path d="M602.817151,514.053425 L606.744429,485.888906 L628.101857,467.648184 L629.628815,486.83933 L619.747829,500.439242 L617.37605,516.125521 L602.817151,514.053425 Z" id="Path-382"></path>
            <path d="M449.283014,198.621455 L444.688501,216.628533 L436.150167,219.612189 L426.145794,228.461983 L430.803789,238.09935 L461.310879,236.303992 L465.181297,254.99549 L460.666138,266.719832 L433.537484,269.263081 C433.537484,269.263081 432.448203,283.592063 436.150166,288.318884 C439.19846,292.211073 453.788255,295.120111 453.788255,295.120111 L465.181298,279.48369 L491.254563,268.558827 L504.232673,291.352848 L507.273859,268.142227 L519.718324,281.755157 L541.704932,297.171374 L561.781128,295.354201 L570.015939,301.910705 L570.015942,314.322058 L637.737391,331.156088 L698.507559,338.514054 L700.185866,374.792057 L722.450208,399.123533 L730.583845,388.373246 L732.266119,367.612635 L761.263525,343.541038 L785.237915,366.89251 L789.515018,395.848257 L798.77546,403.670434 L798.001773,413.666872 L813.884186,428.545476 L813.884186,409.25487 L797.979951,390.426493 L798.269588,376.625101 L813.707627,391.182327 L827.634,379.721834 L820.930693,359.564302 L809.275787,352.257916 L839.588462,333.723143 L854.544434,300.952523 L838.098618,285.891409 L846.652823,266.281409 L831.381424,264.533669 L839.618219,253.227914 L854.681317,263.791723 L865.255045,282.764918 L869.538099,264.807436 L860.825189,254.995492 L862.773294,237.297889 L873.245847,227.105054 L877.376147,207.925542 L875.033263,191.342843 L850.570855,176.450352 L862.118635,146.322172 L887.626513,132.723128 L885.493913,119.005056 L910.420534,98.462664 L912.499571,120.978951 L903.264917,159.623644 L920.653045,183.943217 L926.479507,151.150775 L917.889593,136.355492 L920.823653,121.135672 L936.241854,101.779601 L942.645605,87.466384 L938.128461,76.0316813 L945.121405,65.7396552 L957.591659,67.223548 L964.578651,55.2809888 L951.606492,46.2407493 L892.675319,42.8226381 L877.85623,62.6349866 L865.314559,54.9893682 L792.431224,72.5639747 L789.74514,96.0721683 L782.64507,76.4403469 L730.571942,76.8609154 L729.070195,69.3204391 L698.751568,70.0564341 L651.116231,102.08114 L651.889918,110.827775 L641.599876,113.307543 L655.496492,134.808117 L649.12845,146.564197 L628.096056,112.410859 L623.668183,123.665035 L634.88665,138.714246 L567.899209,145.943264 L566.474831,161.188873 L554.506482,144.51095 L527.322285,112.410857 L502.443272,144.510947 L488.758925,161.908997 L495.486038,170.613972 L474.507207,184.236822 L472.174242,201.79159 L496.16847,200.623124 L502.792424,214.12496 L515.544379,195.318406 L510.61857,180.056926 L523.068985,165.354882 L523.368541,177.003836 L518.450666,185.560025 L526.770782,191.555111 L532.041775,201.055595 L526.770779,211.480551 L502.443273,223.244552 L488.758926,211.480551 L467.742401,228.773444 L461.310877,236.303999 L467.742402,228.773442 L449.283014,198.621455 Z" id="EURASIA"></path>
            <path d="M781.171634,409.582817 L781.171634,428.040796 L806.974466,450.595175 L816.666286,441.388636 L781.171634,409.582817 Z" id="Path-384"></path>
            <path d="M828.031552,424.161996 L859.707847,397.428321 L858.941067,417.292063 L864.215269,426.438157 L849.231977,441.145132 L831.312816,439.950061 L828.031552,424.161996 Z" id="Path-385"></path>
            <path d="M854.563169,358.305281 L865.033858,347.186974 L874.274936,346.839851 L871.78981,374.511276 L854.563169,358.305281 Z" id="Path-386"></path>
            <path d="M878.709825,275.822916 L897.889682,257.623984 L894.718944,240.048493 L885.560761,234.394355 L893.523873,228.448358 L893.150845,214.763756 L902.291758,215.078067 L910.693523,221.578425 L898.095193,242.531892 L909.03044,251.099448 L908.583152,268.06186 L893.074858,278.112893 L878.709825,275.822916 Z" id="Path-387"></path>
            <path d="M852.460777,488.251058 L830.908772,514.953341 L805.314258,518.151147 L801.139009,529.902178 L811.26821,565.355588 L804.988443,572.673134 L819.83109,583.263301 L849.513968,566.523693 L875.552555,560.630076 L891.98083,575.132427 L898.294385,569.38603 L909.707536,599.739845 L933.115475,601.262725 L948.01363,594.304782 L950.262954,574.755931 L959.460568,567.351502 L961.048611,543.468116 L945.018553,521.032792 L944.127994,513.000869 L931.790497,509.419327 L917.855304,472.672314 L909.820967,504.421096 L889.246405,491.41749 L889.893206,480.289125 L876.669977,477.94085 L865.280962,488.251058 L852.460777,488.251058 Z" id="Path-389"></path>
            <path d="M878.834832,441.770648 L890.303491,443.356277 L898.451259,436.806205 L932.594172,448.892705 L958.065601,447.987666 L935.502365,453.487892 L951.479327,471.895186 L937.548961,470.601583 L927.262886,456.917388 L912.046157,466.049839 L898.446432,449.602256 L878.834832,441.770648 Z" id="Path-390"></path>
            <path d="M1002.12336,580.084065 L1008.05629,593.413928 L1007.96013,600.125737 L1004.31695,603.372262 L1010.63091,606.116363 L1007.24015,612.125018 L1011.52638,613.865473 L1017.00016,604.567021 L1016.29821,601.52363 L1020.31039,600.533205 L1022.65784,592.834578 L1013.87984,594.739703 L1002.12336,580.084065 Z" id="Path-391"></path>
            <path d="M998.569127,609.692228 L992.428255,621.998012 L983.652662,627.255435 L977.076676,633.427558 L975.813404,639.260726 L984.197155,644.3054 L990.625298,640.284805 L993.727586,628.969446 L1000.18097,627.218174 L1000.67138,622.794919 L1004.46239,617.871644 L1004.52249,611.1995 L998.569127,609.692228 Z" id="Path-392"></path>
            <path d="M86.5932341,325.46725 L133.489844,326.992524 L102.904171,348.112978 L143.172057,349.372003 L143.172059,373.276754 L167.887385,371.938934" id="Path-393"></path>
            <path d="M193.601928,344.163014 L195.178548,354.550419 L229.487314,369.826016 L193.601928,344.163014 Z" id="Path-394" transform="translate(211.544621, 356.994515) rotate(163.000000) translate(-211.544621, -356.994515) "></path>
            <path d="M830.722302,516.095852 L875.998351,560.948353 L910.351226,503.504218 L898.658147,569.664725 L951.330443,573.300505 L931.354406,509.602829 L910.351224,503.504218 L830.722302,516.095852 Z" id="Path-396"></path>
            <path d="M576.8233,511.512471 L506.272873,514.725151 L579.160961,494.689824 L511.960486,452.903453 L594.857662,476.346623 L483.260769,405.723287 L601.589723,432.419896 L519.968611,319.268132 L483.260769,405.723287 L405.300579,374.844607 L497.569881,307.060781 L418.256413,325.453304" id="Path-397"></path>
            <path d="M459.99143,265.586726 L464.557542,277.664528 L503.914759,223.150256 L507.500576,268.248533 L527.903852,211.471139 L562.387735,294.948682 L566.648971,159.829743 L533.923991,201.393797 L699.493061,338.475672 L761.978682,343.076963 L699.493062,338.475679" id="Path-398"></path>
            <path d="M571.753488,302.769764 L848.915378,175.656792 L655.707877,135.069058 L732.842427,77.0059666 L848.915378,175.656792 L763.355118,341.969469 L811.762017,351.486033 L838.326812,285.748912 L568.076633,146.775856" id="Path-399"></path>
            <path d="M877.504652,62.5213733 L910.510375,97.9933811 L794.239021,74.5963598 L862.058535,145.439112" id="Path-400"></path>
            <path d="M331.270348,34.6495207 L409.62675,91.8825671 L351.537522,135.321589" id="Path-32"></path>
            <path d="M83.9979909,26.8921238 L87.2829028,34.3555873 L79.2513718,49.8438458 L89.1779579,63.8950957 L103.981392,41.5383851 L113.418497,36.475175 L105.054658,26.6990258 L83.9979909,26.8921238 Z" id="Path-28"></path>
            <path d="M112.16785,62.0202486 L109.246681,70.9633818 L133.617449,83.4316769 L161.212505,74.2774829 L142.693057,40.6088201 L128.983097,50.0010186 L118.003453,42.5510271 L104.176735,55.6974106 L112.16785,62.0202486 Z" id="Path-29"></path>
            <path d="M224.82708,33.2531323 L211.680697,54.850922 L207.924266,33.2531323 L197.079342,41.1768877 L200.492238,64.9054924 L235.649552,71.2215943 L256.039357,94.467454 L250.408079,107.39155 L236.296206,111.774427 L239.668685,120.459347 L252.821805,115.935016 L273.997474,137.723659 L276.712073,108.873465 L288.102612,108.154961 L291.118084,98.6998935 L224.82708,33.2531323 Z" id="Path-30"></path>
            <path d="M65.4330308,138.847234 L127.059667,97.4234017 L180.128397,148.100118 L103.128772,212.26423 L223.755684,198.434736 L247.904771,267.129663 L76.0085261,250.900075 L141.16884,301.715104 L89.5228562,299.971343" id="Path-31"></path>
            <path d="M221.724922,198.092016 L269.0562,216.078579" id="Path-32"></path>
        </g>
    </g>
</svg>