<?xml version="1.0" encoding="UTF-8"?>
<svg width="100px" height="100px" viewBox="0 0 100 100" version="1.1" xmlns="http://www.w3.org/2000/svg" xmlns:xlink="http://www.w3.org/1999/xlink">
    <!-- Generator: Sketch 3.6.1 (26313) - http://www.bohemiancoding.com/sketch -->
    <title>icon-eth-line</title>
    <desc>Created with Sketch.</desc>
    <defs></defs>
    <g id="Page-1" stroke="none" stroke-width="1" fill="none" fill-rule="evenodd">
        <g id="icon-eth-line">
            <g id="Group" transform="translate(4.000000, 4.000000)" stroke="#FFFFFF" stroke-width="4">
                <g id="002-bitcoin-1" transform="translate(0.207848, 0.207848)">
                    <circle id="Oval-1" cx="45.7921517" cy="45.7921517" r="45"></circle>
                    <path d="M45.7921517,11.9186676 C27.084343,11.9186676 11.9186676,27.084343 11.9186676,45.7921517" id="Oval-1"></path>
                    <path d="M79.6656359,45.7921517 C60.9578272,45.7921517 45.7921517,60.9578272 45.7921517,79.6656359" id="Oval-1-Copy" transform="translate(62.728894, 62.728894) rotate(-180.000000) translate(-62.728894, -62.728894) "></path>
                </g>
            </g>
            <g id="Group-2-Copy" transform="translate(47.000000, 64.669660)" fill="#FFFFFF">
                <rect id="Rectangle-1" x="0.383334959" y="0.930741112" width="1.70104477" height="6"></rect>
            </g>
            <g id="Group-3" transform="translate(33.536157, 25.304236)" fill="#FFFFFF">
                <path d="M30.1840273,32.8055791 C29.8410306,32.8055791 29.4952899,32.7424677 29.166013,32.610757 L16.4641582,27.5289174 L3.7623033,32.610757 C2.70587337,33.027841 1.49578091,32.7561876 0.724724267,31.9192756 C-0.0463323789,31.0823636 -0.21920273,29.8530633 0.288432428,28.835049 L14.0083016,1.39531069 C14.9385087,-0.465103564 17.9870636,-0.465103564 18.9172708,1.39531069 L32.6371399,28.835049 C33.147519,29.8530633 32.9746487,31.0823636 32.2008481,31.9192756 C31.6740051,32.4955101 30.9358761,32.8055791 30.1840273,32.8055791 L30.1840273,32.8055791 Z M16.4641582,21.8296838 C16.8098989,21.8296838 17.1556396,21.8927952 17.4821724,22.0245059 L24.5012575,24.8315912 L16.4641582,8.75739248 L8.42705881,24.8315912 L15.4461439,22.0245059 C15.7726767,21.8927952 16.1184174,21.8296838 16.4641582,21.8296838 L16.4641582,21.8296838 Z" id="Shape"></path>
                <path d="M16.4641582,49.2694221 C15.6491979,49.2694221 14.8781413,48.9072175 14.3567863,48.2843355 L0.636917105,31.8204925 C0.0744024696,31.1454749 -0.131395568,30.2427076 0.0853783649,29.3893317 C0.302152297,28.5359558 0.911314487,27.8417305 1.72627471,27.5124536 L15.4461439,22.0245059 C16.0992096,21.7610845 16.8291067,21.7610845 17.4849164,22.0245059 L31.2047856,27.5124536 C32.0197458,27.8389865 32.631652,28.5359558 32.8456819,29.3893317 C33.0597119,30.2427076 32.8566578,31.1454749 32.2941432,31.8204925 L18.574274,48.2843355 C18.050175,48.9072175 17.2791184,49.2694221 16.4641582,49.2694221 L16.4641582,49.2694221 Z M7.26910185,31.2058424 L16.4641582,42.2393611 L25.6592145,31.2058424 L16.4641582,27.5289174 L7.26910185,31.2058424 Z" id="Shape"></path>
            </g>
        </g>
    </g>
</svg>