<?xml version="1.0" encoding="UTF-8"?>
<svg width="100px" height="100px" viewBox="0 0 100 100" version="1.1" xmlns="http://www.w3.org/2000/svg" xmlns:xlink="http://www.w3.org/1999/xlink">
    <!-- Generator: Sketch 3.6.1 (26313) - http://www.bohemiancoding.com/sketch -->
    <title>icon-btc-line-m</title>
    <desc>Created with Sketch.</desc>
    <defs></defs>
    <g id="Page-1" stroke="none" stroke-width="1" fill="none" fill-rule="evenodd">
        <g id="icon-btc-line-m">
            <g id="Group" transform="translate(4.000000, 4.000000)" stroke="#FFFFFF" stroke-width="4">
                <g id="002-bitcoin-1" transform="translate(0.207848, 0.207848)">
                    <circle id="Oval-1" cx="45.7921517" cy="45.7921517" r="45"></circle>
                    <path d="M45.7921517,11.9186676 C27.084343,11.9186676 11.9186676,27.084343 11.9186676,45.7921517" id="Oval-1"></path>
                    <path d="M79.6656359,45.7921517 C60.9578272,45.7921517 45.7921517,60.9578272 45.7921517,79.6656359" id="Oval-1-Copy" transform="translate(62.728894, 62.728894) rotate(-180.000000) translate(-62.728894, -62.728894) "></path>
                </g>
            </g>
            <path d="M64.1383062,55.9834111 C64.1383062,51.0712393 61.2332584,47.3739058 56.0041724,46.5288009 C59.0148583,45.2083247 60.7050679,42.5673721 60.7050679,39.2397719 C60.7050679,34.3804193 57.4302868,31 51.7258293,31 L40,31 L40,65.8605736 L53.4160389,65.8605736 C60.1768774,65.8605736 64.1383062,61.7406876 64.1383062,55.9834111 L64.1383062,55.9834111 Z M51.5673721,32.4789334 C56.585182,32.4261144 58.9620393,35.3311622 58.9620393,39.292591 C58.9620393,43.3068388 56.4267248,46.1062485 51.5673721,46.1062485 L41.6902096,46.1062485 L41.6902096,32.5317525 L51.5673721,32.4789334 Z M62.3952776,56.0362301 C62.3952776,60.8427637 59.0676774,64.3288211 53.3104008,64.3288211 L41.6902096,64.3288211 L41.6902096,47.638001 L53.3104008,47.638001 C59.0676774,47.638001 62.3952776,51.1768774 62.3952776,56.0362301 L62.3952776,56.0362301 Z" id="B" stroke="#FFFFFF" stroke-width="3" fill="#FFFFFF"></path>
            <rect id="Rectangle-1-Copy" fill="#FFFFFF" x="45.2920004" y="66.8605736" width="4.70799962" height="6"></rect>
            <rect id="Rectangle-1-Copy-2" fill="#FFFFFF" x="45.2920004" y="23.9843741" width="4.70799962" height="6"></rect>
        </g>
    </g>
</svg>