<?xml version="1.0" encoding="UTF-8"?>
<svg width="100px" height="100px" viewBox="0 0 100 100" version="1.1" xmlns="http://www.w3.org/2000/svg" xmlns:xlink="http://www.w3.org/1999/xlink">
    <!-- Generator: Sketch 3.6.1 (26313) - http://www.bohemiancoding.com/sketch -->
    <title>icon-btc</title>
    <desc>Created with Sketch.</desc>
    <defs></defs>
    <g id="Page-1" stroke="none" stroke-width="1" fill="none" fill-rule="evenodd">
        <g id="icon-btc" fill="#FFFFFF">
            <g id="Group" transform="translate(3.000000, 3.000000)">
                <g id="002-bitcoin-1" transform="translate(0.129450, 0.129450)">
                    <path d="M46.8690649,83.6034756 C46.595662,83.6034756 46.3222591,83.5316097 46.07854,83.3878779 L0.771777268,56.7990574 C0.293712806,56.5194053 0,56.0069702 0,55.4523529 C0,54.8977357 0.293712806,54.3837383 0.77333957,54.1040862 L9.45192808,49.0219172 C9.93936635,48.7360159 10.5439773,48.7375782 11.0314156,49.0234795 L46.8690649,70.0551912 L82.7067141,49.0234795 C83.1941524,48.7375782 83.7987634,48.7360159 84.2862016,49.0219172 L92.9647901,54.1040862 C93.4444169,54.3853006 93.7381297,54.8977357 93.7381297,55.4523529 C93.7381297,56.0054079 93.4444169,56.5194053 92.9663524,56.7990574 L47.6595897,83.3878779 C47.4158706,83.5316097 47.1424677,83.6034756 46.8690649,83.6034756 L46.8690649,83.6034756 Z M4.65097354,55.4539152 L46.8690649,80.2304652 L89.0871562,55.4554775 L83.497239,52.1808922 L47.6595897,73.2126039 C47.1721515,73.5000675 46.5659782,73.5000675 46.07854,73.2126039 L10.2408907,52.1808922 L4.65097354,55.4539152 Z" id="Shape"></path>
                    <path d="M46.8690649,93.7381297 C46.595662,93.7381297 46.3222591,93.6662638 46.07854,93.522532 L0.771777268,66.9321492 C0.293712806,66.6524971 0,66.140062 0,65.5838825 C0,65.0308275 0.293712806,64.5168301 0.77333957,64.237178 L9.41755743,59.1768813 C9.90499571,58.8925423 10.5096066,58.89098 10.9970449,59.1784436 L46.8690649,80.2304652 L82.7410848,59.1784436 C83.2285231,58.89098 83.833134,58.8925423 84.3205723,59.1768813 L92.9647901,64.237178 C93.4444169,64.5183924 93.7381297,65.0308275 93.7381297,65.5838825 C93.7381297,66.1384997 93.4444169,66.6524971 92.9663524,66.9321492 L47.6595897,93.522532 C47.4158706,93.6662638 47.1424677,93.7381297 46.8690649,93.7381297 L46.8690649,93.7381297 Z M4.65253584,65.5870071 L46.8690649,90.3651193 L89.0855939,65.5885694 L83.533172,62.3358563 L47.6595897,83.3878779 C47.1721515,83.6753415 46.5659782,83.6753415 46.07854,83.3878779 L10.2049577,62.3358563 L4.65253584,65.5870071 Z" id="Shape"></path>
                    <path d="M46.8690649,56.2428778 C31.3632159,56.2428778 18.7476259,43.6272879 18.7476259,28.1214389 C18.7476259,12.61559 31.3632159,0 46.8690649,0 C62.3749138,0 74.9905038,12.61559 74.9905038,28.1214389 C74.9905038,43.6272879 62.3749138,56.2428778 46.8690649,56.2428778 L46.8690649,56.2428778 Z M46.8690649,3.12460432 C33.0848729,3.12460432 21.8722303,14.3388092 21.8722303,28.1214389 C21.8722303,41.9040686 33.0848729,53.1182735 46.8690649,53.1182735 C60.6532568,53.1182735 71.8658994,41.9040686 71.8658994,28.1214389 C71.8658994,14.3388092 60.6532568,3.12460432 46.8690649,3.12460432 L46.8690649,3.12460432 Z" id="Shape"></path>
                    <path d="M26.5591368,29.6837411 C25.696746,29.6837411 24.9968346,28.985392 24.9968346,28.1214389 C24.9968346,16.0604662 34.8080922,6.24920865 46.8690649,6.24920865 C47.7314556,6.24920865 48.431367,6.94755771 48.431367,7.81151081 C48.431367,8.6754639 47.7314556,9.37381297 46.8690649,9.37381297 C36.5313115,9.37381297 28.1214389,17.7836855 28.1214389,28.1214389 C28.1214389,28.985392 27.4215275,29.6837411 26.5591368,29.6837411 L26.5591368,29.6837411 Z" id="Shape"></path>
                    <path d="M46.8690649,49.9936692 C46.0066741,49.9936692 45.3067627,49.2953201 45.3067627,48.431367 C45.3067627,47.5674139 46.0066741,46.8690649 46.8690649,46.8690649 C57.2068183,46.8690649 65.6166908,38.4591923 65.6166908,28.1214389 C65.6166908,27.2574858 66.3166022,26.5591368 67.178993,26.5591368 C68.0413838,26.5591368 68.7412951,27.2574858 68.7412951,28.1214389 C68.7412951,40.1824116 58.9300375,49.9936692 46.8690649,49.9936692 L46.8690649,49.9936692 Z" id="Shape"></path>
                    <path d="M49.9936692,29.6837411 L40.6198562,29.6837411 C39.7574654,29.6837411 39.057554,28.985392 39.057554,28.1214389 L39.057554,18.7476259 C39.057554,17.8836728 39.7574654,17.1853238 40.6198562,17.1853238 L49.9936692,17.1853238 C53.4401077,17.1853238 56.2428778,19.9880939 56.2428778,23.4345324 C56.2428778,26.880971 53.4401077,29.6837411 49.9936692,29.6837411 L49.9936692,29.6837411 Z M42.1821584,26.5591368 L49.9936692,26.5591368 C51.7168885,26.5591368 53.1182735,25.1577517 53.1182735,23.4345324 C53.1182735,21.7113131 51.7168885,20.3099281 49.9936692,20.3099281 L42.1821584,20.3099281 L42.1821584,26.5591368 Z" id="Shape"></path>
                    <path d="M49.9936692,39.057554 L40.6198562,39.057554 C39.7574654,39.057554 39.057554,38.359205 39.057554,37.4952519 L39.057554,28.1214389 C39.057554,27.2574858 39.7574654,26.5591368 40.6198562,26.5591368 L49.9936692,26.5591368 C53.4401077,26.5591368 56.2428778,29.3619068 56.2428778,32.8083454 C56.2428778,36.254784 53.4401077,39.057554 49.9936692,39.057554 L49.9936692,39.057554 Z M42.1821584,35.9329497 L49.9936692,35.9329497 C51.7168885,35.9329497 53.1182735,34.5315647 53.1182735,32.8083454 C53.1182735,31.0851261 51.7168885,29.6837411 49.9936692,29.6837411 L42.1821584,29.6837411 L42.1821584,35.9329497 Z" id="Shape"></path>
                    <path d="M43.7444605,20.3099281 C42.8820697,20.3099281 42.1821584,19.611579 42.1821584,18.7476259 L42.1821584,14.0607195 C42.1821584,13.1967664 42.8820697,12.4984173 43.7444605,12.4984173 C44.6068513,12.4984173 45.3067627,13.1967664 45.3067627,14.0607195 L45.3067627,18.7476259 C45.3067627,19.611579 44.6068513,20.3099281 43.7444605,20.3099281 L43.7444605,20.3099281 Z" id="Shape"></path>
                    <path d="M49.9936692,20.3099281 C49.1312784,20.3099281 48.431367,19.611579 48.431367,18.7476259 L48.431367,14.0607195 C48.431367,13.1967664 49.1312784,12.4984173 49.9936692,12.4984173 C50.85606,12.4984173 51.5559713,13.1967664 51.5559713,14.0607195 L51.5559713,18.7476259 C51.5559713,19.611579 50.85606,20.3099281 49.9936692,20.3099281 L49.9936692,20.3099281 Z" id="Shape"></path>
                    <path d="M43.7444605,43.7444605 C42.8820697,43.7444605 42.1821584,43.0461115 42.1821584,42.1821584 L42.1821584,37.4952519 C42.1821584,36.6312988 42.8820697,35.9329497 43.7444605,35.9329497 C44.6068513,35.9329497 45.3067627,36.6312988 45.3067627,37.4952519 L45.3067627,42.1821584 C45.3067627,43.0461115 44.6068513,43.7444605 43.7444605,43.7444605 L43.7444605,43.7444605 Z" id="Shape"></path>
                    <path d="M49.9936692,43.7444605 C49.1312784,43.7444605 48.431367,43.0461115 48.431367,42.1821584 L48.431367,37.4952519 C48.431367,36.6312988 49.1312784,35.9329497 49.9936692,35.9329497 C50.85606,35.9329497 51.5559713,36.6312988 51.5559713,37.4952519 L51.5559713,42.1821584 C51.5559713,43.0461115 50.85606,43.7444605 49.9936692,43.7444605 L49.9936692,43.7444605 Z" id="Shape"></path>
                    <path d="M40.6198562,20.3099281 L37.4952519,20.3099281 C36.6328611,20.3099281 35.9329497,19.611579 35.9329497,18.7476259 C35.9329497,17.8836728 36.6328611,17.1853238 37.4952519,17.1853238 L40.6198562,17.1853238 C41.482247,17.1853238 42.1821584,17.8836728 42.1821584,18.7476259 C42.1821584,19.611579 41.482247,20.3099281 40.6198562,20.3099281 L40.6198562,20.3099281 Z" id="Shape"></path>
                    <path d="M40.6198562,39.057554 L37.4952519,39.057554 C36.6328611,39.057554 35.9329497,38.359205 35.9329497,37.4952519 C35.9329497,36.6312988 36.6328611,35.9329497 37.4952519,35.9329497 L40.6198562,35.9329497 C41.482247,35.9329497 42.1821584,36.6312988 42.1821584,37.4952519 C42.1821584,38.359205 41.482247,39.057554 40.6198562,39.057554 L40.6198562,39.057554 Z" id="Shape"></path>
                    <path d="M46.8690649,73.4282016 C46.595662,73.4282016 46.3222591,73.3563357 46.07854,73.2126039 L0.771777268,46.6222211 C0.293712806,46.342569 0,45.8301339 0,45.2739543 C0,44.7208994 0.293712806,44.206902 0.77333957,43.9272499 L20.1740078,32.5677509 C20.6052032,32.3162202 21.131699,32.2834119 21.5878913,32.4833865 C22.0456458,32.6833612 22.3799785,33.0895598 22.4893396,33.5754358 C25.0108953,44.8990018 35.2658467,53.1182735 46.8690649,53.1182735 C58.472283,53.1182735 68.7272344,44.8990018 71.2503524,33.5754358 C71.3597135,33.0879975 71.6940462,32.6833612 72.1518007,32.4833865 C72.607993,32.2834119 73.1344888,32.3162202 73.5656842,32.5677509 L92.9663524,43.9272499 C93.4444169,44.2084643 93.7381297,44.7208994 93.7381297,45.2739543 C93.7381297,45.8285716 93.4444169,46.342569 92.9663524,46.6222211 L47.6595897,73.2126039 C47.4158706,73.3563357 47.1424677,73.4282016 46.8690649,73.4282016 L46.8690649,73.4282016 Z M4.65097354,45.277079 L46.8690649,70.0551912 L89.0871562,45.2786413 L73.760972,36.3047776 C70.2020476,47.9751748 59.2143765,56.2428778 46.8690649,56.2428778 C34.5237532,56.2428778 23.5360821,47.9751748 19.9771577,36.3032153 L4.65097354,45.277079 Z" id="Shape"></path>
                </g>
            </g>
        </g>
    </g>
</svg>