<?xml version="1.0" encoding="UTF-8"?>
<svg width="1134px" height="700px" viewBox="0 0 1134 700" version="1.1" xmlns="http://www.w3.org/2000/svg" xmlns:xlink="http://www.w3.org/1999/xlink">
    <!-- Generator: Sketch 53.2 (72643) - https://sketchapp.com -->
    <title>mapFinal</title>
    <desc>Created with Sketch.</desc>
    <g id="mapFinal" stroke="none" stroke-width="1" fill="none" fill-rule="evenodd" stroke-linecap="round" stroke-linejoin="round">
        <g id="Group" transform="translate(10.500000, 28.000000)" stroke="#FAFAFA" stroke-width="3">
            <path d="M223.15625,614.391837 L245.80929,636.972037 L274.000722,643.324669 L250.387764,624.09508 L261.238226,607.032461 L252.026649,597.922338 L260.202867,572.285486 L299.031446,535.145219 L300.311338,512.968237 L323.885275,504.032409 L330.235306,466.728253 L345.180381,454.501647 L344.27249,414.393176 L268.017489,403.095272 L242.47689,377.429805 L207.984853,379.539544 L193.560059,393.821261 L182.582128,446.892536 L193.755165,476.127131 L219.667766,490.603953 L224.860171,567.254368 L223.15625,614.391837 Z" id="SA" stroke-dasharray="1,1,1"></path>
            <path d="M97.7384186,70.7576179 L67.6209488,63.6610541 L51.3670349,68.127006 L40.3769803,75.2584637 L15.210246,81.70928 L5.94254145,98.3754724 L0,125.192913 L13.2246486,141.291452 L34.4130628,128.852967 L56.5966508,132.37289 L79.1626358,166.09159 L78.1152061,183.0365 L94.9191553,205.041954 L64.634045,243.90836 L64.634045,267.761655 L79.6257802,289.740983 L79.1626325,319.491692 L95.4891832,341.143254 L134.291461,365.602203 L145.768024,376.038465 L159.869095,365.602203 L159.869091,386.344096 L176.632663,403.129044 L193.677215,393.913113 L188.430761,387.326099 L179.060797,387.736218 L174.292814,379.611956 L177.357547,367.365579 L158.549266,364.828142 L169.088209,340.99381 L159.415537,338.626558 L154.587572,345.189857 L147.262623,348.261565 L135.656533,342.609176 L126.231262,319.491699 L134.291458,293.811431 L164.598358,289.740982 L181.719595,300.933272 L181.093132,327.056438 L193.733502,315.760384 L194.009015,299.56209 L222.895182,266.84486 L240.627802,260.598304 L247.382633,244.939161 L255.9095,231.568771 L261.772034,207.386611 L300.764374,193.640731 L300.764374,178.740753 L278.892651,167.457982 L270.807232,141.084383 L262.83857,157.21256 L254.346747,153.04748 L251.351482,134.909737 L229.279928,126.442613 L224.409816,135.578844 L235.200853,144.67915 L229.87494,153.289975 L237.884017,169.308131 L226.215058,175.736499 L227.023376,194.954244 L215.79001,191.965715 L215.603648,174.50157 L187.539319,162.27577 L176.431691,162.758515 L173.364576,139.465503 L187.498903,125.789223 L177.399826,116.965509 L201.092106,104.166734 L218.54727,71.6678859 L183.531412,72.2426894 L164.066681,87.67706 L134.489002,82.9281956 L119.083821,89.7741945 L97.7384186,70.7576179 Z" id="NA" stroke-dasharray="1,1,1"></path>
            <path d="M353.800917,174.678203 L357.835969,180.834153 L364.264606,154.584925 L377.895384,152.774142 L380.075097,139.150493 L394.083715,139.948949 L401.241299,131.839634 L399.562404,117.510208 L411.612311,95.9715116 L401.148621,83.0803746 L405.037528,62.2171575 L415.294474,40.6089528 L422.819205,31.563948 L413.945298,27.4308709 L396.742857,42.8546092 L400.061438,20.007729 L379.050293,-1.42108547e-14 L323.01582,26.8017306 L309.527623,47.8396099 L312.755309,60.2334944 L298.791247,67.1130449 L302.321918,75.1439398 L314.558963,75.4059331 L331.166126,97.3313813 L334.523917,120.556102 L343.781012,126.65502 L338.393219,156.607798 L353.800917,174.678203 Z" id="GR" stroke-dasharray="1,1,1"></path>
            <path d="M400.69949,157.361697 L414.257195,151.553289 L419.593302,161.038514 L406.81623,167.786177 L400.69949,157.361697 Z" id="ICE" stroke-dasharray="1,1,1"></path>
            <path d="M497.863072,508.636005 L513.061295,524.758965 L543.394951,541.281503 L570.900167,502.52532 L572.68685,488.217585 L588.804102,469.979717 L594.600833,425.660842 L606.234252,413.182601 L561.930826,306.392607 L615.128519,405.239569 L629.886621,352.312895 L622.966684,341.629653 L615.128519,326.34825 L561.930826,306.392607 L532.463647,306.392607 L524.614799,296.651474 L513.049879,310.982043 L501.927348,299.53985 L488.838324,299.53985 L484.808298,285.979895 L465.774129,286.202517 L456.800755,294.893332 L426.935177,303.872414 L410.064435,317.338182 L396.667166,341.629652 L396.381753,367.964676 L428.841733,404.366205 L473.317064,398.605536 L500.197748,419.007873 L504.790037,444.914779 L497.863072,508.636005 Z" id="AFRICA" stroke-dasharray="1,1,1"></path>
            <path d="M595.405696,506.883571 L599.332974,478.719052 L620.690402,460.47833 L622.21736,479.669476 L612.336374,493.269388 L609.964595,508.955667 L595.405696,506.883571 Z" id="Path-382" stroke-dasharray="1,1,1"></path>
            <path d="M453.899424,229.134138 L457.769842,247.825636 L453.254683,259.549978 L426.126029,262.093227 C426.126029,262.093227 425.036748,276.422209 428.738712,281.14903 C431.787006,285.041219 446.376801,287.950256 446.376801,287.950256 L457.769843,272.313836 L483.843108,261.388973 L496.821218,284.182994 L499.862405,260.972373 L512.306869,274.585303 L534.293477,290.00152 L554.369673,288.184347 L562.604484,294.740851 L562.604487,307.152204 L624.2559,324.446447 L648.5068,371.351507 L666.627672,373.03333 L671.547785,383.580629 L680.504556,383.161336 L678.613871,391.640021 L686.9301,386.916403 L688.560855,405.909896 L696.152991,417.315894 L700.188103,431.893662 L706.106163,442.074273 L714.584848,432.124196 L714.487374,410.056406 L745.378876,384.035507 L761.090746,384.450158 L766.717932,398.457008 L763.756581,408.113116 L768.68443,410.367395 L776.353927,403.409612 L780.545306,422.545448 L778.637602,437.341372 L787.623771,449.049075 L787.057493,453.998585 L806.493487,468.319518 L799.046788,448.962432 L784.626834,431.409387 L785.426739,407.70156 L800.057113,420.82805 L799.645556,432.135026 L809.589445,439.068054 L821.37296,420.569667 L814.337818,408.744376 L804.359891,395.070175 L811.07012,386.992216 L825.793326,390.676112 L837.001282,381.632697 L845.840466,384.423855 L866.888636,352.724706 L852.59247,330.316538 L865.250157,323.304603 L863.280564,319.871355 L849.561494,321.697057 L847.935382,313.450452 L863.562156,302.042907 L874.972795,309.243601 L877.692782,320.765639 L883.692844,334.015906 L890.514472,313.374639 L891.784728,300.065579 L901.790505,291.992262 L909.340867,296.93713 L931.331296,266.811495 L933.423118,233.757 L925.683997,232.228361 L918.105785,239.487849 L917.109385,231.787408 L909.723027,227.623878 L936.977049,200.646806 L965.151658,192.974215 L983.18743,203.113051 L991.243729,182.843114 L1003.4945,179.197898 L1004.0747,188.553849 L1019.50034,173.205572 L1016.71537,190.521894 L1009.50539,190.962848 L990.347897,214.00383 L985.331857,225.759496 L990.446918,252.841778 L998.212341,250.186773 L998.305174,239.045348 L1006.06596,229.448033 L1014.36517,220.000797 L1012.51935,211.529848 L1009.23309,208.862466 L1014.22128,195.454385 L1037.35354,187.724547 L1041.75225,191.462595 L1061.71893,173.934306 L1071.10583,178.213876 L1074.43851,166.462851 L1069.0465,157.676272 L1077.28536,151.597302 L1080.65208,142.202672 L1090.60216,153.58082 L1096.41811,164.03838 L1103.47336,150.286819 L1112.41002,148.773653 L1097.88331,136.57858 L1094.21643,144.407439 L1090.56812,131.267024 L1058.4961,109.397277 L1041.08231,107.419948 L1042.81054,116.732577 L1037.32415,121.060111 L1030.07858,111.984204 L1024.27192,115.468511 L1010.12118,111.464343 L1006.99583,119.430903 L1004.4089,111.038862 L1000.87044,111.038862 L1000.87044,99.866492 L986.139498,97.2316013 L975.633974,100.550357 L960.158826,84.7270878 L937.5851,81.2071957 L922.985671,95.5420531 L910.436288,85.1603053 L865.225643,72.8287344 L850.674696,61.1316246 L812.516196,84.570121 L849.414822,46.616904 L849.382621,25.0179049 L825.45708,27.3041948 L818.06689,7.06569921 L805.09783,18.7748845 L808.53129,30.2506106 L782.283233,31.3977807 L757.371529,48.7421876 L761.497316,71.4601806 L748.427627,65.9899906 L730.415044,67.7610602 L718.23894,82.6219444 L704.927742,110.633021 L704.549377,73.5130113 L689.620065,74.7447097 L683.719183,99.1613196 L692.598682,118.244595 L684.612768,125.11554 L654.246975,104.925346 L655.233138,123.191514 L622.061809,123.71076 L610.473379,141.139695 L575.869094,166.896682 L562.604487,141.139689 L584.297775,148.079068 L595.684946,136.578578 L562.604487,110.633021 L519.91083,105.241003 L495.031817,137.341093 L481.34747,154.739143 L488.074583,163.444118 L467.095752,177.066968 L464.762787,194.621736 L488.757015,193.45327 L495.380969,206.955106 L508.132924,188.148551 L503.207115,172.887072 L524.63032,141.139689 L534.293474,148.079066 L511.039212,178.390171 L519.359327,184.385257 L527.982744,198.024363 L512.306872,198.024363 L495.031818,216.074698 L481.347471,204.310697 L460.330946,221.60359 L453.899423,229.134145 L460.330947,221.603587" id="EURASIA" stroke-dasharray="1,1,1"></path>
            <polygon id="Path-389" points="913.277505 509.612485 891.7255 536.314767 866.130986 539.512573 861.955738 551.263605 872.084939 586.717015 865.805172 594.03456 880.647818 604.624728 910.330697 587.885119 936.369284 581.991502 952.797559 596.493854 959.111114 590.747457 970.524264 621.101272 993.932203 622.624151 1008.83036 615.666208 1011.07968 596.117357 1020.2773 588.712928 1021.86534 564.829542 1005.83528 542.394219 1004.94472 534.362296 992.607225 530.780753 978.672032 494.03374 970.637696 525.782522 950.063133 512.778916 950.709935 501.650552 937.486706 499.302276 926.09769 509.612485"></polygon>
            <path d="M1081.15949,608.711497 L1075.01862,621.017281 L1066.24303,626.274704 L1059.66704,632.446828 L1058.40377,638.279995 L1066.78752,643.324669 L1073.21566,639.304075 L1076.31795,627.988716 L1082.77134,626.237443 L1083.26174,621.814188 L1087.05276,616.890913 L1087.11286,610.21877 L1081.15949,608.711497 Z" id="Path-392" stroke-dasharray="1,1,1"></path>
            <path d="M186.190473,336.99316 L187.767093,347.380565 L222.07586,362.656162 L186.190473,336.99316 Z" id="Path-394" stroke-dasharray="1,1,1" transform="translate(204.133166, 349.824661) rotate(163.000000) translate(-204.133166, -349.824661) "></path>
            <path d="M76.5865361,19.7222697 L79.871448,27.1857332 L71.839917,42.6739917 L81.7665031,56.7252416 L96.5699372,34.368531 L106.007042,29.305321 L97.643203,19.5291717 L76.5865361,19.7222697 Z" id="Path-28" stroke-dasharray="1,1,1"></path>
            <path d="M104.756396,54.8503945 L101.835227,63.7935278 L126.205995,76.2618228 L153.801051,67.1076289 L135.281602,33.4389661 L121.571642,42.8311646 L110.591998,35.381173 L96.7652805,48.5275565 L104.756396,54.8503945 Z" id="Path-29" stroke-dasharray="1,1,1"></path>
            <path d="M217.415626,26.0832782 L204.269242,47.681068 L200.512812,26.0832782 L189.667888,34.0070336 L193.080783,57.7356383 L228.238097,64.0517402 L248.627902,87.2975999 L242.996625,100.221696 L228.884751,104.604572 L232.25723,113.289493 L245.41035,108.765161 L266.586019,130.553805 L269.300618,101.703611 L280.691157,100.985107 L283.70663,91.5300394 L217.415626,26.0832782 Z" id="Path-30" stroke-dasharray="1,1,1"></path>
            <polygon id="Path-30" points="900.863182 356.528719 911.69828 346.016789 919.889686 349.356189 937.668403 339.982079 941.820211 315.526805 946.8338 329.097608 939.625363 349.416783 915.127449 360.29901 911.592801 353.175853"></polygon>
            <polygon id="Path-32" points="948.407585 249.943446 943.871107 257.342194 941.910538 264.238813 945.368171 269.790204 943.255765 291.106057 944.132161 304.080171 951.247212 304.608938 946.119367 290.261627 948.21579 281.895914 954.627594 286.460362 948.43955 263.467638"></polygon>
            <polygon id="Path-31" points="413.743506 177.411663 422.287657 175.917701 423.241171 179.194115 416.49914 188.65244 422.886179 185.392887 430.103093 185.361977 430.484311 188.174747 426.334 196.40512 421.501805 199.864181 426.08766 199.748973 426.023031 202.76406 430.318523 204.36761 434.011748 221.005384 441.372906 224.528137 441.80283 227.12173 439.197061 229.45025 441.157476 231.304824 444.169753 228.752444 448.509268 232.007314 446.726817 237.249763 439.745003 242.579321 447.335642 242.034188 447.044342 245.181344 440.682593 247.529533 432.566491 245.670277 428.260696 248.823052 422.82155 247.171732 420.349722 251.584306 415.909985 250.13624 413.115948 253.350834 409.499529 251.316423 418.278781 243.320213 423.01731 243.913115 426.942825 238.525485 421.123397 241.739142 416.174121 238.380304 413.698546 239.523021 412.169928 236.51168 418.402419 233.301769 418.616913 228.936964 415.57841 225.944357 417.736459 223.593357 420.706587 226.834178 425.108857 226.536322 422.701658 223.762891 425.002079 219.66316 418.660936 216.862566 423.675778 211.275429 419.695938 210.725613 417.306535 213.235844 412.098742 211.926403 415.54469 206.961203 413.670447 203.292332 413.161844 200.14424 409.763665 208.260342 412.072516 194.604872 409.253189 198.120132 408.605962 194.925208 409.802068 187.98086"></polygon>
            <polygon id="Path-32" points="394.602058 213.56461 396.355473 209.04151 399.164496 207.660883 401.353455 210.325662 405.431644 207.992459 410.522355 214.964906 405.172191 220.618546 408.692134 225.23531 405.896224 234.051092 398.893803 235.461692 391.430549 240.23675 385.715091 234.406083 392.651945 229.080272 392.663185 225.24374 389.633112 226.989662 387.810384 223.695452 389.706171 216.783887 396.27773 217.537893 397.440117 214.463797"></polygon>
        </g>
    </g>
</svg>