<?xml version="1.0" encoding="UTF-8"?>
<svg width="960px" height="400px" viewBox="0 0 960 400" version="1.1" xmlns="http://www.w3.org/2000/svg" xmlns:xlink="http://www.w3.org/1999/xlink">
    <!-- Generator: Sketch 53.2 (72643) - https://sketchapp.com -->
    <title>SwissMade</title>
    <desc>Created with Sketch.</desc>
    <g id="SwissMade" stroke="none" stroke-width="1" fill="none" fill-rule="evenodd">
        <polyline id="Path" stroke="#FFFFFF" stroke-width="2" points="27 320.249446 195.895174 346.794418 221.280198 333.521932 245.432776 284.33566 379.512769 186.579488 379.512769 158.832593 397.491969 151.638682 397.491969 108.89347 435.971025 95.0465863 443.91221 61.7259542 468.44958 27 511.75246 38.131043 532.6148 77.8258144 559.38284 87.1667448 589.876097 166.807238 589.876097 186.579488 624.752622 196.319001 639.207363 232.968908 673.041049 232.968908 717.386768 272.412729 846.330643 333.521932 951.863638 355.650178"></polyline>
        <polyline id="Path-2" stroke="#FFFFFF" points="458.396144 27 485.586518 64.3175787 495.00299 95.8255979 520.467494 146.191952 520.467494 172.400643"></polyline>
        <polyline id="Path-3" stroke="#FFFFFF" points="589.803601 77.8258144 546.620619 116.511208 531.432545 191.325089 499.115715 255.125037 440.716776 310.925246 406.576372 310.925246 389.060037 334.570347"></polyline>
        <path d="M551.955664,355.650178 L427.339873,191.325089" id="Path-4" stroke="#FFFFFF"></path>
        <path d="M468.964423,258.772183 L509.846098,334.570347" id="Path-5" stroke="#FFFFFF"></path>
    </g>
</svg>