<?xml version="1.0" encoding="UTF-8"?>
<svg width="500px" height="500px" viewBox="0 0 500 500" version="1.1" xmlns="http://www.w3.org/2000/svg" xmlns:xlink="http://www.w3.org/1999/xlink">
    <!-- Generator: Sketch 3.6.1 (26313) - http://www.bohemiancoding.com/sketch -->
    <title>vault</title>
    <desc>Created with Sketch.</desc>
    <defs></defs>
    <g id="Page-1" stroke="none" stroke-width="1" fill="none" fill-rule="evenodd">
        <g id="vault">
            <g id="001-vault" transform="translate(34.037923, 83.810433)">
                <path d="M423.445296,0 L101.367331,0 C96.6846822,0 92.8884738,3.79620838 92.8884738,8.47885757 C92.8884738,13.1615068 96.6846822,16.9577151 101.367331,16.9577151 L414.966439,16.9577151 L414.966439,284.610178 L16.9577151,284.610178 L16.9577151,16.9577151 L34.5942666,16.9577151 C39.2769166,16.9577151 43.073125,13.1615068 43.073125,8.47885757 C43.073125,3.79620838 39.2769166,0 34.5942666,0 L8.47885757,0 C3.79620838,0 5.68434189e-14,3.79620838 5.68434189e-14,8.47885757 L5.68434189e-14,293.089036 C5.68434189e-14,297.771685 3.79620838,301.567894 8.47885757,301.567894 L51.2191555,301.567894 C55.1010418,319.010022 70.6879047,332.092441 89.2833944,332.092441 L93.1026694,332.092441 C111.698159,332.092441 127.285021,319.010022 131.166908,301.567894 L300.500211,301.567894 C304.382097,319.010022 319.968959,332.092441 338.564449,332.092441 L342.383725,332.092441 C360.979214,332.092441 376.566077,319.010022 380.447964,301.567894 L423.445296,301.567894 C428.127945,301.567894 431.924154,297.771685 431.924154,293.089036 L431.924154,8.47885757 C431.924154,3.79620838 428.127945,2.3976607e-14 423.445296,2.3976607e-14 L423.445296,0 Z M93.1026694,315.134726 L89.2833944,315.134726 C80.1289957,315.134726 72.259772,309.529386 68.9314995,301.567894 L113.451269,301.567894 C110.122996,309.529386 102.257068,315.134726 93.1026694,315.134726 L93.1026694,315.134726 Z M342.383725,315.134726 L338.564449,315.134726 C329.410051,315.134726 321.540827,309.529386 318.212554,301.567894 L362.73562,301.567894 C359.404051,309.529386 351.538123,315.134726 342.383725,315.134726 L342.383725,315.134726 Z" id="Shape" fill="#00D0DB"></path>
                <path d="M41.5836405,257.852182 C41.5836405,262.538127 45.3798488,266.331039 50.062498,266.331039 L346.081074,266.331039 C350.763723,266.331039 354.559931,262.538127 354.559931,257.852182 L354.559931,226.240179 C367.935635,223.26121 377.973178,211.30579 377.973178,197.043646 C377.973178,182.781502 367.935635,170.826082 354.559931,167.847113 L354.559931,133.809755 C367.935635,130.830786 377.973178,118.875365 377.973178,104.613221 C377.973178,90.3477821 367.935635,78.3923619 354.559931,75.4166888 L354.559931,44.3286416 C354.559931,39.6426973 350.763723,35.8497841 346.081074,35.8497841 L50.062498,35.8497841 C45.3798488,35.8497841 41.5836405,39.6426973 41.5836405,44.3286416 L41.5836405,257.852182 Z M361.012167,197.043646 C361.012167,204.187899 355.199223,210.000844 348.05497,210.000844 L344.581703,210.000844 C337.43745,210.000844 331.62121,204.187899 331.62121,197.043646 C331.62121,189.896097 337.434155,184.083154 344.581703,184.083154 L348.05497,184.083154 C355.199223,184.083154 361.012167,189.896097 361.012167,197.043646 L361.012167,197.043646 Z M361.012167,104.613221 C361.012167,111.757474 355.199223,117.570419 348.05497,117.570419 L344.581703,117.570419 C337.43745,117.570419 331.62121,111.757474 331.62121,104.613221 C331.62121,97.4656728 337.434155,91.6527287 344.581703,91.6527287 L348.05497,91.6527287 C355.199223,91.6527287 361.012167,97.4656728 361.012167,104.613221 L361.012167,104.613221 Z M58.5413556,52.8074992 L337.602215,52.8074992 L337.602215,75.5254342 C324.46048,78.679055 314.663495,90.5191387 314.663495,104.613221 C314.663495,118.704009 324.46048,130.544093 337.602215,133.697714 L337.602215,167.955858 C324.46048,171.109479 314.663495,182.949564 314.663495,197.043646 C314.663495,211.134434 324.46048,222.974517 337.602215,226.128138 L337.602215,249.373324 L58.5413556,249.373324 L58.5413556,52.8074992 Z" id="Shape" fill="#FFFFFF"></path>
                <path d="M244.951005,106.14225 C244.58852,105.519434 244.150242,104.929572 243.6164,104.392435 C243.069377,103.848707 242.466334,103.400544 241.827042,103.034764 C230.11218,92.1569133 214.436344,85.4838901 197.224888,85.4838901 C161.048868,85.4838901 131.615072,114.914391 131.615072,151.090411 C131.615072,187.266432 161.048868,216.696933 197.224888,216.696933 C214.604405,216.696933 230.418645,209.888802 242.169755,198.816528 C242.795866,198.454043 243.385728,198.015765 243.91957,197.481924 C244.466592,196.9349 244.911461,196.331857 245.280537,195.692565 C256.158388,183.977704 262.83141,168.301867 262.83141,151.090411 C262.83141,133.7076 256.023279,117.89336 244.951005,106.14225 L244.951005,106.14225 Z M241.19434,159.56927 L245.119066,159.56927 C243.876731,166.604778 241.125139,173.119625 237.200413,178.771097 L234.620178,176.187567 C231.308381,172.879066 225.940305,172.879066 222.628509,176.187567 C219.316712,179.499364 219.316712,184.867439 222.628509,188.179236 L225.258174,190.812196 C219.527612,194.87203 212.887544,197.715891 205.703747,198.984589 L205.703747,195.063158 C205.703747,190.380509 201.907538,186.584301 197.224888,186.584301 C192.542239,186.584301 188.746031,190.380509 188.746031,195.063158 L188.746031,198.984589 C181.562233,197.715891 174.918869,194.87203 169.188308,190.812196 L172.127733,187.872771 C175.43953,184.56427 175.43953,179.192898 172.127733,175.881102 C168.815937,172.572601 163.447861,172.572601 160.136065,175.881102 L157.249365,178.771097 C153.324639,173.119625 150.573046,166.604778 149.330711,159.56927 L153.252141,159.56927 C157.934791,159.56927 161.730999,155.773061 161.730999,151.090411 C161.730999,146.407762 157.934791,142.611554 153.252141,142.611554 L149.330711,142.611554 C150.599409,135.427757 153.44327,128.787687 157.503104,123.053831 L160.439234,125.993256 C162.09678,127.647507 164.2651,128.474632 166.436716,128.474632 C168.605036,128.474632 170.776652,127.647507 172.430903,125.993256 C175.742699,122.68146 175.742699,117.313384 172.430903,114.001588 L169.544202,111.114888 C175.192381,107.190162 181.710523,104.438569 188.742735,103.196234 L188.742735,107.117664 C188.742735,111.800314 192.538944,115.596523 197.221593,115.596523 C201.907538,115.596523 205.703747,111.800314 205.703747,107.117664 L205.703747,103.196234 C212.735959,104.438569 219.250806,107.190162 224.902279,111.114888 L222.322044,113.695123 C219.010247,117.006919 219.010247,122.374995 222.322044,125.686791 C223.976295,127.341042 226.14791,128.168168 228.31623,128.168168 C230.484551,128.168168 232.656166,127.341042 234.310417,125.686791 L236.943378,123.053831 C241.003212,128.784392 243.850368,135.427757 245.119066,142.611554 L241.19434,142.611554 C236.511691,142.611554 232.715483,146.407762 232.715483,151.090411 C232.715483,155.773061 236.511691,159.56927 241.19434,159.56927 L241.19434,159.56927 Z" id="Shape" fill="#00D0DB"></path>
                <path d="M197.224888,123.871071 C182.214707,123.871071 170.005548,136.083525 170.005548,151.090411 C170.005548,166.100593 182.214707,178.309753 197.224888,178.309753 C212.231775,178.309753 224.440934,166.097298 224.440934,151.090411 C224.440934,136.083525 212.231775,123.871071 197.224888,123.871071 L197.224888,123.871071 Z M197.224888,161.348742 C191.566824,161.348742 186.963263,156.748476 186.963263,151.090411 C186.963263,145.432347 191.566824,140.832081 197.224888,140.832081 C202.879658,140.832081 207.483219,145.432347 207.483219,151.090411 C207.483219,156.748476 202.879658,161.348742 197.224888,161.348742 L197.224888,161.348742 Z" id="Shape" fill="#00D0DB"></path>
                <path d="M76.2141558,113.26014 C80.896805,113.26014 84.6930133,109.463932 84.6930133,104.777988 L84.6930133,79.7006037 L102.781024,79.7006037 C107.463673,79.7006037 111.259882,75.9076912 111.259882,71.2217461 C111.259882,66.5390969 107.463673,62.7428885 102.781024,62.7428885 L76.2141558,62.7428885 C71.5315066,62.7428885 67.7352982,66.5390969 67.7352982,71.2217461 L67.7352982,104.777988 C67.7352982,109.463932 71.5315066,113.26014 76.2141558,113.26014 L76.2141558,113.26014 Z" id="Shape" fill="#FFFFFF"></path>
                <path d="M111.078639,223.00088 L86.0012551,223.00088 L86.0012551,195.303717 C86.0012551,190.621068 82.2050467,186.82486 77.5223975,186.82486 C72.8397483,186.82486 69.0435399,190.621068 69.0435399,195.303717 L69.0435399,231.483033 C69.0435399,236.165683 72.8397483,239.961891 77.5223975,239.961891 L111.078639,239.961891 C115.761288,239.961891 119.557497,236.165683 119.557497,231.483033 C119.557497,226.797088 115.761288,223.00088 111.078639,223.00088 L111.078639,223.00088 Z" id="Shape" fill="#FFFFFF"></path>
                <path d="M397.046489,43.5278787 C398.104287,43.5278787 399.178561,43.3301595 400.216586,42.9083586 C404.559818,41.1585436 406.658937,36.2155648 404.909122,31.875628 L404.823444,31.6614324 C403.070334,27.3182005 398.130649,25.219082 393.787418,26.9721922 C389.444186,28.7220072 387.345068,33.6649868 389.094883,38.0082187 L389.180561,38.2191192 C390.515165,41.5243243 393.691854,43.5278787 397.046489,43.5278787 L397.046489,43.5278787 Z" id="Shape" fill="#000000"></path>
                <path d="M139.922573,79.1898297 C144.265805,77.4334237 146.361628,72.49374 144.608518,68.1505081 L144.522839,67.9396076 C142.766434,63.5963766 137.823454,61.5005532 133.483518,63.2569584 C129.140286,65.0100685 127.044463,69.9530482 128.800869,74.2962792 L128.886547,74.5071797 C130.221151,77.8090905 133.394545,79.8093499 136.74918,79.8093499 C137.806978,79.8093499 138.884547,79.6116307 139.922573,79.1898297 L139.922573,79.1898297 Z" id="Shape" fill="#FFFFFF"></path>
                <path d="M59.9583435,12.1531393 C61.2929478,15.4517542 64.4696361,17.4553086 67.8209761,17.4553086 C68.8820695,17.4553086 69.9563433,17.2542943 70.9976644,16.8357885 C75.3408962,15.0793833 77.4367196,10.1364036 75.6803144,5.7964677 L75.5946357,5.58556723 C73.8382304,1.24233534 68.8985459,-0.853488033 64.5553148,0.902917197 C60.2153781,2.65602816 58.1195547,7.59900698 59.8726648,11.9389438 L59.9583435,12.1531393 Z" id="Shape" fill="#000000"></path>
                <path d="M389.098178,269.698857 L389.183857,269.913052 C390.518461,273.211667 393.691854,275.215221 397.046489,275.215221 C398.104287,275.215221 399.181856,275.017502 400.223177,274.595701 C404.563113,272.839296 406.658937,267.896316 404.905827,263.556381 L404.820149,263.34548 C403.063743,259.002248 398.120764,256.906425 393.780827,258.662831 C389.440891,260.41594 387.345068,265.358921 389.098178,269.698857 L389.098178,269.698857 Z" id="Shape" fill="#000000"></path>
            </g>
        </g>
    </g>
</svg>